<ttFont>
    <TTGlyph name="A" xMin="27" yMin="0" xMax="1338" yMax="1392">
      <contour>
        <pt x="614" y="1392" on="1"/>
        <pt x="751" y="1392" on="1"/>
        <pt x="1338" y="0" on="1"/>
        <pt x="1130" y="0" on="1"/>
        <pt x="989" y="350" on="1"/>
        <pt x="371" y="350" on="1"/>
        <pt x="231" y="0" on="1"/>
        <pt x="27" y="0" on="1"/>
      </contour>
      <contour>
        <pt x="925" y="510" on="1"/>
        <pt x="681" y="1120" on="1"/>
        <pt x="436" y="510" on="1"/>
      </contour>
    </TTGlyph>
    <TTGlyph name="AE" xMin="20" yMin="0" xMax="1755" yMax="1392">
      <contour>
        <pt x="923" y="1392" on="1"/>
        <pt x="1755" y="1392" on="1"/>
        <pt x="1755" y="1218" on="1"/>
        <pt x="1189" y="1218" on="1"/>
        <pt x="1189" y="808" on="1"/>
        <pt x="1585" y="808" on="1"/>
        <pt x="1585" y="640" on="1"/>
        <pt x="1189" y="640" on="1"/>
        <pt x="1189" y="176" on="1"/>
        <pt x="1755" y="176" on="1"/>
        <pt x="1755" y="0" on="1"/>
        <pt x="989" y="0" on="1"/>
        <pt x="989" y="350" on="1"/>
        <pt x="468" y="350" on="1"/>
        <pt x="244" y="0" on="1"/>
        <pt x="20" y="0" on="1"/>
      </contour>
      <contour>
        <pt x="989" y="510" on="1"/>
        <pt x="989" y="1165" on="1"/>
        <pt x="570" y="510" on="1"/>
      </contour>
    </TTGlyph>
    <TTGlyph name="AEacute" xMin="20" yMin="0" xMax="1755" yMax="1897">
      <component glyphName="AE" x="0" y="0" flags="0x1004"/>
      <component glyphName="acute.cap" x="935" y="0" flags="0x1004"/>
    </TTGlyph>
    <TTGlyph name="Aacute" xMin="27" yMin="0" xMax="1338" yMax="1897">
      <component glyphName="A" x="0" y="0" flags="0x1204"/>
      <component glyphName="acute.cap" x="425" y="0" flags="0x1004"/>
    </TTGlyph>
    <TTGlyph name="Abreve" xMin="27" yMin="0" xMax="1338" yMax="1857">
      <component glyphName="A" x="0" y="0" flags="0x1204"/>
      <component glyphName="breve.cap" x="340" y="0" flags="0x1004"/>
    </TTGlyph>
    <TTGlyph name="Acircumflex" xMin="27" yMin="0" xMax="1338" yMax="1975">
      <component glyphName="A" x="0" y="0" flags="0x1204"/>
      <component glyphName="circumflex.cap" x="339" y="0" flags="0x1004"/>
    </TTGlyph>
    <TTGlyph name="Adieresis" xMin="27" yMin="0" xMax="1338" yMax="1782">
      <component glyphName="A" x="0" y="0" flags="0x1204"/>
      <component glyphName="dieresis.cap" x="246" y="0" flags="0x1004"/>
    </TTGlyph>
    <TTGlyph name="Agrave" xMin="27" yMin="0" xMax="1338" yMax="1897">
      <component glyphName="A" x="0" y="0" flags="0x1204"/>
      <component glyphName="grave.cap" x="253" y="0" flags="0x1004"/>
    </TTGlyph>
    <TTGlyph name="Amacron" xMin="27" yMin="0" xMax="1338" yMax="1682">
      <component glyphName="A" x="0" y="0" flags="0x1204"/>
      <component glyphName="macron.cap" x="339" y="0" flags="0x1004"/>
    </TTGlyph>
    <TTGlyph name="Aogonek" xMin="27" yMin="-510" xMax="1338" yMax="1392">
      <contour>
        <pt x="920" y="-270" on="1"/>
        <pt x="920" y="-100" on="0"/>
        <pt x="1120" y="25" on="1"/>
        <pt x="989" y="350" on="1"/>
        <pt x="371" y="350" on="1"/>
        <pt x="231" y="0" on="1"/>
        <pt x="27" y="0" on="1"/>
        <pt x="614" y="1392" on="1"/>
        <pt x="751" y="1392" on="1"/>
        <pt x="1338" y="0" on="1"/>
        <pt x="1089" y="-110" on="0"/>
        <pt x="1089" y="-242" on="1"/>
        <pt x="1089" y="-292" on="0"/>
        <pt x="1156" y="-359" on="0"/>
        <pt x="1281" y="-359" on="0"/>
        <pt x="1326" y="-340" on="1"/>
        <pt x="1326" y="-488" on="1"/>
        <pt x="1271" y="-510" on="0"/>
        <pt x="1117" y="-510" on="0"/>
        <pt x="1011" y="-466" on="0"/>
        <pt x="979" y="-432" on="1"/>
        <pt x="920" y="-368" on="0"/>
      </contour>
      <contour>
        <pt x="925" y="510" on="1"/>
        <pt x="681" y="1120" on="1"/>
        <pt x="436" y="510" on="1"/>
      </contour>
    </TTGlyph>
    <TTGlyph name="Aring" xMin="27" yMin="0" xMax="1338" yMax="2040">
      <component glyphName="A" x="0" y="0" flags="0x1204"/>
      <component glyphName="ring.cap" x="339" y="0" flags="0x1004"/>
    </TTGlyph>
    <TTGlyph name="Atilde" xMin="27" yMin="0" xMax="1338" yMax="1863">
      <component glyphName="A" x="0" y="0" flags="0x1204"/>
      <component glyphName="tilde.cap" x="340" y="0" flags="0x1004"/>
    </TTGlyph>
    <TTGlyph name="B" xMin="170" yMin="0" xMax="1091" yMax="1392">
      <contour>
        <pt x="170" y="1392" on="1"/>
        <pt x="521" y="1392" on="1"/>
        <pt x="866" y="1392" on="0"/>
        <pt x="966" y="1193" on="1"/>
        <pt x="1003" y="1118" on="0"/>
        <pt x="1003" y="970" on="0"/>
        <pt x="972" y="883" on="0"/>
        <pt x="946" y="847" on="1"/>
        <pt x="897" y="779" on="0"/>
        <pt x="816" y="731" on="1"/>
        <pt x="816" y="727" on="1"/>
        <pt x="966" y="684" on="0"/>
        <pt x="1037" y="576" on="1"/>
        <pt x="1091" y="494" on="0"/>
        <pt x="1091" y="294" on="0"/>
        <pt x="1012" y="148" on="0"/>
        <pt x="942" y="99" on="1"/>
        <pt x="799" y="0" on="0"/>
        <pt x="560" y="0" on="1"/>
        <pt x="170" y="0" on="1"/>
      </contour>
      <contour>
        <pt x="559" y="785" on="1"/>
        <pt x="720" y="785" on="0"/>
        <pt x="776" y="912" on="1"/>
        <pt x="795" y="957" on="0"/>
        <pt x="795" y="1068" on="0"/>
        <pt x="767" y="1149" on="0"/>
        <pt x="736" y="1178" on="1"/>
        <pt x="670" y="1240" on="0"/>
        <pt x="537" y="1240" on="1"/>
        <pt x="370" y="1240" on="1"/>
        <pt x="370" y="785" on="1"/>
      </contour>
      <contour>
        <pt x="883" y="390" on="1"/>
        <pt x="883" y="633" on="0"/>
        <pt x="591" y="633" on="1"/>
        <pt x="370" y="633" on="1"/>
        <pt x="370" y="152" on="1"/>
        <pt x="560" y="152" on="1"/>
        <pt x="780" y="152" on="0"/>
        <pt x="857" y="285" on="1"/>
        <pt x="883" y="330" on="0"/>
      </contour>
    </TTGlyph>
    <TTGlyph name="C" xMin="92" yMin="-10" xMax="1100" yMax="1402">
      <contour>
        <pt x="1100" y="8" on="1"/>
        <pt x="1001" y="-10" on="0"/>
        <pt x="666" y="-10" on="0"/>
        <pt x="397" y="82" on="0"/>
        <pt x="300" y="172" on="1"/>
        <pt x="92" y="365" on="0"/>
        <pt x="92" y="710" on="1"/>
        <pt x="92" y="935" on="0"/>
        <pt x="199" y="1100" on="1"/>
        <pt x="344" y="1323" on="0"/>
        <pt x="644" y="1384" on="1"/>
        <pt x="736" y="1402" on="0"/>
        <pt x="991" y="1402" on="0"/>
        <pt x="1068" y="1388" on="1"/>
        <pt x="1068" y="1197" on="1"/>
        <pt x="998" y="1219" on="0"/>
        <pt x="705" y="1219" on="0"/>
        <pt x="501" y="1147" on="0"/>
        <pt x="434" y="1080" on="1"/>
        <pt x="300" y="949" on="0"/>
        <pt x="300" y="710" on="1"/>
        <pt x="300" y="469" on="0"/>
        <pt x="432" y="328" on="1"/>
        <pt x="575" y="176" on="0"/>
        <pt x="843" y="176" on="1"/>
        <pt x="1000" y="176" on="0"/>
        <pt x="1100" y="200" on="1"/>
      </contour>
    </TTGlyph>
    <TTGlyph name="Cacute" xMin="92" yMin="-10" xMax="1100" yMax="1897">
      <component glyphName="C" x="0" y="0" flags="0x1204"/>
      <component glyphName="acute.cap" x="486" y="0" flags="0x1004"/>
    </TTGlyph>
    <TTGlyph name="Ccaron" xMin="92" yMin="-10" xMax="1100" yMax="1975">
      <component glyphName="C" x="0" y="0" flags="0x1204"/>
      <component glyphName="caron.cap" x="400" y="0" flags="0x1004"/>
    </TTGlyph>
    <TTGlyph name="Ccedilla" xMin="92" yMin="-509" xMax="1100" yMax="1402">
      <contour>
        <pt x="864" y="-275" on="1"/>
        <pt x="864" y="-219" on="0"/>
        <pt x="752" y="-219" on="1"/>
        <pt x="632" y="-219" on="1"/>
        <pt x="632" y="8" on="1"/>
        <pt x="247" y="88" on="0"/>
        <pt x="131" y="442" on="1"/>
        <pt x="92" y="561" on="0"/>
        <pt x="92" y="828" on="0"/>
        <pt x="149" y="1023" on="0"/>
        <pt x="249" y="1177" on="0"/>
        <pt x="388" y="1290" on="0"/>
        <pt x="470" y="1328" on="1"/>
        <pt x="634" y="1402" on="0"/>
        <pt x="991" y="1402" on="0"/>
        <pt x="1068" y="1388" on="1"/>
        <pt x="1068" y="1197" on="1"/>
        <pt x="998" y="1219" on="0"/>
        <pt x="705" y="1219" on="0"/>
        <pt x="501" y="1147" on="0"/>
        <pt x="434" y="1080" on="1"/>
        <pt x="300" y="949" on="0"/>
        <pt x="300" y="710" on="1"/>
        <pt x="300" y="469" on="0"/>
        <pt x="432" y="328" on="1"/>
        <pt x="575" y="176" on="0"/>
        <pt x="843" y="176" on="1"/>
        <pt x="1000" y="176" on="0"/>
        <pt x="1100" y="200" on="1"/>
        <pt x="1100" y="8" on="1"/>
        <pt x="1001" y="-10" on="0"/>
        <pt x="800" y="-10" on="0"/>
        <pt x="776" y="-8" on="1"/>
        <pt x="776" y="-91" on="1"/>
        <pt x="810" y="-91" on="1"/>
        <pt x="965" y="-91" on="0"/>
        <pt x="1012" y="-190" on="1"/>
        <pt x="1028" y="-224" on="0"/>
        <pt x="1028" y="-324" on="0"/>
        <pt x="978" y="-413" on="0"/>
        <pt x="936" y="-444" on="1"/>
        <pt x="846" y="-509" on="0"/>
        <pt x="717" y="-509" on="1"/>
        <pt x="650" y="-509" on="0"/>
        <pt x="616" y="-501" on="1"/>
        <pt x="616" y="-362" on="1"/>
        <pt x="661" y="-371" on="0"/>
        <pt x="703" y="-371" on="1"/>
        <pt x="864" y="-371" on="0"/>
      </contour>
    </TTGlyph>
    <TTGlyph name="Ccircumflex" xMin="92" yMin="-10" xMax="1100" yMax="1975">
      <component glyphName="C" x="0" y="0" flags="0x1204"/>
      <component glyphName="circumflex.cap" x="400" y="0" flags="0x1004"/>
    </TTGlyph>
    <TTGlyph name="Cdotaccent" xMin="92" yMin="-10" xMax="1100" yMax="1782">
      <component glyphName="C" x="0" y="0" flags="0x1204"/>
      <component glyphName="dotaccent.cap" x="400" y="0" flags="0x1004"/>
    </TTGlyph>
    <TTGlyph name="D" xMin="154" yMin="0" xMax="1250" yMax="1391">
      <contour>
        <pt x="154" y="1391" on="1"/>
        <pt x="492" y="1391" on="1"/>
        <pt x="834" y="1391" on="0"/>
        <pt x="1034" y="1222" on="1"/>
        <pt x="1250" y="1041" on="0"/>
        <pt x="1250" y="694" on="1"/>
        <pt x="1250" y="347" on="0"/>
        <pt x="1040" y="167" on="1"/>
        <pt x="844" y="0" on="0"/>
        <pt x="502" y="0" on="1"/>
        <pt x="154" y="0" on="1"/>
      </contour>
      <contour>
        <pt x="1045" y="693" on="1"/>
        <pt x="1045" y="1230" on="0"/>
        <pt x="479" y="1230" on="1"/>
        <pt x="354" y="1230" on="1"/>
        <pt x="354" y="160" on="1"/>
        <pt x="490" y="160" on="1"/>
        <pt x="922" y="160" on="0"/>
        <pt x="1016" y="472" on="1"/>
        <pt x="1045" y="571" on="0"/>
      </contour>
    </TTGlyph>
    <TTGlyph name="Dcaron" xMin="154" yMin="0" xMax="1250" yMax="1975">
      <component glyphName="D" x="0" y="0" flags="0x1204"/>
      <component glyphName="caron.cap" x="298" y="0" flags="0x1004"/>
    </TTGlyph>
    <TTGlyph name="Dcroat" xMin="29" yMin="0" xMax="1250" yMax="1391">
      <contour>
        <pt x="154" y="680" on="1"/>
        <pt x="29" y="680" on="1"/>
        <pt x="29" y="824" on="1"/>
        <pt x="154" y="824" on="1"/>
        <pt x="154" y="1391" on="1"/>
        <pt x="492" y="1391" on="1"/>
        <pt x="834" y="1391" on="0"/>
        <pt x="1034" y="1222" on="1"/>
        <pt x="1250" y="1041" on="0"/>
        <pt x="1250" y="694" on="1"/>
        <pt x="1250" y="347" on="0"/>
        <pt x="1040" y="167" on="1"/>
        <pt x="844" y="0" on="0"/>
        <pt x="502" y="0" on="1"/>
        <pt x="154" y="0" on="1"/>
      </contour>
      <contour>
        <pt x="1045" y="693" on="1"/>
        <pt x="1045" y="1230" on="0"/>
        <pt x="479" y="1230" on="1"/>
        <pt x="354" y="1230" on="1"/>
        <pt x="354" y="824" on="1"/>
        <pt x="709" y="824" on="1"/>
        <pt x="709" y="680" on="1"/>
        <pt x="354" y="680" on="1"/>
        <pt x="354" y="160" on="1"/>
        <pt x="490" y="160" on="1"/>
        <pt x="922" y="160" on="0"/>
        <pt x="1016" y="472" on="1"/>
        <pt x="1045" y="571" on="0"/>
      </contour>
    </TTGlyph>
    <TTGlyph name="Delta" xMin="196" yMin="0" xMax="1340" yMax="1392">
      <contour>
        <pt x="196" y="100" on="1"/>
        <pt x="708" y="1392" on="1"/>
        <pt x="828" y="1392" on="1"/>
        <pt x="1340" y="100" on="1"/>
        <pt x="1340" y="0" on="1"/>
        <pt x="196" y="0" on="1"/>
      </contour>
      <contour>
        <pt x="1131" y="162" on="1"/>
        <pt x="796" y="1019" on="1"/>
        <pt x="768" y="1108" on="1"/>
        <pt x="740" y="1019" on="1"/>
        <pt x="404" y="162" on="1"/>
      </contour>
    </TTGlyph>
    <TTGlyph name="E" xMin="154" yMin="0" xMax="1053" yMax="1392">
      <contour>
        <pt x="154" y="1392" on="1"/>
        <pt x="1053" y="1392" on="1"/>
        <pt x="1053" y="1218" on="1"/>
        <pt x="354" y="1218" on="1"/>
        <pt x="354" y="808" on="1"/>
        <pt x="883" y="808" on="1"/>
        <pt x="883" y="640" on="1"/>
        <pt x="354" y="640" on="1"/>
        <pt x="354" y="176" on="1"/>
        <pt x="1053" y="176" on="1"/>
        <pt x="1053" y="0" on="1"/>
        <pt x="154" y="0" on="1"/>
      </contour>
    </TTGlyph>
    <TTGlyph name="Eacute" xMin="154" yMin="0" xMax="1053" yMax="1897">
      <component glyphName="E" x="0" y="0" flags="0x1204"/>
      <component glyphName="acute.cap" x="360" y="0" flags="0x1004"/>
    </TTGlyph>
    <TTGlyph name="Ebreve" xMin="154" yMin="0" xMax="1053" yMax="1857">
      <component glyphName="E" x="0" y="0" flags="0x1204"/>
      <component glyphName="breve.cap" x="275" y="0" flags="0x1004"/>
    </TTGlyph>
    <TTGlyph name="Ecaron" xMin="154" yMin="0" xMax="1053" yMax="1975">
      <component glyphName="E" x="0" y="0" flags="0x1204"/>
      <component glyphName="caron.cap" x="274" y="0" flags="0x1004"/>
    </TTGlyph>
    <TTGlyph name="Ecircumflex" xMin="154" yMin="0" xMax="1053" yMax="1975">
      <component glyphName="E" x="0" y="0" flags="0x1204"/>
      <component glyphName="circumflex.cap" x="274" y="0" flags="0x1004"/>
    </TTGlyph>
    <TTGlyph name="Edieresis" xMin="154" yMin="0" xMax="1053" yMax="1782">
      <component glyphName="E" x="0" y="0" flags="0x1204"/>
      <component glyphName="dieresis.cap" x="200" y="0" flags="0x1004"/>
    </TTGlyph>
    <TTGlyph name="Edotaccent" xMin="154" yMin="0" xMax="1053" yMax="1782">
      <component glyphName="E" x="0" y="0" flags="0x1204"/>
      <component glyphName="dotaccent.cap" x="274" y="0" flags="0x1004"/>
    </TTGlyph>
    <TTGlyph name="Egrave" xMin="154" yMin="0" xMax="1053" yMax="1897">
      <component glyphName="E" x="0" y="0" flags="0x1204"/>
      <component glyphName="grave.cap" x="188" y="0" flags="0x1004"/>
    </TTGlyph>
    <TTGlyph name="Emacron" xMin="154" yMin="0" xMax="1053" yMax="1682">
      <component glyphName="E" x="0" y="0" flags="0x1204"/>
      <component glyphName="macron.cap" x="274" y="0" flags="0x1004"/>
    </TTGlyph>
    <TTGlyph name="Eng" xMin="153" yMin="-416" xMax="1211" yMax="1392">
      <contour>
        <pt x="153" y="1392" on="1"/>
        <pt x="297" y="1392" on="1"/>
        <pt x="1024" y="365" on="1"/>
        <pt x="1013" y="509" on="1"/>
        <pt x="1013" y="1392" on="1"/>
        <pt x="1211" y="1392" on="1"/>
        <pt x="1211" y="-20" on="1"/>
        <pt x="1211" y="-291" on="0"/>
        <pt x="1040" y="-381" on="1"/>
        <pt x="974" y="-416" on="0"/>
        <pt x="868" y="-416" on="1"/>
        <pt x="851" y="-416" on="0"/>
        <pt x="833" y="-414" on="1"/>
        <pt x="796" y="-410" on="1"/>
        <pt x="796" y="-256" on="1"/>
        <pt x="823" y="-264" on="0"/>
        <pt x="891" y="-264" on="0"/>
        <pt x="952" y="-240" on="0"/>
        <pt x="972" y="-212" on="1"/>
        <pt x="1011" y="-156" on="0"/>
        <pt x="1011" y="-19" on="1"/>
        <pt x="1011" y="80" on="1"/>
        <pt x="461" y="853" on="1"/>
        <pt x="340" y="1027" on="1"/>
        <pt x="351" y="853" on="1"/>
        <pt x="351" y="0" on="1"/>
        <pt x="153" y="0" on="1"/>
      </contour>
    </TTGlyph>
    <TTGlyph name="Eogonek" xMin="154" yMin="-510" xMax="1053" yMax="1392">
      <contour>
        <pt x="634" y="-270" on="1"/>
        <pt x="634" y="-119" on="0"/>
        <pt x="804" y="0" on="1"/>
        <pt x="154" y="0" on="1"/>
        <pt x="154" y="1392" on="1"/>
        <pt x="1053" y="1392" on="1"/>
        <pt x="1053" y="1218" on="1"/>
        <pt x="354" y="1218" on="1"/>
        <pt x="354" y="808" on="1"/>
        <pt x="883" y="808" on="1"/>
        <pt x="883" y="640" on="1"/>
        <pt x="354" y="640" on="1"/>
        <pt x="354" y="176" on="1"/>
        <pt x="1053" y="176" on="1"/>
        <pt x="1053" y="0" on="1"/>
        <pt x="803" y="-111" on="0"/>
        <pt x="803" y="-242" on="1"/>
        <pt x="803" y="-292" on="0"/>
        <pt x="870" y="-359" on="0"/>
        <pt x="995" y="-359" on="0"/>
        <pt x="1040" y="-340" on="1"/>
        <pt x="1040" y="-488" on="1"/>
        <pt x="985" y="-510" on="0"/>
        <pt x="831" y="-510" on="0"/>
        <pt x="725" y="-466" on="0"/>
        <pt x="693" y="-432" on="1"/>
        <pt x="634" y="-368" on="0"/>
      </contour>
    </TTGlyph>
    <TTGlyph name="Eth" xMin="29" yMin="0" xMax="1250" yMax="1391">
      <contour>
        <pt x="154" y="666" on="1"/>
        <pt x="29" y="666" on="1"/>
        <pt x="29" y="820" on="1"/>
        <pt x="154" y="820" on="1"/>
        <pt x="154" y="1391" on="1"/>
        <pt x="492" y="1391" on="1"/>
        <pt x="834" y="1391" on="0"/>
        <pt x="1034" y="1222" on="1"/>
        <pt x="1250" y="1041" on="0"/>
        <pt x="1250" y="694" on="1"/>
        <pt x="1250" y="347" on="0"/>
        <pt x="1040" y="167" on="1"/>
        <pt x="844" y="0" on="0"/>
        <pt x="502" y="0" on="1"/>
        <pt x="154" y="0" on="1"/>
      </contour>
      <contour>
        <pt x="1045" y="693" on="1"/>
        <pt x="1045" y="1230" on="0"/>
        <pt x="479" y="1230" on="1"/>
        <pt x="354" y="1230" on="1"/>
        <pt x="354" y="820" on="1"/>
        <pt x="709" y="820" on="1"/>
        <pt x="709" y="666" on="1"/>
        <pt x="354" y="666" on="1"/>
        <pt x="354" y="160" on="1"/>
        <pt x="490" y="160" on="1"/>
        <pt x="922" y="160" on="0"/>
        <pt x="1016" y="472" on="1"/>
        <pt x="1045" y="571" on="0"/>
      </contour>
    </TTGlyph>
    <TTGlyph name="Euro" xMin="0" yMin="-8" xMax="1142" yMax="1232">
      <contour>
        <pt x="1142" y="14" on="1"/>
        <pt x="1050" y="-8" on="0"/>
        <pt x="753" y="-8" on="0"/>
        <pt x="548" y="36" on="0"/>
        <pt x="463" y="81" on="1"/>
        <pt x="286" y="175" on="0"/>
        <pt x="214" y="356" on="1"/>
        <pt x="0" y="356" on="1"/>
        <pt x="65" y="510" on="1"/>
        <pt x="176" y="510" on="1"/>
        <pt x="170" y="558" on="0"/>
        <pt x="170" y="645" on="0"/>
        <pt x="173" y="680" on="1"/>
        <pt x="0" y="680" on="1"/>
        <pt x="65" y="833" on="1"/>
        <pt x="204" y="833" on="1"/>
        <pt x="270" y="1027" on="0"/>
        <pt x="449" y="1132" on="1"/>
        <pt x="618" y="1232" on="0"/>
        <pt x="842" y="1232" on="1"/>
        <pt x="1008" y="1232" on="0"/>
        <pt x="1102" y="1217" on="1"/>
        <pt x="1102" y="1027" on="1"/>
        <pt x="1006" y="1057" on="0"/>
        <pt x="842" y="1057" on="1"/>
        <pt x="515" y="1057" on="0"/>
        <pt x="405" y="833" on="1"/>
        <pt x="994" y="833" on="1"/>
        <pt x="928" y="680" on="1"/>
        <pt x="362" y="680" on="1"/>
        <pt x="358" y="646" on="0"/>
        <pt x="358" y="548" on="0"/>
        <pt x="366" y="510" on="1"/>
        <pt x="850" y="510" on="1"/>
        <pt x="784" y="356" on="1"/>
        <pt x="427" y="356" on="1"/>
        <pt x="551" y="170" on="0"/>
        <pt x="868" y="170" on="1"/>
        <pt x="989" y="170" on="0"/>
        <pt x="1126" y="202" on="0"/>
        <pt x="1142" y="209" on="1"/>
      </contour>
    </TTGlyph>
    <TTGlyph name="F" xMin="154" yMin="0" xMax="1101" yMax="1392">
      <contour>
        <pt x="154" y="1392" on="1"/>
        <pt x="1101" y="1392" on="1"/>
        <pt x="1101" y="1218" on="1"/>
        <pt x="354" y="1218" on="1"/>
        <pt x="354" y="808" on="1"/>
        <pt x="931" y="808" on="1"/>
        <pt x="931" y="640" on="1"/>
        <pt x="354" y="640" on="1"/>
        <pt x="354" y="0" on="1"/>
        <pt x="154" y="0" on="1"/>
      </contour>
    </TTGlyph>
    <TTGlyph name="G" xMin="132" yMin="-16" xMax="1198" yMax="1402">
      <contour>
        <pt x="1198" y="14" on="1"/>
        <pt x="1083" y="-16" on="0"/>
        <pt x="706" y="-16" on="0"/>
        <pt x="437" y="78" on="0"/>
        <pt x="340" y="170" on="1"/>
        <pt x="132" y="364" on="0"/>
        <pt x="132" y="710" on="1"/>
        <pt x="132" y="936" on="0"/>
        <pt x="240" y="1100" on="1"/>
        <pt x="386" y="1323" on="0"/>
        <pt x="689" y="1384" on="1"/>
        <pt x="782" y="1402" on="0"/>
        <pt x="1052" y="1402" on="0"/>
        <pt x="1150" y="1389" on="1"/>
        <pt x="1150" y="1197" on="1"/>
        <pt x="1064" y="1219" on="0"/>
        <pt x="745" y="1219" on="0"/>
        <pt x="541" y="1147" on="0"/>
        <pt x="474" y="1080" on="1"/>
        <pt x="340" y="949" on="0"/>
        <pt x="340" y="710" on="1"/>
        <pt x="340" y="467" on="0"/>
        <pt x="472" y="321" on="1"/>
        <pt x="616" y="162" on="0"/>
        <pt x="883" y="162" on="1"/>
        <pt x="945" y="162" on="0"/>
        <pt x="998" y="167" on="1"/>
        <pt x="998" y="680" on="1"/>
        <pt x="1198" y="680" on="1"/>
      </contour>
    </TTGlyph>
    <TTGlyph name="Gbreve" xMin="132" yMin="-16" xMax="1198" yMax="1857">
      <component glyphName="G" x="0" y="0" flags="0x1204"/>
      <component glyphName="breve.cap" x="396" y="0" flags="0x1004"/>
    </TTGlyph>
    <TTGlyph name="Gcircumflex" xMin="132" yMin="-16" xMax="1198" yMax="1975">
      <component glyphName="G" x="0" y="0" flags="0x1204"/>
      <component glyphName="circumflex.cap" x="395" y="0" flags="0x1004"/>
    </TTGlyph>
    <TTGlyph name="Gcommaaccent" xMin="132" yMin="-510" xMax="1198" yMax="1402">
      <component glyphName="G" x="0" y="0" flags="0x1204"/>
      <component glyphName="commaaccent" x="579" y="0" flags="0x1004"/>
    </TTGlyph>
    <TTGlyph name="Gdotaccent" xMin="132" yMin="-16" xMax="1198" yMax="1782">
      <component glyphName="G" x="0" y="0" flags="0x1204"/>
      <component glyphName="dotaccent.cap" x="395" y="0" flags="0x1004"/>
    </TTGlyph>
    <TTGlyph name="H" xMin="154" yMin="0" xMax="1212" yMax="1392">
      <contour>
        <pt x="154" y="1392" on="1"/>
        <pt x="354" y="1392" on="1"/>
        <pt x="354" y="842" on="1"/>
        <pt x="1012" y="842" on="1"/>
        <pt x="1012" y="1392" on="1"/>
        <pt x="1212" y="1392" on="1"/>
        <pt x="1212" y="0" on="1"/>
        <pt x="1012" y="0" on="1"/>
        <pt x="1012" y="666" on="1"/>
        <pt x="354" y="666" on="1"/>
        <pt x="354" y="0" on="1"/>
        <pt x="154" y="0" on="1"/>
      </contour>
    </TTGlyph>
    <TTGlyph name="Hbar" xMin="16" yMin="0" xMax="1360" yMax="1392">
      <contour>
        <pt x="154" y="1032" on="1"/>
        <pt x="16" y="1032" on="1"/>
        <pt x="16" y="1176" on="1"/>
        <pt x="154" y="1176" on="1"/>
        <pt x="154" y="1392" on="1"/>
        <pt x="354" y="1392" on="1"/>
        <pt x="354" y="1176" on="1"/>
        <pt x="1012" y="1176" on="1"/>
        <pt x="1012" y="1392" on="1"/>
        <pt x="1212" y="1392" on="1"/>
        <pt x="1212" y="1176" on="1"/>
        <pt x="1360" y="1176" on="1"/>
        <pt x="1360" y="1032" on="1"/>
        <pt x="1212" y="1032" on="1"/>
        <pt x="1212" y="0" on="1"/>
        <pt x="1012" y="0" on="1"/>
        <pt x="1012" y="666" on="1"/>
        <pt x="354" y="666" on="1"/>
        <pt x="354" y="0" on="1"/>
        <pt x="154" y="0" on="1"/>
      </contour>
      <contour>
        <pt x="1012" y="842" on="1"/>
        <pt x="1012" y="1032" on="1"/>
        <pt x="354" y="1032" on="1"/>
        <pt x="354" y="842" on="1"/>
      </contour>
    </TTGlyph>
    <TTGlyph name="Hcircumflex" xMin="154" yMin="0" xMax="1212" yMax="1975">
      <component glyphName="H" x="0" y="0" flags="0x1204"/>
      <component glyphName="circumflex.cap" x="424" y="0" flags="0x1004"/>
    </TTGlyph>
    <TTGlyph name="I" xMin="156" yMin="0" xMax="356" yMax="1392">
      <contour>
        <pt x="156" y="1392" on="1"/>
        <pt x="356" y="1392" on="1"/>
        <pt x="356" y="0" on="1"/>
        <pt x="156" y="0" on="1"/>
      </contour>
    </TTGlyph>
    <TTGlyph name="IJ" xMin="156" yMin="-10" xMax="1378" yMax="1392">
      <component glyphName="I" x="0" y="0" flags="0x1004"/>
      <component glyphName="J" x="512" y="0" flags="0x1004"/>
    </TTGlyph>
    <TTGlyph name="Iacute" xMin="122" yMin="0" xMax="588" yMax="1897">
      <component glyphName="I" x="0" y="0" flags="0x1204"/>
      <component glyphName="acute.cap" x="1" y="0" flags="0x1004"/>
    </TTGlyph>
    <TTGlyph name="Ibreve" xMin="-78" yMin="0" xMax="592" yMax="1857">
      <component glyphName="I" x="0" y="0" flags="0x1204"/>
      <component glyphName="breve.cap" x="-83" y="0" flags="0x1004"/>
    </TTGlyph>
    <TTGlyph name="Icircumflex" xMin="-68" yMin="0" xMax="580" yMax="1975">
      <component glyphName="I" x="0" y="0" flags="0x1204"/>
      <component glyphName="circumflex.cap" x="-84" y="0" flags="0x1004"/>
    </TTGlyph>
    <TTGlyph name="Idieresis" xMin="-107" yMin="0" xMax="605" yMax="1782">
      <component glyphName="I" x="0" y="0" flags="0x1204"/>
      <component glyphName="dieresis.cap" x="-177" y="0" flags="0x1004"/>
    </TTGlyph>
    <TTGlyph name="Idotaccent" xMin="134" yMin="0" xMax="381" yMax="1782">
      <component glyphName="I" x="0" y="0" flags="0x1204"/>
      <component glyphName="dotaccent.cap" x="-84" y="0" flags="0x1004"/>
    </TTGlyph>
    <TTGlyph name="Igrave" xMin="-73" yMin="0" xMax="393" yMax="1897">
      <component glyphName="I" x="0" y="0" flags="0x1204"/>
      <component glyphName="grave.cap" x="-170" y="0" flags="0x1004"/>
    </TTGlyph>
    <TTGlyph name="Imacron" xMin="-14" yMin="0" xMax="528" yMax="1682">
      <component glyphName="I" x="0" y="0" flags="0x1204"/>
      <component glyphName="macron.cap" x="-84" y="0" flags="0x1004"/>
    </TTGlyph>
    <TTGlyph name="Iogonek" xMin="-61" yMin="-510" xMax="356" yMax="1392">
      <contour>
        <pt x="345" y="-488" on="1"/>
        <pt x="290" y="-510" on="0"/>
        <pt x="136" y="-510" on="0"/>
        <pt x="30" y="-466" on="0"/>
        <pt x="-2" y="-432" on="1"/>
        <pt x="-61" y="-368" on="0"/>
        <pt x="-61" y="-270" on="1"/>
        <pt x="-61" y="-151" on="0"/>
        <pt x="51" y="-47" on="1"/>
        <pt x="93" y="-8" on="0"/>
        <pt x="156" y="28" on="1"/>
        <pt x="156" y="1392" on="1"/>
        <pt x="356" y="1392" on="1"/>
        <pt x="356" y="0" on="1"/>
        <pt x="108" y="-110" on="0"/>
        <pt x="108" y="-242" on="1"/>
        <pt x="108" y="-324" on="0"/>
        <pt x="179" y="-350" on="1"/>
        <pt x="204" y="-359" on="0"/>
        <pt x="300" y="-359" on="0"/>
        <pt x="345" y="-340" on="1"/>
      </contour>
    </TTGlyph>
    <TTGlyph name="Itilde" xMin="-158" yMin="0" xMax="674" yMax="1863">
      <component glyphName="I" x="0" y="0" flags="0x1204"/>
      <component glyphName="tilde.cap" x="-83" y="0" flags="0x1004"/>
    </TTGlyph>
    <TTGlyph name="J" xMin="129" yMin="-10" xMax="866" yMax="1392">
      <contour>
        <pt x="246" y="-10" on="1"/>
        <pt x="204" y="-10" on="0"/>
        <pt x="129" y="-5" on="1"/>
        <pt x="129" y="188" on="1"/>
        <pt x="169" y="176" on="0"/>
        <pt x="378" y="176" on="0"/>
        <pt x="521" y="234" on="0"/>
        <pt x="569" y="297" on="1"/>
        <pt x="666" y="424" on="0"/>
        <pt x="666" y="704" on="1"/>
        <pt x="666" y="1215" on="1"/>
        <pt x="153" y="1215" on="1"/>
        <pt x="153" y="1392" on="1"/>
        <pt x="866" y="1392" on="1"/>
        <pt x="866" y="704" on="1"/>
        <pt x="866" y="162" on="0"/>
        <pt x="525" y="34" on="1"/>
        <pt x="408" y="-10" on="0"/>
      </contour>
    </TTGlyph>
    <TTGlyph name="Jcircumflex" xMin="129" yMin="-10" xMax="866" yMax="1975">
      <component glyphName="J" x="0" y="0" flags="0x1204"/>
      <component glyphName="circumflex.cap" x="169" y="0" flags="0x1004"/>
    </TTGlyph>
    <TTGlyph name="K" xMin="154" yMin="0" xMax="1183" yMax="1392">
      <contour>
        <pt x="154" y="1392" on="1"/>
        <pt x="353" y="1392" on="1"/>
        <pt x="353" y="740" on="1"/>
        <pt x="889" y="1392" on="1"/>
        <pt x="1139" y="1392" on="1"/>
        <pt x="568" y="722" on="1"/>
        <pt x="1183" y="0" on="1"/>
        <pt x="935" y="0" on="1"/>
        <pt x="353" y="694" on="1"/>
        <pt x="353" y="0" on="1"/>
        <pt x="154" y="0" on="1"/>
      </contour>
    </TTGlyph>
    <TTGlyph name="Kcommaaccent" xMin="154" yMin="-510" xMax="1183" yMax="1392">
      <component glyphName="K" x="0" y="0" flags="0x1204"/>
      <component glyphName="commaaccent" x="413" y="0" flags="0x1004"/>
    </TTGlyph>
    <TTGlyph name="L" xMin="154" yMin="0" xMax="950" yMax="1392">
      <contour>
        <pt x="154" y="1392" on="1"/>
        <pt x="354" y="1392" on="1"/>
        <pt x="354" y="176" on="1"/>
        <pt x="950" y="176" on="1"/>
        <pt x="950" y="0" on="1"/>
        <pt x="154" y="0" on="1"/>
      </contour>
    </TTGlyph>
    <TTGlyph name="Lacute" xMin="154" yMin="0" xMax="950" yMax="1897">
      <component glyphName="L" x="0" y="0" flags="0x1204"/>
      <component glyphName="acute.cap" x="211" y="0" flags="0x1004"/>
    </TTGlyph>
    <TTGlyph name="Lcaron" xMin="154" yMin="0" xMax="950" yMax="1435">
      <contour>
        <pt x="510" y="1043" on="1"/>
        <pt x="604" y="1043" on="0"/>
        <pt x="618" y="1168" on="1"/>
        <pt x="622" y="1210" on="0"/>
        <pt x="622" y="1266" on="1"/>
        <pt x="622" y="1435" on="1"/>
        <pt x="794" y="1435" on="1"/>
        <pt x="794" y="1268" on="1"/>
        <pt x="794" y="1068" on="0"/>
        <pt x="740" y="984" on="1"/>
        <pt x="676" y="886" on="0"/>
        <pt x="510" y="886" on="1"/>
      </contour>
      <contour>
        <pt x="154" y="1392" on="1"/>
        <pt x="354" y="1392" on="1"/>
        <pt x="354" y="176" on="1"/>
        <pt x="950" y="176" on="1"/>
        <pt x="950" y="0" on="1"/>
        <pt x="154" y="0" on="1"/>
      </contour>
    </TTGlyph>
    <TTGlyph name="Lcommaaccent" xMin="154" yMin="-510" xMax="950" yMax="1392">
      <component glyphName="L" x="0" y="0" flags="0x1204"/>
      <component glyphName="commaaccent" x="297" y="0" flags="0x1004"/>
    </TTGlyph>
    <TTGlyph name="Ldot" xMin="154" yMin="0" xMax="950" yMax="1392">
      <contour>
        <pt x="764" y="650" on="0"/>
        <pt x="695" y="708" on="0"/>
        <pt x="695" y="818" on="0"/>
        <pt x="764" y="874" on="0"/>
        <pt x="870" y="874" on="0"/>
        <pt x="942" y="818" on="0"/>
        <pt x="942" y="708" on="0"/>
        <pt x="870" y="650" on="0"/>
      </contour>
      <contour>
        <pt x="154" y="1392" on="1"/>
        <pt x="354" y="1392" on="1"/>
        <pt x="354" y="176" on="1"/>
        <pt x="950" y="176" on="1"/>
        <pt x="950" y="0" on="1"/>
        <pt x="154" y="0" on="1"/>
      </contour>
    </TTGlyph>
    <TTGlyph name="Lslash" xMin="24" yMin="0" xMax="950" yMax="1392">
      <contour>
        <pt x="154" y="555" on="1"/>
        <pt x="24" y="479" on="1"/>
        <pt x="24" y="647" on="1"/>
        <pt x="154" y="723" on="1"/>
        <pt x="154" y="1392" on="1"/>
        <pt x="354" y="1392" on="1"/>
        <pt x="354" y="841" on="1"/>
        <pt x="680" y="1032" on="1"/>
        <pt x="680" y="863" on="1"/>
        <pt x="354" y="672" on="1"/>
        <pt x="354" y="176" on="1"/>
        <pt x="950" y="176" on="1"/>
        <pt x="950" y="0" on="1"/>
        <pt x="154" y="0" on="1"/>
      </contour>
    </TTGlyph>
    <TTGlyph name="M" xMin="145" yMin="0" xMax="1391" yMax="1392">
      <contour>
        <pt x="145" y="1392" on="1"/>
        <pt x="273" y="1392" on="1"/>
        <pt x="769" y="822" on="1"/>
        <pt x="1263" y="1392" on="1"/>
        <pt x="1391" y="1392" on="1"/>
        <pt x="1391" y="0" on="1"/>
        <pt x="1191" y="0" on="1"/>
        <pt x="1191" y="1060" on="1"/>
        <pt x="1132" y="980" on="1"/>
        <pt x="769" y="557" on="1"/>
        <pt x="406" y="979" on="1"/>
        <pt x="345" y="1059" on="1"/>
        <pt x="345" y="0" on="1"/>
        <pt x="145" y="0" on="1"/>
      </contour>
    </TTGlyph>
    <TTGlyph name="N" xMin="153" yMin="0" xMax="1211" yMax="1392">
      <contour>
        <pt x="153" y="1392" on="1"/>
        <pt x="297" y="1392" on="1"/>
        <pt x="1024" y="365" on="1"/>
        <pt x="1013" y="509" on="1"/>
        <pt x="1013" y="1392" on="1"/>
        <pt x="1211" y="1392" on="1"/>
        <pt x="1211" y="0" on="1"/>
        <pt x="1068" y="0" on="1"/>
        <pt x="461" y="853" on="1"/>
        <pt x="340" y="1027" on="1"/>
        <pt x="351" y="853" on="1"/>
        <pt x="351" y="0" on="1"/>
        <pt x="153" y="0" on="1"/>
      </contour>
    </TTGlyph>
    <TTGlyph name="Nacute" xMin="153" yMin="0" xMax="1211" yMax="1897">
      <component glyphName="N" x="0" y="0" flags="0x1204"/>
      <component glyphName="acute.cap" x="443" y="0" flags="0x1004"/>
    </TTGlyph>
    <TTGlyph name="Ncaron" xMin="153" yMin="0" xMax="1211" yMax="1975">
      <component glyphName="N" x="0" y="0" flags="0x1204"/>
      <component glyphName="caron.cap" x="357" y="0" flags="0x1004"/>
    </TTGlyph>
    <TTGlyph name="Ncommaaccent" xMin="153" yMin="-510" xMax="1211" yMax="1392">
      <component glyphName="N" x="0" y="0" flags="0x1204"/>
      <component glyphName="commaaccent" x="443" y="0" flags="0x1004"/>
    </TTGlyph>
    <TTGlyph name="Ntilde" xMin="153" yMin="0" xMax="1211" yMax="1863">
      <component glyphName="N" x="0" y="0" flags="0x1204"/>
      <component glyphName="tilde.cap" x="358" y="0" flags="0x1004"/>
    </TTGlyph>
    <TTGlyph name="O" xMin="109" yMin="-16" xMax="1427" yMax="1408">
      <contour>
        <pt x="109" y="694" on="1"/>
        <pt x="109" y="857" on="0"/>
        <pt x="207" y="1121" on="0"/>
        <pt x="294" y="1214" on="1"/>
        <pt x="477" y="1408" on="0"/>
        <pt x="769" y="1408" on="1"/>
        <pt x="1062" y="1408" on="0"/>
        <pt x="1243" y="1214" on="1"/>
        <pt x="1427" y="1017" on="0"/>
        <pt x="1427" y="694" on="1"/>
        <pt x="1427" y="371" on="0"/>
        <pt x="1243" y="176" on="1"/>
        <pt x="1063" y="-16" on="0"/>
        <pt x="769" y="-16" on="1"/>
        <pt x="476" y="-16" on="0"/>
        <pt x="294" y="176" on="1"/>
        <pt x="109" y="372" on="0"/>
      </contour>
      <contour>
        <pt x="309" y="695" on="1"/>
        <pt x="309" y="467" on="0"/>
        <pt x="420" y="318" on="1"/>
        <pt x="545" y="152" on="0"/>
        <pt x="769" y="152" on="1"/>
        <pt x="993" y="152" on="0"/>
        <pt x="1117" y="318" on="1"/>
        <pt x="1227" y="465" on="0"/>
        <pt x="1227" y="693" on="1"/>
        <pt x="1227" y="923" on="0"/>
        <pt x="1117" y="1072" on="1"/>
        <pt x="993" y="1240" on="0"/>
        <pt x="769" y="1240" on="1"/>
        <pt x="544" y="1240" on="0"/>
        <pt x="420" y="1072" on="1"/>
        <pt x="309" y="923" on="0"/>
      </contour>
    </TTGlyph>
    <TTGlyph name="OE" xMin="109" yMin="0" xMax="1617" yMax="1392">
      <contour>
        <pt x="109" y="694" on="1"/>
        <pt x="109" y="857" on="0"/>
        <pt x="221" y="1116" on="0"/>
        <pt x="320" y="1206" on="1"/>
        <pt x="525" y="1392" on="0"/>
        <pt x="851" y="1392" on="1"/>
        <pt x="1617" y="1392" on="1"/>
        <pt x="1617" y="1218" on="1"/>
        <pt x="1051" y="1218" on="1"/>
        <pt x="1051" y="808" on="1"/>
        <pt x="1447" y="808" on="1"/>
        <pt x="1447" y="640" on="1"/>
        <pt x="1051" y="640" on="1"/>
        <pt x="1051" y="176" on="1"/>
        <pt x="1617" y="176" on="1"/>
        <pt x="1617" y="0" on="1"/>
        <pt x="851" y="0" on="1"/>
        <pt x="523" y="0" on="0"/>
        <pt x="320" y="184" on="1"/>
        <pt x="109" y="374" on="0"/>
      </contour>
      <contour>
        <pt x="309" y="695" on="1"/>
        <pt x="309" y="468" on="0"/>
        <pt x="440" y="326" on="1"/>
        <pt x="586" y="168" on="0"/>
        <pt x="851" y="168" on="1"/>
        <pt x="851" y="1223" on="1"/>
        <pt x="572" y="1223" on="0"/>
        <pt x="430" y="1064" on="1"/>
        <pt x="309" y="927" on="0"/>
      </contour>
    </TTGlyph>
    <TTGlyph name="Oacute" xMin="109" yMin="-16" xMax="1427" yMax="1897">
      <component glyphName="O" x="0" y="0" flags="0x1204"/>
      <component glyphName="acute.cap" x="513" y="0" flags="0x1004"/>
    </TTGlyph>
    <TTGlyph name="Obreve" xMin="109" yMin="-16" xMax="1427" yMax="1857">
      <component glyphName="O" x="0" y="0" flags="0x1204"/>
      <component glyphName="breve.cap" x="428" y="0" flags="0x1004"/>
    </TTGlyph>
    <TTGlyph name="Ocircumflex" xMin="109" yMin="-16" xMax="1427" yMax="1975">
      <component glyphName="O" x="0" y="0" flags="0x1204"/>
      <component glyphName="circumflex.cap" x="427" y="0" flags="0x1004"/>
    </TTGlyph>
    <TTGlyph name="Odieresis" xMin="109" yMin="-16" xMax="1427" yMax="1782">
      <component glyphName="O" x="0" y="0" flags="0x1204"/>
      <component glyphName="dieresis.cap" x="334" y="0" flags="0x1004"/>
    </TTGlyph>
    <TTGlyph name="Ograve" xMin="109" yMin="-16" xMax="1427" yMax="1897">
      <component glyphName="O" x="0" y="0" flags="0x1204"/>
      <component glyphName="grave.cap" x="341" y="0" flags="0x1004"/>
    </TTGlyph>
    <TTGlyph name="Ohungarumlaut" xMin="109" yMin="-16" xMax="1427" yMax="1897">
      <component glyphName="O" x="0" y="0" flags="0x1204"/>
      <component glyphName="hungarumlaut.cap" x="427" y="0" flags="0x1004"/>
    </TTGlyph>
    <TTGlyph name="Omacron" xMin="109" yMin="-16" xMax="1427" yMax="1682">
      <component glyphName="O" x="0" y="0" flags="0x1204"/>
      <component glyphName="macron.cap" x="427" y="0" flags="0x1004"/>
    </TTGlyph>
    <TTGlyph name="Omega" xMin="173" yMin="0" xMax="1533" yMax="1393">
      <contour>
        <pt x="173" y="170" on="1"/>
        <pt x="459" y="170" on="1"/>
        <pt x="282" y="333" on="0"/>
        <pt x="226" y="560" on="1"/>
        <pt x="207" y="639" on="0"/>
        <pt x="207" y="726" on="1"/>
        <pt x="207" y="1036" on="0"/>
        <pt x="404" y="1220" on="1"/>
        <pt x="588" y="1393" on="0"/>
        <pt x="853" y="1393" on="1"/>
        <pt x="1118" y="1393" on="0"/>
        <pt x="1302" y="1220" on="1"/>
        <pt x="1499" y="1036" on="0"/>
        <pt x="1499" y="726" on="1"/>
        <pt x="1499" y="404" on="0"/>
        <pt x="1246" y="170" on="1"/>
        <pt x="1533" y="170" on="1"/>
        <pt x="1533" y="0" on="1"/>
        <pt x="968" y="0" on="1"/>
        <pt x="968" y="92" on="1"/>
        <pt x="1234" y="315" on="0"/>
        <pt x="1290" y="562" on="1"/>
        <pt x="1309" y="643" on="0"/>
        <pt x="1309" y="830" on="0"/>
        <pt x="1248" y="1011" on="0"/>
        <pt x="1190" y="1078" on="1"/>
        <pt x="1063" y="1225" on="0"/>
        <pt x="853" y="1225" on="1"/>
        <pt x="643" y="1225" on="0"/>
        <pt x="516" y="1078" on="1"/>
        <pt x="397" y="941" on="0"/>
        <pt x="397" y="727" on="1"/>
        <pt x="397" y="464" on="0"/>
        <pt x="580" y="247" on="1"/>
        <pt x="645" y="170" on="0"/>
        <pt x="738" y="92" on="1"/>
        <pt x="738" y="0" on="1"/>
        <pt x="173" y="0" on="1"/>
      </contour>
    </TTGlyph>
    <TTGlyph name="Oslash" xMin="94" yMin="-112" xMax="1427" yMax="1504">
      <contour>
        <pt x="769" y="-16" on="1"/>
        <pt x="549" y="-16" on="0"/>
        <pt x="385" y="97" on="1"/>
        <pt x="224" y="-112" on="1"/>
        <pt x="94" y="-12" on="1"/>
        <pt x="264" y="209" on="1"/>
        <pt x="109" y="397" on="0"/>
        <pt x="109" y="694" on="1"/>
        <pt x="109" y="1017" on="0"/>
        <pt x="294" y="1214" on="1"/>
        <pt x="477" y="1408" on="0"/>
        <pt x="769" y="1408" on="1"/>
        <pt x="965" y="1408" on="0"/>
        <pt x="1116" y="1316" on="1"/>
        <pt x="1259" y="1504" on="1"/>
        <pt x="1389" y="1404" on="1"/>
        <pt x="1244" y="1213" on="1"/>
        <pt x="1427" y="1015" on="0"/>
        <pt x="1427" y="694" on="1"/>
        <pt x="1427" y="371" on="0"/>
        <pt x="1243" y="176" on="1"/>
        <pt x="1063" y="-16" on="0"/>
      </contour>
      <contour>
        <pt x="309" y="695" on="1"/>
        <pt x="309" y="467" on="0"/>
        <pt x="420" y="318" on="1"/>
        <pt x="545" y="152" on="0"/>
        <pt x="769" y="152" on="1"/>
        <pt x="993" y="152" on="0"/>
        <pt x="1117" y="318" on="1"/>
        <pt x="1227" y="465" on="0"/>
        <pt x="1227" y="693" on="1"/>
        <pt x="1227" y="923" on="0"/>
        <pt x="1117" y="1072" on="1"/>
        <pt x="993" y="1240" on="0"/>
        <pt x="769" y="1240" on="1"/>
        <pt x="544" y="1240" on="0"/>
        <pt x="420" y="1072" on="1"/>
        <pt x="309" y="923" on="0"/>
      </contour>
    </TTGlyph>
    <TTGlyph name="Otilde" xMin="109" yMin="-16" xMax="1427" yMax="1863">
      <component glyphName="O" x="0" y="0" flags="0x1204"/>
      <component glyphName="tilde.cap" x="428" y="0" flags="0x1004"/>
    </TTGlyph>
    <TTGlyph name="P" xMin="170" yMin="0" xMax="1115" yMax="1392">
      <contour>
        <pt x="170" y="1392" on="1"/>
        <pt x="565" y="1392" on="1"/>
        <pt x="960" y="1392" on="0"/>
        <pt x="1074" y="1158" on="1"/>
        <pt x="1115" y="1072" on="0"/>
        <pt x="1115" y="836" on="0"/>
        <pt x="1031" y="668" on="0"/>
        <pt x="960" y="614" on="1"/>
        <pt x="822" y="510" on="0"/>
        <pt x="591" y="510" on="1"/>
        <pt x="370" y="510" on="1"/>
        <pt x="370" y="0" on="1"/>
        <pt x="170" y="0" on="1"/>
      </contour>
      <contour>
        <pt x="552" y="670" on="1"/>
        <pt x="733" y="670" on="0"/>
        <pt x="907" y="810" on="0"/>
        <pt x="907" y="958" on="1"/>
        <pt x="907" y="1155" on="0"/>
        <pt x="724" y="1212" on="1"/>
        <pt x="660" y="1232" on="0"/>
        <pt x="569" y="1232" on="1"/>
        <pt x="370" y="1232" on="1"/>
        <pt x="370" y="670" on="1"/>
      </contour>
    </TTGlyph>
    <TTGlyph name="Q" xMin="109" yMin="-386" xMax="1427" yMax="1408">
      <contour>
        <pt x="1328" y="-383" on="1"/>
        <pt x="1314" y="-386" on="0"/>
        <pt x="1174" y="-386" on="0"/>
        <pt x="996" y="-331" on="0"/>
        <pt x="924" y="-282" on="1"/>
        <pt x="792" y="-191" on="0"/>
        <pt x="701" y="-20" on="1"/>
        <pt x="706" y="-13" on="1"/>
        <pt x="438" y="7" on="0"/>
        <pt x="276" y="196" on="1"/>
        <pt x="109" y="391" on="0"/>
        <pt x="109" y="694" on="1"/>
        <pt x="109" y="1017" on="0"/>
        <pt x="294" y="1214" on="1"/>
        <pt x="477" y="1408" on="0"/>
        <pt x="769" y="1408" on="1"/>
        <pt x="1062" y="1408" on="0"/>
        <pt x="1243" y="1214" on="1"/>
        <pt x="1427" y="1017" on="0"/>
        <pt x="1427" y="694" on="1"/>
        <pt x="1427" y="410" on="0"/>
        <pt x="1280" y="220" on="1"/>
        <pt x="1138" y="36" on="0"/>
        <pt x="896" y="-5" on="1"/>
        <pt x="899" y="-8" on="1"/>
        <pt x="1036" y="-192" on="0"/>
        <pt x="1284" y="-192" on="1"/>
        <pt x="1284" y="-192" on="0"/>
        <pt x="1308" y="-192" on="1"/>
        <pt x="1318" y="-192" on="0"/>
        <pt x="1328" y="-190" on="1"/>
      </contour>
      <contour>
        <pt x="309" y="695" on="1"/>
        <pt x="309" y="467" on="0"/>
        <pt x="420" y="318" on="1"/>
        <pt x="545" y="152" on="0"/>
        <pt x="769" y="152" on="1"/>
        <pt x="993" y="152" on="0"/>
        <pt x="1117" y="318" on="1"/>
        <pt x="1227" y="465" on="0"/>
        <pt x="1227" y="693" on="1"/>
        <pt x="1227" y="923" on="0"/>
        <pt x="1117" y="1072" on="1"/>
        <pt x="993" y="1240" on="0"/>
        <pt x="769" y="1240" on="1"/>
        <pt x="544" y="1240" on="0"/>
        <pt x="420" y="1072" on="1"/>
        <pt x="309" y="923" on="0"/>
      </contour>
    </TTGlyph>
    <TTGlyph name="R" xMin="170" yMin="0" xMax="1162" yMax="1392">
      <contour>
        <pt x="170" y="1392" on="1"/>
        <pt x="565" y="1392" on="1"/>
        <pt x="960" y="1392" on="0"/>
        <pt x="1074" y="1158" on="1"/>
        <pt x="1115" y="1072" on="0"/>
        <pt x="1115" y="857" on="0"/>
        <pt x="1058" y="709" on="0"/>
        <pt x="1007" y="656" on="1"/>
        <pt x="909" y="554" on="0"/>
        <pt x="737" y="522" on="1"/>
        <pt x="808" y="303" on="0"/>
        <pt x="978" y="220" on="1"/>
        <pt x="1034" y="192" on="0"/>
        <pt x="1072" y="190" on="1"/>
        <pt x="1136" y="188" on="0"/>
        <pt x="1162" y="194" on="1"/>
        <pt x="1162" y="0" on="1"/>
        <pt x="1117" y="0" on="1"/>
        <pt x="892" y="0" on="0"/>
        <pt x="734" y="160" on="1"/>
        <pt x="595" y="299" on="0"/>
        <pt x="547" y="510" on="1"/>
        <pt x="370" y="510" on="1"/>
        <pt x="370" y="0" on="1"/>
        <pt x="170" y="0" on="1"/>
      </contour>
      <contour>
        <pt x="552" y="670" on="1"/>
        <pt x="733" y="670" on="0"/>
        <pt x="907" y="810" on="0"/>
        <pt x="907" y="958" on="1"/>
        <pt x="907" y="1155" on="0"/>
        <pt x="724" y="1212" on="1"/>
        <pt x="660" y="1232" on="0"/>
        <pt x="569" y="1232" on="1"/>
        <pt x="370" y="1232" on="1"/>
        <pt x="370" y="670" on="1"/>
      </contour>
    </TTGlyph>
    <TTGlyph name="Racute" xMin="170" yMin="0" xMax="1162" yMax="1897">
      <component glyphName="R" x="0" y="0" flags="0x1204"/>
      <component glyphName="acute.cap" x="337" y="0" flags="0x1004"/>
    </TTGlyph>
    <TTGlyph name="Rcaron" xMin="170" yMin="0" xMax="1162" yMax="1975">
      <component glyphName="R" x="0" y="0" flags="0x1204"/>
      <component glyphName="caron.cap" x="251" y="0" flags="0x1004"/>
    </TTGlyph>
    <TTGlyph name="Rcommaaccent" xMin="170" yMin="-510" xMax="1162" yMax="1392">
      <component glyphName="R" x="0" y="0" flags="0x1204"/>
      <component glyphName="commaaccent" x="337" y="0" flags="0x1004"/>
    </TTGlyph>
    <TTGlyph name="S" xMin="148" yMin="-10" xMax="1087" yMax="1402">
      <contour>
        <pt x="876" y="47" on="0"/>
        <pt x="654" y="-10" on="0"/>
        <pt x="333" y="-10" on="0"/>
        <pt x="170" y="9" on="1"/>
        <pt x="170" y="203" on="1"/>
        <pt x="316" y="170" on="0"/>
        <pt x="612" y="170" on="0"/>
        <pt x="760" y="203" on="0"/>
        <pt x="805" y="230" on="1"/>
        <pt x="888" y="280" on="0"/>
        <pt x="888" y="360" on="1"/>
        <pt x="888" y="422" on="0"/>
        <pt x="856" y="456" on="1"/>
        <pt x="805" y="509" on="0"/>
        <pt x="709" y="553" on="1"/>
        <pt x="453" y="670" on="1"/>
        <pt x="321" y="732" on="0"/>
        <pt x="266" y="785" on="1"/>
        <pt x="148" y="899" on="0"/>
        <pt x="148" y="1049" on="1"/>
        <pt x="148" y="1203" on="0"/>
        <pt x="282" y="1298" on="1"/>
        <pt x="429" y="1402" on="0"/>
        <pt x="700" y="1402" on="1"/>
        <pt x="875" y="1402" on="0"/>
        <pt x="1020" y="1388" on="1"/>
        <pt x="1020" y="1197" on="1"/>
        <pt x="897" y="1225" on="0"/>
        <pt x="594" y="1225" on="0"/>
        <pt x="457" y="1194" on="0"/>
        <pt x="418" y="1170" on="1"/>
        <pt x="347" y="1126" on="0"/>
        <pt x="347" y="1054" on="1"/>
        <pt x="347" y="984" on="0"/>
        <pt x="392" y="938" on="1"/>
        <pt x="432" y="899" on="0"/>
        <pt x="538" y="848" on="1"/>
        <pt x="801" y="723" on="1"/>
        <pt x="932" y="661" on="0"/>
        <pt x="1037" y="551" on="0"/>
        <pt x="1087" y="440" on="0"/>
        <pt x="1087" y="285" on="0"/>
        <pt x="1019" y="148" on="0"/>
      </contour>
    </TTGlyph>
    <TTGlyph name="Sacute" xMin="148" yMin="-10" xMax="1087" yMax="1897">
      <component glyphName="S" x="0" y="0" flags="0x1204"/>
      <component glyphName="acute.cap" x="392" y="0" flags="0x1004"/>
    </TTGlyph>
    <TTGlyph name="Scaron" xMin="148" yMin="-10" xMax="1087" yMax="1975">
      <component glyphName="S" x="0" y="0" flags="0x1204"/>
      <component glyphName="caron.cap" x="306" y="0" flags="0x1004"/>
    </TTGlyph>
    <TTGlyph name="Scedilla" xMin="148" yMin="-509" xMax="1087" yMax="1402">
      <component glyphName="S" x="0" y="0" flags="0x1204"/>
      <component glyphName="cedilla" x="-24" y="0" flags="0x1004"/>
    </TTGlyph>
    <TTGlyph name="Scircumflex" xMin="148" yMin="-10" xMax="1087" yMax="1975">
      <component glyphName="S" x="0" y="0" flags="0x1204"/>
      <component glyphName="circumflex.cap" x="306" y="0" flags="0x1004"/>
    </TTGlyph>
    <TTGlyph name="Scommaaccent" xMin="148" yMin="-510" xMax="1087" yMax="1402">
      <component glyphName="S" x="0" y="0" flags="0x1204"/>
      <component glyphName="commaaccent" x="340" y="0" flags="0x1004"/>
    </TTGlyph>
    <TTGlyph name="T" xMin="76" yMin="0" xMax="1114" yMax="1392">
      <contour>
        <pt x="495" y="1216" on="1"/>
        <pt x="76" y="1216" on="1"/>
        <pt x="76" y="1392" on="1"/>
        <pt x="1114" y="1392" on="1"/>
        <pt x="1114" y="1216" on="1"/>
        <pt x="695" y="1216" on="1"/>
        <pt x="695" y="0" on="1"/>
        <pt x="495" y="0" on="1"/>
      </contour>
    </TTGlyph>
    <TTGlyph name="Tbar" xMin="76" yMin="0" xMax="1114" yMax="1392">
      <contour>
        <pt x="495" y="680" on="1"/>
        <pt x="234" y="680" on="1"/>
        <pt x="234" y="824" on="1"/>
        <pt x="495" y="824" on="1"/>
        <pt x="495" y="1216" on="1"/>
        <pt x="76" y="1216" on="1"/>
        <pt x="76" y="1392" on="1"/>
        <pt x="1114" y="1392" on="1"/>
        <pt x="1114" y="1216" on="1"/>
        <pt x="695" y="1216" on="1"/>
        <pt x="695" y="824" on="1"/>
        <pt x="954" y="824" on="1"/>
        <pt x="954" y="680" on="1"/>
        <pt x="695" y="680" on="1"/>
        <pt x="695" y="0" on="1"/>
        <pt x="495" y="0" on="1"/>
      </contour>
    </TTGlyph>
    <TTGlyph name="Tcaron" xMin="76" yMin="0" xMax="1114" yMax="1975">
      <component glyphName="T" x="0" y="0" flags="0x1204"/>
      <component glyphName="caron.cap" x="254" y="0" flags="0x1004"/>
    </TTGlyph>
    <TTGlyph name="Tcommaaccent" xMin="76" yMin="-510" xMax="1114" yMax="1392">
      <component glyphName="T" x="0" y="0" flags="0x1204"/>
      <component glyphName="commaaccent" x="340" y="0" flags="0x1004"/>
    </TTGlyph>
    <TTGlyph name="Thorn" xMin="170" yMin="0" xMax="1113" yMax="1392">
      <contour>
        <pt x="170" y="1392" on="1"/>
        <pt x="370" y="1392" on="1"/>
        <pt x="370" y="1162" on="1"/>
        <pt x="563" y="1162" on="1"/>
        <pt x="958" y="1162" on="0"/>
        <pt x="1072" y="928" on="1"/>
        <pt x="1113" y="842" on="0"/>
        <pt x="1113" y="606" on="0"/>
        <pt x="1029" y="438" on="0"/>
        <pt x="958" y="384" on="1"/>
        <pt x="820" y="280" on="0"/>
        <pt x="589" y="280" on="1"/>
        <pt x="368" y="280" on="1"/>
        <pt x="370" y="0" on="1"/>
        <pt x="170" y="0" on="1"/>
      </contour>
      <contour>
        <pt x="550" y="440" on="1"/>
        <pt x="731" y="440" on="0"/>
        <pt x="905" y="580" on="0"/>
        <pt x="905" y="728" on="1"/>
        <pt x="905" y="925" on="0"/>
        <pt x="722" y="982" on="1"/>
        <pt x="658" y="1002" on="0"/>
        <pt x="567" y="1002" on="1"/>
        <pt x="368" y="1002" on="1"/>
        <pt x="368" y="440" on="1"/>
      </contour>
    </TTGlyph>
    <TTGlyph name="U" xMin="154" yMin="-16" xMax="1211" yMax="1392">
      <contour>
        <pt x="683" y="156" on="1"/>
        <pt x="1011" y="156" on="0"/>
        <pt x="1011" y="559" on="1"/>
        <pt x="1011" y="1392" on="1"/>
        <pt x="1211" y="1392" on="1"/>
        <pt x="1211" y="559" on="1"/>
        <pt x="1211" y="264" on="0"/>
        <pt x="1062" y="117" on="1"/>
        <pt x="927" y="-16" on="0"/>
        <pt x="683" y="-16" on="1"/>
        <pt x="306" y="-16" on="0"/>
        <pt x="194" y="295" on="1"/>
        <pt x="154" y="404" on="0"/>
        <pt x="154" y="559" on="1"/>
        <pt x="154" y="1392" on="1"/>
        <pt x="354" y="1392" on="1"/>
        <pt x="354" y="559" on="1"/>
        <pt x="354" y="156" on="0"/>
      </contour>
    </TTGlyph>
    <TTGlyph name="Uacute" xMin="154" yMin="-16" xMax="1211" yMax="1897">
      <component glyphName="U" x="0" y="0" flags="0x1204"/>
      <component glyphName="acute.cap" x="427" y="0" flags="0x1004"/>
    </TTGlyph>
    <TTGlyph name="Ubreve" xMin="154" yMin="-16" xMax="1211" yMax="1857">
      <component glyphName="U" x="0" y="0" flags="0x1204"/>
      <component glyphName="breve.cap" x="342" y="0" flags="0x1004"/>
    </TTGlyph>
    <TTGlyph name="Ucircumflex" xMin="154" yMin="-16" xMax="1211" yMax="1975">
      <component glyphName="U" x="0" y="0" flags="0x1204"/>
      <component glyphName="circumflex.cap" x="341" y="0" flags="0x1004"/>
    </TTGlyph>
    <TTGlyph name="Udieresis" xMin="154" yMin="-16" xMax="1211" yMax="1782">
      <component glyphName="U" x="0" y="0" flags="0x1204"/>
      <component glyphName="dieresis.cap" x="248" y="0" flags="0x1004"/>
    </TTGlyph>
    <TTGlyph name="Ugrave" xMin="154" yMin="-16" xMax="1211" yMax="1897">
      <component glyphName="U" x="0" y="0" flags="0x1204"/>
      <component glyphName="grave.cap" x="255" y="0" flags="0x1004"/>
    </TTGlyph>
    <TTGlyph name="Uhungarumlaut" xMin="154" yMin="-16" xMax="1250" yMax="1897">
      <component glyphName="U" x="0" y="0" flags="0x1204"/>
      <component glyphName="hungarumlaut.cap" x="341" y="0" flags="0x1004"/>
    </TTGlyph>
    <TTGlyph name="Umacron" xMin="154" yMin="-16" xMax="1211" yMax="1682">
      <component glyphName="U" x="0" y="0" flags="0x1204"/>
      <component glyphName="macron.cap" x="341" y="0" flags="0x1004"/>
    </TTGlyph>
    <TTGlyph name="Uogonek" xMin="154" yMin="-510" xMax="1211" yMax="1392">
      <contour>
        <pt x="739" y="-14" on="1"/>
        <pt x="711" y="-16" on="0"/>
        <pt x="683" y="-16" on="1"/>
        <pt x="306" y="-16" on="0"/>
        <pt x="194" y="295" on="1"/>
        <pt x="154" y="404" on="0"/>
        <pt x="154" y="559" on="1"/>
        <pt x="154" y="1392" on="1"/>
        <pt x="354" y="1392" on="1"/>
        <pt x="354" y="559" on="1"/>
        <pt x="354" y="156" on="0"/>
        <pt x="683" y="156" on="1"/>
        <pt x="1011" y="156" on="0"/>
        <pt x="1011" y="559" on="1"/>
        <pt x="1011" y="1392" on="1"/>
        <pt x="1211" y="1392" on="1"/>
        <pt x="1211" y="559" on="1"/>
        <pt x="1211" y="224" on="0"/>
        <pt x="1020" y="80" on="1"/>
        <pt x="902" y="-15" on="0"/>
        <pt x="860" y="-71" on="1"/>
        <pt x="783" y="-173" on="0"/>
        <pt x="783" y="-253" on="1"/>
        <pt x="783" y="-324" on="0"/>
        <pt x="854" y="-350" on="1"/>
        <pt x="879" y="-359" on="0"/>
        <pt x="975" y="-359" on="0"/>
        <pt x="1020" y="-340" on="1"/>
        <pt x="1020" y="-488" on="1"/>
        <pt x="965" y="-510" on="0"/>
        <pt x="811" y="-510" on="0"/>
        <pt x="705" y="-466" on="0"/>
        <pt x="673" y="-432" on="1"/>
        <pt x="614" y="-368" on="0"/>
        <pt x="614" y="-156" on="0"/>
      </contour>
    </TTGlyph>
    <TTGlyph name="Uring" xMin="154" yMin="-16" xMax="1211" yMax="2040">
      <component glyphName="U" x="0" y="0" flags="0x1204"/>
      <component glyphName="ring.cap" x="341" y="0" flags="0x1004"/>
    </TTGlyph>
    <TTGlyph name="Utilde" xMin="154" yMin="-16" xMax="1211" yMax="1863">
      <component glyphName="U" x="0" y="0" flags="0x1204"/>
      <component glyphName="tilde.cap" x="342" y="0" flags="0x1004"/>
    </TTGlyph>
    <TTGlyph name="V" xMin="-44" yMin="0" xMax="1244" yMax="1392">
      <contour>
        <pt x="-44" y="1392" on="1"/>
        <pt x="164" y="1392" on="1"/>
        <pt x="601" y="248" on="1"/>
        <pt x="1036" y="1392" on="1"/>
        <pt x="1244" y="1392" on="1"/>
        <pt x="696" y="0" on="1"/>
        <pt x="504" y="0" on="1"/>
      </contour>
    </TTGlyph>
    <TTGlyph name="W" xMin="2" yMin="0" xMax="1874" yMax="1392">
      <contour>
        <pt x="2" y="1392" on="1"/>
        <pt x="210" y="1392" on="1"/>
        <pt x="479" y="410" on="1"/>
        <pt x="518" y="237" on="1"/>
        <pt x="562" y="410" on="1"/>
        <pt x="844" y="1392" on="1"/>
        <pt x="1036" y="1392" on="1"/>
        <pt x="1315" y="410" on="1"/>
        <pt x="1360" y="230" on="1"/>
        <pt x="1403" y="410" on="1"/>
        <pt x="1674" y="1392" on="1"/>
        <pt x="1874" y="1392" on="1"/>
        <pt x="1452" y="0" on="1"/>
        <pt x="1260" y="0" on="1"/>
        <pt x="967" y="980" on="1"/>
        <pt x="934" y="1105" on="1"/>
        <pt x="902" y="980" on="1"/>
        <pt x="612" y="0" on="1"/>
        <pt x="420" y="0" on="1"/>
      </contour>
    </TTGlyph>
    <TTGlyph name="Wacute" xMin="2" yMin="0" xMax="1874" yMax="1897">
      <component glyphName="W" x="0" y="0" flags="0x1204"/>
      <component glyphName="acute.cap" x="683" y="0" flags="0x1004"/>
    </TTGlyph>
    <TTGlyph name="Wcircumflex" xMin="2" yMin="0" xMax="1874" yMax="1975">
      <component glyphName="W" x="0" y="0" flags="0x1204"/>
      <component glyphName="circumflex.cap" x="597" y="0" flags="0x1004"/>
    </TTGlyph>
    <TTGlyph name="Wdieresis" xMin="2" yMin="0" xMax="1874" yMax="1782">
      <component glyphName="W" x="0" y="0" flags="0x1204"/>
      <component glyphName="dieresis.cap" x="504" y="0" flags="0x1004"/>
    </TTGlyph>
    <TTGlyph name="Wgrave" xMin="2" yMin="0" xMax="1874" yMax="1897">
      <component glyphName="W" x="0" y="0" flags="0x1204"/>
      <component glyphName="grave.cap" x="511" y="0" flags="0x1004"/>
    </TTGlyph>
    <TTGlyph name="X" xMin="20" yMin="0" xMax="1182" yMax="1392">
      <contour>
        <pt x="485" y="705" on="1"/>
        <pt x="45" y="1392" on="1"/>
        <pt x="268" y="1392" on="1"/>
        <pt x="597" y="859" on="1"/>
        <pt x="933" y="1392" on="1"/>
        <pt x="1143" y="1392" on="1"/>
        <pt x="695" y="718" on="1"/>
        <pt x="1182" y="0" on="1"/>
        <pt x="960" y="0" on="1"/>
        <pt x="586" y="570" on="1"/>
        <pt x="239" y="0" on="1"/>
        <pt x="20" y="0" on="1"/>
      </contour>
    </TTGlyph>
    <TTGlyph name="Y" xMin="0" yMin="0" xMax="1200" yMax="1392">
      <contour>
        <pt x="497" y="606" on="1"/>
        <pt x="0" y="1392" on="1"/>
        <pt x="216" y="1392" on="1"/>
        <pt x="604" y="770" on="1"/>
        <pt x="984" y="1392" on="1"/>
        <pt x="1200" y="1392" on="1"/>
        <pt x="705" y="608" on="1"/>
        <pt x="705" y="0" on="1"/>
        <pt x="497" y="0" on="1"/>
      </contour>
    </TTGlyph>
    <TTGlyph name="Yacute" xMin="0" yMin="0" xMax="1200" yMax="1897">
      <component glyphName="Y" x="0" y="0" flags="0x1204"/>
      <component glyphName="acute.cap" x="345" y="0" flags="0x1004"/>
    </TTGlyph>
    <TTGlyph name="Ycircumflex" xMin="0" yMin="0" xMax="1200" yMax="1975">
      <component glyphName="Y" x="0" y="0" flags="0x1204"/>
      <component glyphName="circumflex.cap" x="259" y="0" flags="0x1004"/>
    </TTGlyph>
    <TTGlyph name="Ydieresis" xMin="0" yMin="0" xMax="1200" yMax="1782">
      <component glyphName="Y" x="0" y="0" flags="0x1204"/>
      <component glyphName="dieresis.cap" x="166" y="0" flags="0x1004"/>
    </TTGlyph>
    <TTGlyph name="Ygrave" xMin="0" yMin="0" xMax="1200" yMax="1897">
      <component glyphName="Y" x="0" y="0" flags="0x1204"/>
      <component glyphName="grave.cap" x="173" y="0" flags="0x1004"/>
    </TTGlyph>
    <TTGlyph name="Z" xMin="91" yMin="0" xMax="1085" yMax="1392">
      <contour>
        <pt x="91" y="90" on="1"/>
        <pt x="812" y="1223" on="1"/>
        <pt x="671" y="1218" on="1"/>
        <pt x="125" y="1218" on="1"/>
        <pt x="125" y="1392" on="1"/>
        <pt x="1085" y="1392" on="1"/>
        <pt x="1085" y="1302" on="1"/>
        <pt x="362" y="172" on="1"/>
        <pt x="515" y="176" on="1"/>
        <pt x="1085" y="176" on="1"/>
        <pt x="1085" y="0" on="1"/>
        <pt x="91" y="0" on="1"/>
      </contour>
    </TTGlyph>
    <TTGlyph name="Zacute" xMin="91" yMin="0" xMax="1085" yMax="1897">
      <component glyphName="Z" x="0" y="0" flags="0x1004"/>
      <component glyphName="acute.cap" x="443" y="0" flags="0x1004"/>
    </TTGlyph>
    <TTGlyph name="Zcaron" xMin="91" yMin="0" xMax="1085" yMax="1975">
      <component glyphName="Z" x="0" y="0" flags="0x1004"/>
      <component glyphName="caron.cap" x="357" y="0" flags="0x1004"/>
    </TTGlyph>
    <TTGlyph name="Zdotaccent" xMin="91" yMin="0" xMax="1085" yMax="1782">
      <component glyphName="Z" x="0" y="0" flags="0x1004"/>
      <component glyphName="dotaccent.cap" x="357" y="0" flags="0x1004"/>
    </TTGlyph>
    <TTGlyph name="a" xMin="129" yMin="-15" xMax="1029" yMax="1048">
      <contour>
        <pt x="168" y="241" on="0"/>
        <pt x="129" y="395" on="0"/>
        <pt x="129" y="643" on="0"/>
        <pt x="236" y="852" on="0"/>
        <pt x="322" y="919" on="1"/>
        <pt x="489" y="1048" on="0"/>
        <pt x="737" y="1048" on="1"/>
        <pt x="866" y="1048" on="0"/>
        <pt x="932" y="1042" on="1"/>
        <pt x="932" y="1042" on="0"/>
        <pt x="1029" y="1032" on="1"/>
        <pt x="1029" y="0" on="1"/>
        <pt x="849" y="0" on="1"/>
        <pt x="841" y="119" on="1"/>
        <pt x="781" y="39" on="0"/>
        <pt x="658" y="0" on="1"/>
        <pt x="611" y="-15" on="0"/>
        <pt x="512" y="-15" on="0"/>
        <pt x="416" y="5" on="0"/>
        <pt x="321" y="51" on="0"/>
        <pt x="235" y="128" on="0"/>
      </contour>
      <contour>
        <pt x="829" y="885" on="1"/>
        <pt x="765" y="893" on="0"/>
        <pt x="638" y="893" on="0"/>
        <pt x="494" y="848" on="0"/>
        <pt x="443" y="800" on="1"/>
        <pt x="337" y="700" on="0"/>
        <pt x="337" y="495" on="1"/>
        <pt x="337" y="301" on="0"/>
        <pt x="428" y="208" on="1"/>
        <pt x="497" y="139" on="0"/>
        <pt x="594" y="139" on="1"/>
        <pt x="719" y="139" on="0"/>
        <pt x="800" y="230" on="1"/>
        <pt x="820" y="253" on="0"/>
        <pt x="829" y="271" on="1"/>
      </contour>
    </TTGlyph>
    <TTGlyph name="aacute" xMin="129" yMin="-15" xMax="1058" yMax="1621">
      <component glyphName="a" x="0" y="0" flags="0x1204"/>
      <component glyphName="acute" x="83" y="0" flags="0x1004"/>
    </TTGlyph>
    <TTGlyph name="abreve" xMin="129" yMin="-15" xMax="1029" yMax="1527">
      <component glyphName="a" x="0" y="0" flags="0x1204"/>
      <component glyphName="breve" x="170" y="0" flags="0x1004"/>
    </TTGlyph>
    <TTGlyph name="acircumflex" xMin="129" yMin="-15" xMax="1029" yMax="1644">
      <component glyphName="a" x="0" y="0" flags="0x1204"/>
      <component glyphName="circumflex" x="170" y="0" flags="0x1004"/>
    </TTGlyph>
    <TTGlyph name="acute" xMin="509" yMin="1254" xMax="975" yMax="1621">
      <contour>
        <pt x="741" y="1621" on="1"/>
        <pt x="975" y="1621" on="1"/>
        <pt x="687" y="1254" on="1"/>
        <pt x="509" y="1254" on="1"/>
      </contour>
    </TTGlyph>
    <TTGlyph name="acute.cap" xMin="121" yMin="1530" xMax="587" yMax="1897">
      <contour>
        <pt x="353" y="1897" on="1"/>
        <pt x="587" y="1897" on="1"/>
        <pt x="299" y="1530" on="1"/>
        <pt x="121" y="1530" on="1"/>
      </contour>
    </TTGlyph>
    <TTGlyph name="adieresis" xMin="129" yMin="-15" xMax="1041" yMax="1438">
      <component glyphName="a" x="0" y="0" flags="0x1204"/>
      <component glyphName="dieresis" x="259" y="0" flags="0x1004"/>
    </TTGlyph>
    <TTGlyph name="ae" xMin="92" yMin="-15" xMax="1611" yMax="1048">
      <contour>
        <pt x="1269" y="-15" on="1"/>
        <pt x="976" y="-15" on="0"/>
        <pt x="852" y="185" on="1"/>
        <pt x="787" y="85" on="0"/>
        <pt x="593" y="-15" on="0"/>
        <pt x="446" y="-15" on="1"/>
        <pt x="321" y="-15" on="0"/>
        <pt x="218" y="58" on="1"/>
        <pt x="92" y="148" on="0"/>
        <pt x="92" y="323" on="1"/>
        <pt x="92" y="498" on="0"/>
        <pt x="267" y="584" on="1"/>
        <pt x="415" y="657" on="0"/>
        <pt x="652" y="657" on="1"/>
        <pt x="768" y="657" on="1"/>
        <pt x="768" y="701" on="1"/>
        <pt x="768" y="786" on="0"/>
        <pt x="643" y="889" on="0"/>
        <pt x="509" y="889" on="1"/>
        <pt x="343" y="889" on="0"/>
        <pt x="240" y="864" on="1"/>
        <pt x="213" y="857" on="0"/>
        <pt x="188" y="852" on="1"/>
        <pt x="188" y="1011" on="1"/>
        <pt x="336" y="1048" on="0"/>
        <pt x="532" y="1048" on="1"/>
        <pt x="804" y="1048" on="0"/>
        <pt x="892" y="908" on="1"/>
        <pt x="990" y="1009" on="0"/>
        <pt x="1136" y="1039" on="1"/>
        <pt x="1179" y="1048" on="0"/>
        <pt x="1317" y="1048" on="0"/>
        <pt x="1463" y="984" on="0"/>
        <pt x="1512" y="924" on="1"/>
        <pt x="1611" y="804" on="0"/>
        <pt x="1611" y="588" on="1"/>
        <pt x="1611" y="510" on="1"/>
        <pt x="956" y="510" on="1"/>
        <pt x="956" y="255" on="0"/>
        <pt x="1115" y="178" on="1"/>
        <pt x="1176" y="149" on="0"/>
        <pt x="1446" y="149" on="0"/>
        <pt x="1556" y="180" on="1"/>
        <pt x="1556" y="11" on="1"/>
        <pt x="1446" y="-15" on="0"/>
      </contour>
      <contour>
        <pt x="1411" y="657" on="1"/>
        <pt x="1411" y="824" on="0"/>
        <pt x="1298" y="877" on="1"/>
        <pt x="1260" y="895" on="0"/>
        <pt x="1207" y="895" on="1"/>
        <pt x="1103" y="895" on="0"/>
        <pt x="1028" y="822" on="1"/>
        <pt x="956" y="752" on="0"/>
        <pt x="956" y="657" on="1"/>
      </contour>
      <contour>
        <pt x="861" y="871" on="1"/>
        <pt x="862" y="873" on="1"/>
        <pt x="861" y="873" on="0"/>
      </contour>
      <contour>
        <pt x="345" y="450" on="0"/>
        <pt x="292" y="378" on="0"/>
        <pt x="292" y="271" on="0"/>
        <pt x="327" y="201" on="0"/>
        <pt x="355" y="180" on="1"/>
        <pt x="408" y="139" on="0"/>
        <pt x="532" y="139" on="0"/>
        <pt x="639" y="170" on="0"/>
        <pt x="684" y="204" on="1"/>
        <pt x="785" y="282" on="0"/>
        <pt x="785" y="426" on="1"/>
        <pt x="785" y="509" on="1"/>
        <pt x="652" y="509" on="1"/>
        <pt x="480" y="509" on="0"/>
      </contour>
    </TTGlyph>
    <TTGlyph name="aeacute" xMin="92" yMin="-15" xMax="1611" yMax="1621">
      <component glyphName="ae" x="0" y="0" flags="0x1204"/>
      <component glyphName="acute" x="272" y="0" flags="0x1004"/>
    </TTGlyph>
    <TTGlyph name="agrave" xMin="129" yMin="-15" xMax="1029" yMax="1621">
      <component glyphName="a" x="0" y="0" flags="0x1204"/>
      <component glyphName="grave" x="261" y="0" flags="0x1004"/>
    </TTGlyph>
    <TTGlyph name="amacron" xMin="129" yMin="-15" xMax="1029" yMax="1392">
      <component glyphName="a" x="0" y="0" flags="0x1204"/>
      <component glyphName="macron" x="340" y="0" flags="0x1004"/>
    </TTGlyph>
    <TTGlyph name="ampersand" xMin="149" yMin="-16" xMax="1292" yMax="1392">
      <contour>
        <pt x="394" y="1022" on="1"/>
        <pt x="394" y="827" on="0"/>
        <pt x="680" y="827" on="1"/>
        <pt x="1292" y="827" on="1"/>
        <pt x="1292" y="657" on="1"/>
        <pt x="1168" y="657" on="1"/>
        <pt x="1168" y="0" on="1"/>
        <pt x="995" y="0" on="1"/>
        <pt x="988" y="127" on="1"/>
        <pt x="881" y="30" on="0"/>
        <pt x="706" y="-5" on="1"/>
        <pt x="650" y="-16" on="0"/>
        <pt x="499" y="-16" on="0"/>
        <pt x="334" y="33" on="0"/>
        <pt x="274" y="84" on="1"/>
        <pt x="149" y="190" on="0"/>
        <pt x="149" y="390" on="1"/>
        <pt x="149" y="537" on="0"/>
        <pt x="282" y="652" on="1"/>
        <pt x="334" y="697" on="0"/>
        <pt x="414" y="730" on="1"/>
        <pt x="414" y="733" on="1"/>
        <pt x="309" y="775" on="0"/>
        <pt x="192" y="927" on="0"/>
        <pt x="192" y="1087" on="0"/>
        <pt x="243" y="1219" on="0"/>
        <pt x="306" y="1272" on="1"/>
        <pt x="450" y="1392" on="0"/>
        <pt x="746" y="1392" on="1"/>
        <pt x="916" y="1392" on="0"/>
        <pt x="1022" y="1381" on="1"/>
        <pt x="1022" y="1201" on="1"/>
        <pt x="900" y="1224" on="0"/>
        <pt x="657" y="1224" on="0"/>
        <pt x="524" y="1195" on="0"/>
        <pt x="480" y="1168" on="1"/>
        <pt x="394" y="1116" on="0"/>
      </contour>
      <contour>
        <pt x="632" y="144" on="1"/>
        <pt x="847" y="144" on="0"/>
        <pt x="976" y="271" on="1"/>
        <pt x="976" y="658" on="1"/>
        <pt x="679" y="657" on="1"/>
        <pt x="522" y="657" on="0"/>
        <pt x="432" y="572" on="1"/>
        <pt x="351" y="496" on="0"/>
        <pt x="351" y="387" on="1"/>
        <pt x="351" y="206" on="0"/>
        <pt x="515" y="159" on="1"/>
        <pt x="567" y="144" on="0"/>
      </contour>
    </TTGlyph>
    <TTGlyph name="aogonek" xMin="129" yMin="-510" xMax="1029" yMax="1048">
      <contour>
        <pt x="1018" y="-488" on="1"/>
        <pt x="963" y="-510" on="0"/>
        <pt x="809" y="-510" on="0"/>
        <pt x="703" y="-466" on="0"/>
        <pt x="671" y="-432" on="1"/>
        <pt x="612" y="-368" on="0"/>
        <pt x="612" y="-270" on="1"/>
        <pt x="612" y="-152" on="0"/>
        <pt x="732" y="-44" on="1"/>
        <pt x="777" y="-4" on="0"/>
        <pt x="846" y="35" on="1"/>
        <pt x="841" y="119" on="1"/>
        <pt x="781" y="39" on="0"/>
        <pt x="658" y="0" on="1"/>
        <pt x="611" y="-15" on="0"/>
        <pt x="512" y="-15" on="0"/>
        <pt x="416" y="5" on="0"/>
        <pt x="321" y="51" on="0"/>
        <pt x="235" y="128" on="0"/>
        <pt x="202" y="184" on="1"/>
        <pt x="129" y="307" on="0"/>
        <pt x="129" y="643" on="0"/>
        <pt x="236" y="852" on="0"/>
        <pt x="322" y="919" on="1"/>
        <pt x="489" y="1048" on="0"/>
        <pt x="737" y="1048" on="1"/>
        <pt x="866" y="1048" on="0"/>
        <pt x="932" y="1042" on="1"/>
        <pt x="1029" y="1032" on="1"/>
        <pt x="1029" y="0" on="1"/>
        <pt x="781" y="-110" on="0"/>
        <pt x="781" y="-242" on="1"/>
        <pt x="781" y="-292" on="0"/>
        <pt x="848" y="-359" on="0"/>
        <pt x="973" y="-359" on="0"/>
        <pt x="1018" y="-340" on="1"/>
      </contour>
      <contour>
        <pt x="829" y="885" on="1"/>
        <pt x="765" y="893" on="0"/>
        <pt x="638" y="893" on="0"/>
        <pt x="494" y="848" on="0"/>
        <pt x="443" y="800" on="1"/>
        <pt x="337" y="700" on="0"/>
        <pt x="337" y="495" on="1"/>
        <pt x="337" y="301" on="0"/>
        <pt x="428" y="208" on="1"/>
        <pt x="497" y="139" on="0"/>
        <pt x="594" y="139" on="1"/>
        <pt x="719" y="139" on="0"/>
        <pt x="800" y="230" on="1"/>
        <pt x="820" y="253" on="0"/>
        <pt x="829" y="271" on="1"/>
      </contour>
    </TTGlyph>
    <TTGlyph name="approxequal" xMin="116" yMin="282" xMax="1079" yMax="1020">
      <contour>
        <pt x="116" y="729" on="1"/>
        <pt x="116" y="859" on="0"/>
        <pt x="182" y="938" on="1"/>
        <pt x="250" y="1020" on="0"/>
        <pt x="362" y="1020" on="1"/>
        <pt x="429" y="1020" on="0"/>
        <pt x="534" y="976" on="0"/>
        <pt x="569" y="958" on="1"/>
        <pt x="701" y="888" on="1"/>
        <pt x="779" y="846" on="0"/>
        <pt x="872" y="846" on="0"/>
        <pt x="927" y="905" on="0"/>
        <pt x="927" y="963" on="1"/>
        <pt x="1079" y="963" on="1"/>
        <pt x="1079" y="789" on="0"/>
        <pt x="936" y="708" on="1"/>
        <pt x="890" y="683" on="0"/>
        <pt x="833" y="672" on="1"/>
        <pt x="765" y="672" on="0"/>
        <pt x="662" y="714" on="0"/>
        <pt x="628" y="732" on="1"/>
        <pt x="498" y="803" on="1"/>
        <pt x="422" y="846" on="0"/>
        <pt x="373" y="846" on="1"/>
        <pt x="268" y="846" on="0"/>
        <pt x="268" y="729" on="1"/>
      </contour>
      <contour>
        <pt x="116" y="339" on="1"/>
        <pt x="116" y="469" on="0"/>
        <pt x="182" y="548" on="1"/>
        <pt x="250" y="630" on="0"/>
        <pt x="362" y="630" on="1"/>
        <pt x="429" y="630" on="0"/>
        <pt x="534" y="586" on="0"/>
        <pt x="569" y="568" on="1"/>
        <pt x="701" y="498" on="1"/>
        <pt x="779" y="456" on="0"/>
        <pt x="872" y="456" on="0"/>
        <pt x="927" y="515" on="0"/>
        <pt x="927" y="573" on="1"/>
        <pt x="1079" y="573" on="1"/>
        <pt x="1079" y="399" on="0"/>
        <pt x="936" y="318" on="1"/>
        <pt x="890" y="293" on="0"/>
        <pt x="833" y="282" on="1"/>
        <pt x="765" y="282" on="0"/>
        <pt x="662" y="324" on="0"/>
        <pt x="628" y="342" on="1"/>
        <pt x="498" y="413" on="1"/>
        <pt x="422" y="456" on="0"/>
        <pt x="373" y="456" on="1"/>
        <pt x="268" y="456" on="0"/>
        <pt x="268" y="339" on="1"/>
      </contour>
    </TTGlyph>
    <TTGlyph name="aring" xMin="129" yMin="-15" xMax="1029" yMax="1758">
      <component glyphName="a" x="0" y="0" flags="0x1204"/>
      <component glyphName="ring" x="254" y="0" flags="0x1004"/>
    </TTGlyph>
    <TTGlyph name="asciicircum" xMin="34" yMin="340" xMax="1159" yMax="1392">
      <contour>
        <pt x="536" y="1392" on="1"/>
        <pt x="656" y="1392" on="1"/>
        <pt x="1159" y="340" on="1"/>
        <pt x="942" y="340" on="1"/>
        <pt x="624" y="1029" on="1"/>
        <pt x="596" y="1118" on="1"/>
        <pt x="568" y="1029" on="1"/>
        <pt x="239" y="340" on="1"/>
        <pt x="34" y="340" on="1"/>
      </contour>
    </TTGlyph>
    <TTGlyph name="asciitilde" xMin="20" yMin="478" xMax="1174" yMax="884">
      <contour>
        <pt x="20" y="551" on="1"/>
        <pt x="20" y="702" on="0"/>
        <pt x="107" y="796" on="1"/>
        <pt x="189" y="884" on="0"/>
        <pt x="316" y="884" on="1"/>
        <pt x="401" y="884" on="0"/>
        <pt x="515" y="828" on="0"/>
        <pt x="552" y="804" on="1"/>
        <pt x="634" y="751" on="1"/>
        <pt x="662" y="733" on="0"/>
        <pt x="719" y="690" on="0"/>
        <pt x="749" y="672" on="1"/>
        <pt x="819" y="630" on="0"/>
        <pt x="908" y="630" on="0"/>
        <pt x="958" y="658" on="0"/>
        <pt x="976" y="682" on="1"/>
        <pt x="1014" y="734" on="0"/>
        <pt x="1014" y="811" on="1"/>
        <pt x="1174" y="811" on="1"/>
        <pt x="1174" y="658" on="0"/>
        <pt x="1087" y="566" on="1"/>
        <pt x="1005" y="478" on="0"/>
        <pt x="878" y="478" on="1"/>
        <pt x="795" y="478" on="0"/>
        <pt x="671" y="537" on="0"/>
        <pt x="634" y="561" on="1"/>
        <pt x="486" y="659" on="1"/>
        <pt x="378" y="732" on="0"/>
        <pt x="316" y="732" on="1"/>
        <pt x="257" y="732" on="0"/>
        <pt x="218" y="680" on="1"/>
        <pt x="180" y="628" on="0"/>
        <pt x="180" y="551" on="1"/>
      </contour>
    </TTGlyph>
    <TTGlyph name="asterisk" xMin="140" yMin="661" xMax="1051" yMax="1530">
      <contour>
        <pt x="259" y="764" on="1"/>
        <pt x="506" y="1047" on="1"/>
        <pt x="140" y="1135" on="1"/>
        <pt x="193" y="1302" on="1"/>
        <pt x="541" y="1153" on="1"/>
        <pt x="507" y="1530" on="1"/>
        <pt x="684" y="1530" on="1"/>
        <pt x="651" y="1152" on="1"/>
        <pt x="997" y="1309" on="1"/>
        <pt x="1051" y="1141" on="1"/>
        <pt x="685" y="1052" on="1"/>
        <pt x="932" y="770" on="1"/>
        <pt x="789" y="667" on="1"/>
        <pt x="596" y="982" on="1"/>
        <pt x="401" y="661" on="1"/>
      </contour>
    </TTGlyph>
    <TTGlyph name="at" xMin="109" yMin="-500" xMax="1934" yMax="1332">
      <contour>
        <pt x="977" y="849" on="1"/>
        <pt x="1040" y="861" on="0"/>
        <pt x="1246" y="861" on="0"/>
        <pt x="1374" y="844" on="1"/>
        <pt x="1374" y="344" on="1"/>
        <pt x="1374" y="250" on="0"/>
        <pt x="1418" y="180" on="1"/>
        <pt x="1470" y="99" on="0"/>
        <pt x="1558" y="99" on="1"/>
        <pt x="1702" y="99" on="0"/>
        <pt x="1749" y="303" on="1"/>
        <pt x="1765" y="373" on="0"/>
        <pt x="1765" y="611" on="0"/>
        <pt x="1672" y="870" on="0"/>
        <pt x="1580" y="969" on="1"/>
        <pt x="1378" y="1186" on="0"/>
        <pt x="1033" y="1186" on="1"/>
        <pt x="828" y="1186" on="0"/>
        <pt x="652" y="1081" on="1"/>
        <pt x="388" y="924" on="0"/>
        <pt x="305" y="624" on="1"/>
        <pt x="278" y="526" on="0"/>
        <pt x="278" y="263" on="0"/>
        <pt x="390" y="-14" on="0"/>
        <pt x="494" y="-118" on="1"/>
        <pt x="719" y="-341" on="0"/>
        <pt x="1080" y="-341" on="1"/>
        <pt x="1223" y="-341" on="0"/>
        <pt x="1353" y="-305" on="1"/>
        <pt x="1389" y="-295" on="0"/>
        <pt x="1407" y="-286" on="1"/>
        <pt x="1396" y="-448" on="1"/>
        <pt x="1257" y="-500" on="0"/>
        <pt x="933" y="-500" on="0"/>
        <pt x="675" y="-433" on="0"/>
        <pt x="459" y="-312" on="0"/>
        <pt x="289" y="-142" on="0"/>
        <pt x="230" y="-40" on="1"/>
        <pt x="109" y="169" on="0"/>
        <pt x="109" y="421" on="1"/>
        <pt x="109" y="667" on="0"/>
        <pt x="236" y="880" on="1"/>
        <pt x="358" y="1085" on="0"/>
        <pt x="570" y="1208" on="1"/>
        <pt x="784" y="1332" on="0"/>
        <pt x="1033" y="1332" on="1"/>
        <pt x="1311" y="1332" on="0"/>
        <pt x="1522" y="1210" on="1"/>
        <pt x="1719" y="1097" on="0"/>
        <pt x="1828" y="896" on="1"/>
        <pt x="1934" y="703" on="0"/>
        <pt x="1934" y="469" on="1"/>
        <pt x="1934" y="267" on="0"/>
        <pt x="1838" y="118" on="1"/>
        <pt x="1732" y="-48" on="0"/>
        <pt x="1557" y="-48" on="1"/>
        <pt x="1485" y="-48" on="0"/>
        <pt x="1424" y="-14" on="1"/>
        <pt x="1308" y="49" on="0"/>
        <pt x="1275" y="137" on="1"/>
        <pt x="1212" y="32" on="0"/>
        <pt x="1088" y="-16" on="1"/>
        <pt x="1036" y="-35" on="0"/>
        <pt x="900" y="-35" on="0"/>
        <pt x="760" y="11" on="0"/>
        <pt x="704" y="61" on="1"/>
        <pt x="579" y="174" on="0"/>
        <pt x="579" y="383" on="1"/>
        <pt x="579" y="621" on="0"/>
        <pt x="748" y="750" on="1"/>
        <pt x="845" y="824" on="0"/>
      </contour>
      <contour>
        <pt x="1190" y="695" on="1"/>
        <pt x="1154" y="704" on="0"/>
        <pt x="1016" y="704" on="0"/>
        <pt x="900" y="667" on="0"/>
        <pt x="858" y="628" on="1"/>
        <pt x="771" y="546" on="0"/>
        <pt x="771" y="384" on="1"/>
        <pt x="771" y="241" on="0"/>
        <pt x="848" y="168" on="1"/>
        <pt x="907" y="114" on="0"/>
        <pt x="1029" y="114" on="0"/>
        <pt x="1097" y="145" on="0"/>
        <pt x="1122" y="168" on="1"/>
        <pt x="1164" y="206" on="0"/>
        <pt x="1190" y="257" on="1"/>
      </contour>
    </TTGlyph>
    <TTGlyph name="atilde" xMin="129" yMin="-15" xMax="1096" yMax="1524">
      <component glyphName="a" x="0" y="0" flags="0x1204"/>
      <component glyphName="tilde" x="170" y="0" flags="0x1004"/>
    </TTGlyph>
    <TTGlyph name="b" xMin="168" yMin="-15" xMax="1071" yMax="1488">
      <contour>
        <pt x="791" y="48" on="0"/>
        <pt x="574" y="-15" on="0"/>
        <pt x="323" y="-15" on="0"/>
        <pt x="168" y="0" on="1"/>
        <pt x="168" y="1488" on="1"/>
        <pt x="368" y="1488" on="1"/>
        <pt x="368" y="929" on="1"/>
        <pt x="434" y="1004" on="0"/>
        <pt x="551" y="1036" on="1"/>
        <pt x="595" y="1048" on="0"/>
        <pt x="688" y="1048" on="0"/>
        <pt x="784" y="1029" on="0"/>
        <pt x="879" y="983" on="0"/>
        <pt x="965" y="907" on="0"/>
        <pt x="998" y="850" on="1"/>
        <pt x="1071" y="728" on="0"/>
        <pt x="1071" y="393" on="0"/>
        <pt x="964" y="183" on="0"/>
      </contour>
      <contour>
        <pt x="369" y="147" on="1"/>
        <pt x="397" y="139" on="0"/>
        <pt x="561" y="139" on="0"/>
        <pt x="705" y="185" on="0"/>
        <pt x="756" y="234" on="1"/>
        <pt x="863" y="337" on="0"/>
        <pt x="863" y="541" on="1"/>
        <pt x="863" y="790" on="0"/>
        <pt x="718" y="867" on="1"/>
        <pt x="666" y="894" on="0"/>
        <pt x="558" y="894" on="0"/>
        <pt x="478" y="866" on="0"/>
        <pt x="448" y="846" on="1"/>
        <pt x="391" y="807" on="0"/>
        <pt x="369" y="762" on="1"/>
      </contour>
    </TTGlyph>
    <TTGlyph name="backslash" xMin="2" yMin="-170" xMax="828" yMax="1360">
      <component glyphName="slash" x="840" y="0" scalex="-0.999938964844" scaley="1.0" flags="0x1004"/>
    </TTGlyph>
    <TTGlyph name="bar" xMin="165" yMin="-170" xMax="345" yMax="1360">
      <contour>
        <pt x="165" y="1360" on="1"/>
        <pt x="345" y="1360" on="1"/>
        <pt x="345" y="-170" on="1"/>
        <pt x="165" y="-170" on="1"/>
      </contour>
    </TTGlyph>
    <TTGlyph name="braceleft" xMin="172" yMin="-179" xMax="966" yMax="1570">
      <contour>
        <pt x="966" y="-171" on="1"/>
        <pt x="931" y="-179" on="0"/>
        <pt x="773" y="-179" on="0"/>
        <pt x="655" y="-150" on="0"/>
        <pt x="578" y="-98" on="0"/>
        <pt x="535" y="-28" on="0"/>
        <pt x="524" y="12" on="1"/>
        <pt x="510" y="67" on="0"/>
        <pt x="510" y="183" on="1"/>
        <pt x="510" y="244" on="1"/>
        <pt x="510" y="472" on="0"/>
        <pt x="446" y="553" on="1"/>
        <pt x="389" y="625" on="0"/>
        <pt x="243" y="625" on="1"/>
        <pt x="172" y="625" on="1"/>
        <pt x="172" y="770" on="1"/>
        <pt x="243" y="770" on="1"/>
        <pt x="390" y="770" on="0"/>
        <pt x="446" y="840" on="1"/>
        <pt x="510" y="920" on="0"/>
        <pt x="510" y="1147" on="1"/>
        <pt x="510" y="1208" on="1"/>
        <pt x="510" y="1324" on="0"/>
        <pt x="535" y="1419" on="0"/>
        <pt x="578" y="1489" on="0"/>
        <pt x="616" y="1515" on="1"/>
        <pt x="698" y="1570" on="0"/>
        <pt x="859" y="1570" on="1"/>
        <pt x="931" y="1570" on="0"/>
        <pt x="966" y="1562" on="1"/>
        <pt x="966" y="1420" on="1"/>
        <pt x="930" y="1432" on="0"/>
        <pt x="792" y="1432" on="0"/>
        <pt x="724" y="1406" on="0"/>
        <pt x="707" y="1381" on="1"/>
        <pt x="680" y="1341" on="0"/>
        <pt x="680" y="1243" on="1"/>
        <pt x="680" y="1139" on="1"/>
        <pt x="680" y="946" on="0"/>
        <pt x="632" y="850" on="1"/>
        <pt x="587" y="760" on="0"/>
        <pt x="469" y="709" on="1"/>
        <pt x="469" y="690" on="1"/>
        <pt x="586" y="640" on="0"/>
        <pt x="632" y="545" on="1"/>
        <pt x="680" y="447" on="0"/>
        <pt x="680" y="252" on="1"/>
        <pt x="680" y="148" on="1"/>
        <pt x="680" y="50" on="0"/>
        <pt x="702" y="17" on="1"/>
        <pt x="742" y="-41" on="0"/>
        <pt x="930" y="-41" on="0"/>
        <pt x="966" y="-29" on="1"/>
      </contour>
    </TTGlyph>
    <TTGlyph name="braceright" xMin="95" yMin="-179" xMax="889" yMax="1570">
      <component glyphName="braceleft" x="1061" y="0" scalex="-0.999938964844" scaley="1.0" flags="0x1004"/>
    </TTGlyph>
    <TTGlyph name="bracketleft" xMin="161" yMin="-172" xMax="604" yMax="1562">
      <component glyphName="bracketright" x="683" y="0" scalex="-0.999938964844" scaley="1.0" flags="0x1004"/>
    </TTGlyph>
    <TTGlyph name="bracketright" xMin="79" yMin="-172" xMax="522" yMax="1562">
      <contour>
        <pt x="341" y="-34" on="1"/>
        <pt x="341" y="1424" on="1"/>
        <pt x="81" y="1424" on="1"/>
        <pt x="81" y="1562" on="1"/>
        <pt x="522" y="1562" on="1"/>
        <pt x="522" y="-172" on="1"/>
        <pt x="79" y="-172" on="1"/>
        <pt x="79" y="-34" on="1"/>
      </contour>
    </TTGlyph>
    <TTGlyph name="breve" xMin="175" yMin="1200" xMax="845" yMax="1527">
      <contour>
        <pt x="510" y="1200" on="1"/>
        <pt x="371" y="1200" on="0"/>
        <pt x="274" y="1296" on="1"/>
        <pt x="175" y="1392" on="0"/>
        <pt x="175" y="1527" on="1"/>
        <pt x="335" y="1527" on="1"/>
        <pt x="335" y="1446" on="0"/>
        <pt x="437" y="1344" on="0"/>
        <pt x="510" y="1344" on="1"/>
        <pt x="583" y="1344" on="0"/>
        <pt x="685" y="1446" on="0"/>
        <pt x="685" y="1527" on="1"/>
        <pt x="845" y="1527" on="1"/>
        <pt x="845" y="1392" on="0"/>
        <pt x="746" y="1296" on="1"/>
        <pt x="649" y="1200" on="0"/>
      </contour>
    </TTGlyph>
    <TTGlyph name="breve.cap" xMin="5" yMin="1530" xMax="675" yMax="1857">
      <contour>
        <pt x="340" y="1530" on="1"/>
        <pt x="201" y="1530" on="0"/>
        <pt x="104" y="1626" on="1"/>
        <pt x="5" y="1722" on="0"/>
        <pt x="5" y="1857" on="1"/>
        <pt x="165" y="1857" on="1"/>
        <pt x="165" y="1776" on="0"/>
        <pt x="267" y="1674" on="0"/>
        <pt x="340" y="1674" on="1"/>
        <pt x="413" y="1674" on="0"/>
        <pt x="515" y="1776" on="0"/>
        <pt x="515" y="1857" on="1"/>
        <pt x="675" y="1857" on="1"/>
        <pt x="675" y="1722" on="0"/>
        <pt x="576" y="1626" on="1"/>
        <pt x="479" y="1530" on="0"/>
      </contour>
    </TTGlyph>
    <TTGlyph name="brokenbar" xMin="165" yMin="-170" xMax="345" yMax="1360">
      <contour>
        <pt x="165" y="1360" on="1"/>
        <pt x="345" y="1360" on="1"/>
        <pt x="345" y="690" on="1"/>
        <pt x="165" y="690" on="1"/>
      </contour>
      <contour>
        <pt x="165" y="499" on="1"/>
        <pt x="345" y="499" on="1"/>
        <pt x="345" y="-170" on="1"/>
        <pt x="165" y="-170" on="1"/>
      </contour>
    </TTGlyph>
    <TTGlyph name="bullet" xMin="120" yMin="342" xMax="732" yMax="954">
      <contour>
        <pt x="425" y="342" on="1"/>
        <pt x="300" y="342" on="0"/>
        <pt x="210" y="432" on="1"/>
        <pt x="120" y="522" on="0"/>
        <pt x="120" y="647" on="1"/>
        <pt x="120" y="773" on="0"/>
        <pt x="210" y="864" on="1"/>
        <pt x="298" y="954" on="0"/>
        <pt x="425" y="954" on="1"/>
        <pt x="553" y="954" on="0"/>
        <pt x="642" y="864" on="1"/>
        <pt x="732" y="772" on="0"/>
        <pt x="732" y="647" on="1"/>
        <pt x="732" y="523" on="0"/>
        <pt x="551" y="342" on="0"/>
      </contour>
    </TTGlyph>
    <TTGlyph name="c" xMin="109" yMin="-16" xMax="896" yMax="1048">
      <contour>
        <pt x="896" y="3" on="1"/>
        <pt x="836" y="-16" on="0"/>
        <pt x="540" y="-16" on="0"/>
        <pt x="333" y="56" on="0"/>
        <pt x="260" y="126" on="1"/>
        <pt x="109" y="271" on="0"/>
        <pt x="109" y="528" on="1"/>
        <pt x="109" y="777" on="0"/>
        <pt x="290" y="920" on="1"/>
        <pt x="452" y="1048" on="0"/>
        <pt x="688" y="1048" on="1"/>
        <pt x="834" y="1048" on="0"/>
        <pt x="888" y="1038" on="1"/>
        <pt x="888" y="860" on="1"/>
        <pt x="804" y="887" on="0"/>
        <pt x="589" y="887" on="0"/>
        <pt x="447" y="828" on="0"/>
        <pt x="402" y="778" on="1"/>
        <pt x="317" y="683" on="0"/>
        <pt x="317" y="528" on="1"/>
        <pt x="317" y="266" on="0"/>
        <pt x="506" y="179" on="1"/>
        <pt x="573" y="148" on="0"/>
        <pt x="701" y="148" on="0"/>
        <pt x="770" y="154" on="0"/>
        <pt x="801" y="159" on="1"/>
        <pt x="867" y="170" on="0"/>
        <pt x="896" y="182" on="1"/>
      </contour>
    </TTGlyph>
    <TTGlyph name="cacute" xMin="109" yMin="-16" xMax="991" yMax="1621">
      <component glyphName="c" x="0" y="0" flags="0x1204"/>
      <component glyphName="acute" x="16" y="0" flags="0x1004"/>
    </TTGlyph>
    <TTGlyph name="caron" xMin="186" yMin="1222" xMax="834" yMax="1644">
      <contour>
        <pt x="186" y="1452" on="1"/>
        <pt x="186" y="1644" on="1"/>
        <pt x="510" y="1430" on="1"/>
        <pt x="834" y="1644" on="1"/>
        <pt x="834" y="1452" on="1"/>
        <pt x="510" y="1222" on="1"/>
      </contour>
    </TTGlyph>
    <TTGlyph name="caron.cap" xMin="16" yMin="1553" xMax="664" yMax="1975">
      <contour>
        <pt x="16" y="1783" on="1"/>
        <pt x="16" y="1975" on="1"/>
        <pt x="340" y="1761" on="1"/>
        <pt x="664" y="1975" on="1"/>
        <pt x="664" y="1783" on="1"/>
        <pt x="340" y="1553" on="1"/>
      </contour>
    </TTGlyph>
    <TTGlyph name="caronvertical" xMin="59" yMin="886" xMax="343" yMax="1435">
      <contour>
        <pt x="59" y="1043" on="1"/>
        <pt x="153" y="1043" on="0"/>
        <pt x="166" y="1168" on="1"/>
        <pt x="171" y="1210" on="0"/>
        <pt x="171" y="1266" on="1"/>
        <pt x="171" y="1435" on="1"/>
        <pt x="343" y="1435" on="1"/>
        <pt x="343" y="1268" on="1"/>
        <pt x="343" y="1068" on="0"/>
        <pt x="288" y="984" on="1"/>
        <pt x="225" y="886" on="0"/>
        <pt x="59" y="886" on="1"/>
      </contour>
    </TTGlyph>
    <TTGlyph name="ccaron" xMin="109" yMin="-16" xMax="937" yMax="1644">
      <component glyphName="c" x="0" y="0" flags="0x1204"/>
      <component glyphName="caron" x="103" y="0" flags="0x1004"/>
    </TTGlyph>
    <TTGlyph name="ccedilla" xMin="109" yMin="-509" xMax="896" yMax="1048">
      <contour>
        <pt x="717" y="-275" on="1"/>
        <pt x="717" y="-219" on="0"/>
        <pt x="605" y="-219" on="1"/>
        <pt x="485" y="-219" on="1"/>
        <pt x="485" y="5" on="1"/>
        <pt x="309" y="49" on="0"/>
        <pt x="210" y="184" on="1"/>
        <pt x="109" y="321" on="0"/>
        <pt x="109" y="528" on="1"/>
        <pt x="109" y="777" on="0"/>
        <pt x="290" y="920" on="1"/>
        <pt x="452" y="1048" on="0"/>
        <pt x="688" y="1048" on="1"/>
        <pt x="834" y="1048" on="0"/>
        <pt x="888" y="1038" on="1"/>
        <pt x="888" y="860" on="1"/>
        <pt x="804" y="887" on="0"/>
        <pt x="589" y="887" on="0"/>
        <pt x="447" y="828" on="0"/>
        <pt x="402" y="778" on="1"/>
        <pt x="317" y="683" on="0"/>
        <pt x="317" y="528" on="1"/>
        <pt x="317" y="266" on="0"/>
        <pt x="506" y="179" on="1"/>
        <pt x="573" y="148" on="0"/>
        <pt x="701" y="148" on="0"/>
        <pt x="770" y="154" on="0"/>
        <pt x="801" y="159" on="1"/>
        <pt x="867" y="170" on="0"/>
        <pt x="896" y="182" on="1"/>
        <pt x="896" y="3" on="1"/>
        <pt x="836" y="-16" on="0"/>
        <pt x="668" y="-16" on="1"/>
        <pt x="629" y="-15" on="1"/>
        <pt x="629" y="-91" on="1"/>
        <pt x="663" y="-91" on="1"/>
        <pt x="818" y="-91" on="0"/>
        <pt x="865" y="-190" on="1"/>
        <pt x="881" y="-224" on="0"/>
        <pt x="881" y="-324" on="0"/>
        <pt x="831" y="-413" on="0"/>
        <pt x="788" y="-444" on="1"/>
        <pt x="699" y="-509" on="0"/>
        <pt x="570" y="-509" on="1"/>
        <pt x="503" y="-509" on="0"/>
        <pt x="469" y="-501" on="1"/>
        <pt x="469" y="-362" on="1"/>
        <pt x="514" y="-371" on="0"/>
        <pt x="556" y="-371" on="1"/>
        <pt x="717" y="-371" on="0"/>
      </contour>
    </TTGlyph>
    <TTGlyph name="ccircumflex" xMin="109" yMin="-16" xMax="937" yMax="1644">
      <component glyphName="c" x="0" y="0" flags="0x1204"/>
      <component glyphName="circumflex" x="103" y="0" flags="0x1004"/>
    </TTGlyph>
    <TTGlyph name="cdotaccent" xMin="109" yMin="-16" xMax="896" yMax="1438">
      <component glyphName="c" x="0" y="0" flags="0x1204"/>
      <component glyphName="dotaccent" x="358" y="0" flags="0x1004"/>
    </TTGlyph>
    <TTGlyph name="cedilla" xMin="486" yMin="-509" xMax="898" yMax="84">
      <contour>
        <pt x="734" y="-275" on="1"/>
        <pt x="734" y="-219" on="0"/>
        <pt x="622" y="-219" on="1"/>
        <pt x="502" y="-219" on="1"/>
        <pt x="502" y="84" on="1"/>
        <pt x="646" y="84" on="1"/>
        <pt x="646" y="-91" on="1"/>
        <pt x="680" y="-91" on="1"/>
        <pt x="835" y="-91" on="0"/>
        <pt x="882" y="-190" on="1"/>
        <pt x="898" y="-224" on="0"/>
        <pt x="898" y="-324" on="0"/>
        <pt x="848" y="-413" on="0"/>
        <pt x="806" y="-444" on="1"/>
        <pt x="716" y="-509" on="0"/>
        <pt x="587" y="-509" on="1"/>
        <pt x="520" y="-509" on="0"/>
        <pt x="486" y="-501" on="1"/>
        <pt x="486" y="-362" on="1"/>
        <pt x="531" y="-371" on="0"/>
        <pt x="573" y="-371" on="1"/>
        <pt x="734" y="-371" on="0"/>
      </contour>
    </TTGlyph>
    <TTGlyph name="cedilla.cap" xMin="510" yMin="-509" xMax="878" yMax="84">
      <contour>
        <pt x="510" y="-381" on="1"/>
        <pt x="734" y="-381" on="0"/>
        <pt x="734" y="-271" on="1"/>
        <pt x="734" y="-235" on="0"/>
        <pt x="674" y="-207" on="0"/>
        <pt x="614" y="-207" on="1"/>
        <pt x="510" y="-207" on="1"/>
        <pt x="510" y="84" on="1"/>
        <pt x="638" y="84" on="1"/>
        <pt x="638" y="-95" on="1"/>
        <pt x="654" y="-95" on="1"/>
        <pt x="878" y="-95" on="0"/>
        <pt x="878" y="-271" on="1"/>
        <pt x="878" y="-441" on="0"/>
        <pt x="656" y="-492" on="1"/>
        <pt x="585" y="-509" on="0"/>
        <pt x="510" y="-509" on="1"/>
      </contour>
    </TTGlyph>
    <TTGlyph name="cent" xMin="99" yMin="-340" xMax="932" yMax="1360">
      <contour>
        <pt x="932" y="18" on="1"/>
        <pt x="857" y="0" on="0"/>
        <pt x="680" y="0" on="1"/>
        <pt x="679" y="0" on="1"/>
        <pt x="679" y="-340" on="1"/>
        <pt x="527" y="-340" on="1"/>
        <pt x="527" y="12" on="1"/>
        <pt x="215" y="68" on="0"/>
        <pt x="128" y="332" on="1"/>
        <pt x="99" y="419" on="0"/>
        <pt x="99" y="630" on="0"/>
        <pt x="166" y="793" on="0"/>
        <pt x="224" y="854" on="1"/>
        <pt x="339" y="972" on="0"/>
        <pt x="527" y="1012" on="1"/>
        <pt x="527" y="1360" on="1"/>
        <pt x="679" y="1360" on="1"/>
        <pt x="679" y="1030" on="1"/>
        <pt x="700" y="1031" on="1"/>
        <pt x="851" y="1031" on="0"/>
        <pt x="924" y="1021" on="1"/>
        <pt x="924" y="843" on="1"/>
        <pt x="848" y="870" on="0"/>
        <pt x="592" y="870" on="0"/>
        <pt x="440" y="814" on="0"/>
        <pt x="392" y="766" on="1"/>
        <pt x="300" y="675" on="0"/>
        <pt x="300" y="528" on="1"/>
        <pt x="300" y="277" on="0"/>
        <pt x="511" y="192" on="1"/>
        <pt x="585" y="163" on="0"/>
        <pt x="853" y="163" on="0"/>
        <pt x="932" y="197" on="1"/>
      </contour>
    </TTGlyph>
    <TTGlyph name="circumflex" xMin="186" yMin="1222" xMax="834" yMax="1644">
      <contour>
        <pt x="186" y="1414" on="1"/>
        <pt x="510" y="1644" on="1"/>
        <pt x="834" y="1414" on="1"/>
        <pt x="834" y="1222" on="1"/>
        <pt x="510" y="1436" on="1"/>
        <pt x="186" y="1222" on="1"/>
      </contour>
    </TTGlyph>
    <TTGlyph name="circumflex.cap" xMin="16" yMin="1553" xMax="664" yMax="1975">
      <contour>
        <pt x="16" y="1745" on="1"/>
        <pt x="340" y="1975" on="1"/>
        <pt x="664" y="1745" on="1"/>
        <pt x="664" y="1553" on="1"/>
        <pt x="340" y="1767" on="1"/>
        <pt x="16" y="1553" on="1"/>
      </contour>
    </TTGlyph>
    <TTGlyph name="colon" xMin="117" yMin="-25" xMax="397" yMax="1052">
      <component glyphName="period" x="0" y="0" flags="0x1004"/>
      <component glyphName="period" x="0" y="823" flags="0x1004"/>
    </TTGlyph>
    <TTGlyph name="comma" xMin="24" yMin="-388" xMax="373" yMax="186">
      <contour>
        <pt x="180" y="186" on="1"/>
        <pt x="373" y="186" on="1"/>
        <pt x="373" y="0" on="1"/>
        <pt x="373" y="-194" on="0"/>
        <pt x="298" y="-286" on="1"/>
        <pt x="214" y="-388" on="0"/>
        <pt x="24" y="-388" on="1"/>
        <pt x="24" y="-223" on="1"/>
        <pt x="150" y="-223" on="0"/>
        <pt x="172" y="-98" on="1"/>
        <pt x="180" y="-56" on="0"/>
        <pt x="180" y="0" on="1"/>
      </contour>
    </TTGlyph>
    <TTGlyph name="commaaccent" xMin="51" yMin="-510" xMax="340" yMax="-103">
      <contour>
        <pt x="340" y="-103" on="1"/>
        <pt x="340" y="-217" on="1"/>
        <pt x="340" y="-388" on="0"/>
        <pt x="274" y="-451" on="1"/>
        <pt x="213" y="-510" on="0"/>
        <pt x="51" y="-510" on="1"/>
        <pt x="51" y="-377" on="1"/>
        <pt x="110" y="-377" on="0"/>
        <pt x="132" y="-351" on="1"/>
        <pt x="170" y="-306" on="0"/>
        <pt x="170" y="-217" on="1"/>
        <pt x="170" y="-103" on="1"/>
      </contour>
    </TTGlyph>
    <TTGlyph name="commaaccent.cap" xMin="51" yMin="-510" xMax="340" yMax="-103">
      <contour>
        <pt x="340" y="-103" on="1"/>
        <pt x="340" y="-217" on="1"/>
        <pt x="340" y="-388" on="0"/>
        <pt x="274" y="-451" on="1"/>
        <pt x="213" y="-510" on="0"/>
        <pt x="51" y="-510" on="1"/>
        <pt x="51" y="-377" on="1"/>
        <pt x="110" y="-377" on="0"/>
        <pt x="132" y="-351" on="1"/>
        <pt x="170" y="-306" on="0"/>
        <pt x="170" y="-217" on="1"/>
        <pt x="170" y="-103" on="1"/>
      </contour>
    </TTGlyph>
    <TTGlyph name="copyright" xMin="136" yMin="-227" xMax="1733" yMax="1362">
      <contour>
        <pt x="136" y="567" on="1"/>
        <pt x="136" y="783" on="0"/>
        <pt x="245" y="968" on="1"/>
        <pt x="408" y="1246" on="0"/>
        <pt x="722" y="1334" on="1"/>
        <pt x="824" y="1362" on="0"/>
        <pt x="934" y="1362" on="1"/>
        <pt x="1149" y="1362" on="0"/>
        <pt x="1337" y="1254" on="1"/>
        <pt x="1518" y="1149" on="0"/>
        <pt x="1624" y="968" on="1"/>
        <pt x="1733" y="783" on="0"/>
        <pt x="1733" y="567" on="1"/>
        <pt x="1733" y="350" on="0"/>
        <pt x="1624" y="166" on="1"/>
        <pt x="1461" y="-111" on="0"/>
        <pt x="1146" y="-198" on="1"/>
        <pt x="1044" y="-227" on="0"/>
        <pt x="934" y="-227" on="1"/>
        <pt x="719" y="-227" on="0"/>
        <pt x="531" y="-118" on="1"/>
        <pt x="352" y="-15" on="0"/>
        <pt x="245" y="166" on="1"/>
        <pt x="136" y="350" on="0"/>
      </contour>
      <contour>
        <pt x="288" y="567" on="1"/>
        <pt x="288" y="298" on="0"/>
        <pt x="477" y="108" on="1"/>
        <pt x="565" y="19" on="0"/>
        <pt x="800" y="-83" on="0"/>
        <pt x="1023" y="-83" on="0"/>
        <pt x="1189" y="-37" on="0"/>
        <pt x="1332" y="48" on="0"/>
        <pt x="1450" y="167" on="0"/>
        <pt x="1492" y="239" on="1"/>
        <pt x="1581" y="389" on="0"/>
        <pt x="1581" y="567" on="1"/>
        <pt x="1581" y="836" on="0"/>
        <pt x="1391" y="1028" on="1"/>
        <pt x="1272" y="1147" on="0"/>
        <pt x="1106" y="1194" on="1"/>
        <pt x="1023" y="1218" on="0"/>
        <pt x="800" y="1218" on="0"/>
        <pt x="565" y="1116" on="0"/>
        <pt x="389" y="939" on="0"/>
        <pt x="288" y="702" on="0"/>
      </contour>
      <contour>
        <pt x="1191" y="148" on="1"/>
        <pt x="1125" y="132" on="0"/>
        <pt x="896" y="132" on="0"/>
        <pt x="719" y="192" on="0"/>
        <pt x="654" y="250" on="1"/>
        <pt x="517" y="372" on="0"/>
        <pt x="517" y="582" on="1"/>
        <pt x="517" y="783" on="0"/>
        <pt x="672" y="900" on="1"/>
        <pt x="810" y="1004" on="0"/>
        <pt x="1014" y="1004" on="1"/>
        <pt x="1090" y="1004" on="0"/>
        <pt x="1180" y="994" on="1"/>
        <pt x="1180" y="842" on="1"/>
        <pt x="1100" y="862" on="0"/>
        <pt x="942" y="862" on="0"/>
        <pt x="820" y="823" on="0"/>
        <pt x="778" y="786" on="1"/>
        <pt x="694" y="712" on="0"/>
        <pt x="694" y="582" on="1"/>
        <pt x="694" y="449" on="0"/>
        <pt x="772" y="366" on="1"/>
        <pt x="857" y="278" on="0"/>
        <pt x="1011" y="278" on="1"/>
        <pt x="1126" y="278" on="0"/>
        <pt x="1191" y="304" on="1"/>
      </contour>
    </TTGlyph>
    <TTGlyph name="currency" xMin="20" yMin="0" xMax="1170" yMax="1190">
      <contour>
        <pt x="594" y="179" on="1"/>
        <pt x="481" y="179" on="0"/>
        <pt x="386" y="235" on="1"/>
        <pt x="151" y="0" on="1"/>
        <pt x="20" y="131" on="1"/>
        <pt x="252" y="362" on="1"/>
        <pt x="183" y="467" on="0"/>
        <pt x="183" y="721" on="0"/>
        <pt x="252" y="826" on="1"/>
        <pt x="21" y="1058" on="1"/>
        <pt x="152" y="1190" on="1"/>
        <pt x="388" y="954" on="1"/>
        <pt x="485" y="1010" on="0"/>
        <pt x="594" y="1010" on="1"/>
        <pt x="705" y="1010" on="0"/>
        <pt x="802" y="953" on="1"/>
        <pt x="1039" y="1189" on="1"/>
        <pt x="1170" y="1059" on="1"/>
        <pt x="938" y="825" on="1"/>
        <pt x="1007" y="717" on="0"/>
        <pt x="1007" y="470" on="0"/>
        <pt x="937" y="364" on="1"/>
        <pt x="1170" y="132" on="1"/>
        <pt x="1038" y="1" on="1"/>
        <pt x="802" y="235" on="1"/>
        <pt x="707" y="179" on="0"/>
      </contour>
      <contour>
        <pt x="326" y="594" on="1"/>
        <pt x="326" y="540" on="0"/>
        <pt x="369" y="444" on="0"/>
        <pt x="406" y="408" on="1"/>
        <pt x="484" y="331" on="0"/>
        <pt x="595" y="331" on="1"/>
        <pt x="706" y="331" on="0"/>
        <pt x="864" y="485" on="0"/>
        <pt x="864" y="595" on="1"/>
        <pt x="864" y="706" on="0"/>
        <pt x="785" y="782" on="1"/>
        <pt x="705" y="858" on="0"/>
        <pt x="595" y="858" on="1"/>
        <pt x="484" y="858" on="0"/>
        <pt x="326" y="704" on="0"/>
      </contour>
    </TTGlyph>
    <TTGlyph name="d" xMin="118" yMin="-16" xMax="1020" yMax="1488">
      <contour>
        <pt x="398" y="986" on="0"/>
        <pt x="615" y="1048" on="0"/>
        <pt x="777" y="1048" on="0"/>
        <pt x="821" y="1044" on="1"/>
        <pt x="821" y="1488" on="1"/>
        <pt x="1020" y="1488" on="1"/>
        <pt x="1020" y="0" on="1"/>
        <pt x="841" y="0" on="1"/>
        <pt x="833" y="119" on="1"/>
        <pt x="772" y="38" on="0"/>
        <pt x="648" y="-1" on="1"/>
        <pt x="600" y="-16" on="0"/>
        <pt x="501" y="-16" on="0"/>
        <pt x="405" y="4" on="0"/>
        <pt x="310" y="51" on="0"/>
        <pt x="224" y="128" on="0"/>
        <pt x="190" y="184" on="1"/>
        <pt x="118" y="307" on="0"/>
        <pt x="118" y="643" on="0"/>
        <pt x="225" y="852" on="0"/>
      </contour>
      <contour>
        <pt x="381" y="752" on="0"/>
        <pt x="326" y="601" on="0"/>
        <pt x="326" y="386" on="0"/>
        <pt x="378" y="247" on="0"/>
        <pt x="417" y="208" on="1"/>
        <pt x="486" y="138" on="0"/>
        <pt x="583" y="138" on="1"/>
        <pt x="708" y="138" on="0"/>
        <pt x="790" y="230" on="1"/>
        <pt x="811" y="253" on="0"/>
        <pt x="820" y="271" on="1"/>
        <pt x="820" y="886" on="1"/>
        <pt x="800" y="888" on="1"/>
        <pt x="754" y="894" on="0"/>
        <pt x="627" y="894" on="0"/>
        <pt x="483" y="849" on="0"/>
      </contour>
    </TTGlyph>
    <TTGlyph name="dagger" xMin="51" yMin="0" xMax="803" yMax="1360">
      <contour>
        <pt x="351" y="874" on="1"/>
        <pt x="51" y="850" on="1"/>
        <pt x="51" y="1018" on="1"/>
        <pt x="351" y="994" on="1"/>
        <pt x="351" y="1360" on="1"/>
        <pt x="503" y="1360" on="1"/>
        <pt x="503" y="994" on="1"/>
        <pt x="803" y="1018" on="1"/>
        <pt x="803" y="850" on="1"/>
        <pt x="503" y="874" on="1"/>
        <pt x="503" y="0" on="1"/>
        <pt x="351" y="0" on="1"/>
      </contour>
    </TTGlyph>
    <TTGlyph name="daggerdbl" xMin="51" yMin="0" xMax="803" yMax="1360">
      <contour>
        <pt x="51" y="508" on="1"/>
        <pt x="351" y="484" on="1"/>
        <pt x="351" y="874" on="1"/>
        <pt x="51" y="850" on="1"/>
        <pt x="51" y="1018" on="1"/>
        <pt x="351" y="994" on="1"/>
        <pt x="351" y="1360" on="1"/>
        <pt x="503" y="1360" on="1"/>
        <pt x="503" y="994" on="1"/>
        <pt x="803" y="1018" on="1"/>
        <pt x="803" y="850" on="1"/>
        <pt x="503" y="874" on="1"/>
        <pt x="503" y="484" on="1"/>
        <pt x="803" y="508" on="1"/>
        <pt x="803" y="340" on="1"/>
        <pt x="503" y="364" on="1"/>
        <pt x="503" y="0" on="1"/>
        <pt x="351" y="0" on="1"/>
        <pt x="351" y="364" on="1"/>
        <pt x="51" y="340" on="1"/>
      </contour>
    </TTGlyph>
    <TTGlyph name="dcaron" xMin="118" yMin="-16" xMax="1423" yMax="1488">
      <contour>
        <pt x="1139" y="1043" on="1"/>
        <pt x="1233" y="1043" on="0"/>
        <pt x="1246" y="1168" on="1"/>
        <pt x="1251" y="1210" on="0"/>
        <pt x="1251" y="1266" on="1"/>
        <pt x="1251" y="1435" on="1"/>
        <pt x="1423" y="1435" on="1"/>
        <pt x="1423" y="1268" on="1"/>
        <pt x="1423" y="1068" on="0"/>
        <pt x="1368" y="984" on="1"/>
        <pt x="1305" y="886" on="0"/>
        <pt x="1139" y="886" on="1"/>
      </contour>
      <contour>
        <pt x="398" y="986" on="0"/>
        <pt x="615" y="1048" on="0"/>
        <pt x="777" y="1048" on="0"/>
        <pt x="821" y="1044" on="1"/>
        <pt x="821" y="1488" on="1"/>
        <pt x="1020" y="1488" on="1"/>
        <pt x="1020" y="0" on="1"/>
        <pt x="841" y="0" on="1"/>
        <pt x="833" y="119" on="1"/>
        <pt x="772" y="38" on="0"/>
        <pt x="648" y="-1" on="1"/>
        <pt x="600" y="-16" on="0"/>
        <pt x="501" y="-16" on="0"/>
        <pt x="405" y="4" on="0"/>
        <pt x="310" y="51" on="0"/>
        <pt x="224" y="128" on="0"/>
        <pt x="190" y="184" on="1"/>
        <pt x="118" y="307" on="0"/>
        <pt x="118" y="643" on="0"/>
        <pt x="225" y="852" on="0"/>
      </contour>
      <contour>
        <pt x="381" y="752" on="0"/>
        <pt x="326" y="601" on="0"/>
        <pt x="326" y="386" on="0"/>
        <pt x="378" y="247" on="0"/>
        <pt x="417" y="208" on="1"/>
        <pt x="486" y="138" on="0"/>
        <pt x="583" y="138" on="1"/>
        <pt x="708" y="138" on="0"/>
        <pt x="790" y="230" on="1"/>
        <pt x="811" y="253" on="0"/>
        <pt x="820" y="271" on="1"/>
        <pt x="820" y="886" on="1"/>
        <pt x="800" y="888" on="1"/>
        <pt x="754" y="894" on="0"/>
        <pt x="627" y="894" on="0"/>
        <pt x="483" y="849" on="0"/>
      </contour>
    </TTGlyph>
    <TTGlyph name="dcroat" xMin="118" yMin="-15" xMax="1159" yMax="1440">
      <contour>
        <pt x="157" y="241" on="0"/>
        <pt x="118" y="395" on="0"/>
        <pt x="118" y="643" on="0"/>
        <pt x="225" y="853" on="0"/>
        <pt x="312" y="920" on="1"/>
        <pt x="479" y="1051" on="0"/>
        <pt x="726" y="1051" on="1"/>
        <pt x="776" y="1051" on="1"/>
        <pt x="800" y="1051" on="0"/>
        <pt x="822" y="1050" on="1"/>
        <pt x="819" y="1175" on="1"/>
        <pt x="503" y="1175" on="1"/>
        <pt x="503" y="1311" on="1"/>
        <pt x="819" y="1311" on="1"/>
        <pt x="819" y="1440" on="1"/>
        <pt x="1018" y="1440" on="1"/>
        <pt x="1018" y="1311" on="1"/>
        <pt x="1159" y="1311" on="1"/>
        <pt x="1159" y="1175" on="1"/>
        <pt x="1018" y="1175" on="1"/>
        <pt x="1018" y="0" on="1"/>
        <pt x="838" y="0" on="1"/>
        <pt x="831" y="119" on="1"/>
        <pt x="771" y="39" on="0"/>
        <pt x="648" y="0" on="1"/>
        <pt x="600" y="-15" on="0"/>
        <pt x="501" y="-15" on="0"/>
        <pt x="405" y="5" on="0"/>
        <pt x="310" y="51" on="0"/>
        <pt x="224" y="128" on="0"/>
      </contour>
      <contour>
        <pt x="818" y="889" on="1"/>
        <pt x="754" y="897" on="0"/>
        <pt x="627" y="897" on="0"/>
        <pt x="483" y="851" on="0"/>
        <pt x="432" y="802" on="1"/>
        <pt x="326" y="700" on="0"/>
        <pt x="326" y="495" on="1"/>
        <pt x="326" y="301" on="0"/>
        <pt x="417" y="208" on="1"/>
        <pt x="486" y="139" on="0"/>
        <pt x="583" y="139" on="1"/>
        <pt x="708" y="139" on="0"/>
        <pt x="789" y="230" on="1"/>
        <pt x="809" y="253" on="0"/>
        <pt x="818" y="271" on="1"/>
      </contour>
    </TTGlyph>
    <TTGlyph name="degree" xMin="94" yMin="706" xMax="756" yMax="1360">
      <contour>
        <pt x="425" y="706" on="1"/>
        <pt x="288" y="706" on="0"/>
        <pt x="191" y="802" on="1"/>
        <pt x="94" y="897" on="0"/>
        <pt x="94" y="1033" on="1"/>
        <pt x="94" y="1169" on="0"/>
        <pt x="191" y="1264" on="1"/>
        <pt x="288" y="1360" on="0"/>
        <pt x="425" y="1360" on="1"/>
        <pt x="562" y="1360" on="0"/>
        <pt x="659" y="1264" on="1"/>
        <pt x="756" y="1169" on="0"/>
        <pt x="756" y="1033" on="1"/>
        <pt x="756" y="897" on="0"/>
        <pt x="659" y="802" on="1"/>
        <pt x="562" y="706" on="0"/>
      </contour>
      <contour>
        <pt x="425" y="850" on="1"/>
        <pt x="498" y="850" on="0"/>
        <pt x="552" y="904" on="1"/>
        <pt x="604" y="956" on="0"/>
        <pt x="604" y="1033" on="1"/>
        <pt x="604" y="1110" on="0"/>
        <pt x="552" y="1162" on="1"/>
        <pt x="498" y="1216" on="0"/>
        <pt x="425" y="1216" on="1"/>
        <pt x="352" y="1216" on="0"/>
        <pt x="298" y="1162" on="1"/>
        <pt x="246" y="1110" on="0"/>
        <pt x="246" y="1033" on="1"/>
        <pt x="246" y="956" on="0"/>
        <pt x="298" y="904" on="1"/>
        <pt x="352" y="850" on="0"/>
      </contour>
    </TTGlyph>
    <TTGlyph name="dieresis" xMin="70" yMin="1214" xMax="782" yMax="1438">
      <contour>
        <pt x="782" y="1272" on="0"/>
        <pt x="710" y="1214" on="0"/>
        <pt x="604" y="1214" on="0"/>
        <pt x="535" y="1272" on="0"/>
        <pt x="535" y="1382" on="0"/>
        <pt x="604" y="1438" on="0"/>
        <pt x="710" y="1438" on="0"/>
        <pt x="782" y="1382" on="0"/>
      </contour>
      <contour>
        <pt x="317" y="1272" on="0"/>
        <pt x="245" y="1214" on="0"/>
        <pt x="139" y="1214" on="0"/>
        <pt x="70" y="1272" on="0"/>
        <pt x="70" y="1382" on="0"/>
        <pt x="139" y="1438" on="0"/>
        <pt x="245" y="1438" on="0"/>
        <pt x="317" y="1382" on="0"/>
      </contour>
    </TTGlyph>
    <TTGlyph name="dieresis.cap" xMin="70" yMin="1558" xMax="782" yMax="1782">
      <contour>
        <pt x="782" y="1616" on="0"/>
        <pt x="710" y="1558" on="0"/>
        <pt x="604" y="1558" on="0"/>
        <pt x="535" y="1616" on="0"/>
        <pt x="535" y="1726" on="0"/>
        <pt x="604" y="1782" on="0"/>
        <pt x="710" y="1782" on="0"/>
        <pt x="782" y="1726" on="0"/>
      </contour>
      <contour>
        <pt x="317" y="1616" on="0"/>
        <pt x="245" y="1558" on="0"/>
        <pt x="139" y="1558" on="0"/>
        <pt x="70" y="1616" on="0"/>
        <pt x="70" y="1726" on="0"/>
        <pt x="139" y="1782" on="0"/>
        <pt x="245" y="1782" on="0"/>
        <pt x="317" y="1726" on="0"/>
      </contour>
    </TTGlyph>
    <TTGlyph name="divide" xMin="127" yMin="95" xMax="1070" yMax="1096">
      <component glyphName="minus" x="0" y="0" flags="0x1004"/>
      <component glyphName="period" x="338" y="867" flags="0x1004"/>
      <component glyphName="period" x="338" y="120" flags="0x1004"/>
    </TTGlyph>
    <TTGlyph name="dollar" xMin="170" yMin="-340" xMax="1049" yMax="1530">
      <contour>
        <pt x="519" y="0" on="1"/>
        <pt x="293" y="0" on="0"/>
        <pt x="170" y="16" on="1"/>
        <pt x="170" y="210" on="1"/>
        <pt x="296" y="175" on="0"/>
        <pt x="533" y="175" on="1"/>
        <pt x="850" y="175" on="0"/>
        <pt x="850" y="321" on="1"/>
        <pt x="850" y="381" on="0"/>
        <pt x="788" y="423" on="1"/>
        <pt x="740" y="456" on="0"/>
        <pt x="606" y="509" on="1"/>
        <pt x="484" y="557" on="1"/>
        <pt x="332" y="616" on="0"/>
        <pt x="261" y="687" on="1"/>
        <pt x="171" y="777" on="0"/>
        <pt x="171" y="917" on="1"/>
        <pt x="171" y="1092" on="0"/>
        <pt x="362" y="1176" on="1"/>
        <pt x="428" y="1204" on="0"/>
        <pt x="519" y="1216" on="1"/>
        <pt x="519" y="1530" on="1"/>
        <pt x="671" y="1530" on="1"/>
        <pt x="671" y="1224" on="1"/>
        <pt x="802" y="1223" on="0"/>
        <pt x="993" y="1206" on="1"/>
        <pt x="993" y="1012" on="1"/>
        <pt x="815" y="1049" on="0"/>
        <pt x="561" y="1049" on="0"/>
        <pt x="455" y="1024" on="0"/>
        <pt x="424" y="1004" on="1"/>
        <pt x="370" y="967" on="0"/>
        <pt x="370" y="856" on="0"/>
        <pt x="460" y="776" on="0"/>
        <pt x="561" y="735" on="1"/>
        <pt x="698" y="679" on="1"/>
        <pt x="873" y="608" on="0"/>
        <pt x="995" y="500" on="0"/>
        <pt x="1049" y="387" on="0"/>
        <pt x="1049" y="256" on="0"/>
        <pt x="1005" y="157" on="0"/>
        <pt x="959" y="117" on="1"/>
        <pt x="860" y="31" on="0"/>
        <pt x="671" y="8" on="1"/>
        <pt x="671" y="-340" on="1"/>
        <pt x="519" y="-340" on="1"/>
      </contour>
    </TTGlyph>
    <TTGlyph name="dotaccent" xMin="135" yMin="1214" xMax="382" yMax="1438">
      <contour>
        <pt x="382" y="1272" on="0"/>
        <pt x="310" y="1214" on="0"/>
        <pt x="204" y="1214" on="0"/>
        <pt x="135" y="1272" on="0"/>
        <pt x="135" y="1382" on="0"/>
        <pt x="204" y="1438" on="0"/>
        <pt x="310" y="1438" on="0"/>
        <pt x="382" y="1382" on="0"/>
      </contour>
    </TTGlyph>
    <TTGlyph name="dotaccent.cap" xMin="218" yMin="1558" xMax="465" yMax="1782">
      <contour>
        <pt x="465" y="1616" on="0"/>
        <pt x="393" y="1558" on="0"/>
        <pt x="287" y="1558" on="0"/>
        <pt x="218" y="1616" on="0"/>
        <pt x="218" y="1726" on="0"/>
        <pt x="287" y="1782" on="0"/>
        <pt x="393" y="1782" on="0"/>
        <pt x="465" y="1726" on="0"/>
      </contour>
    </TTGlyph>
    <TTGlyph name="dotlessi" xMin="154" yMin="0" xMax="354" yMax="1032">
      <contour>
        <pt x="154" y="1032" on="1"/>
        <pt x="354" y="1032" on="1"/>
        <pt x="354" y="0" on="1"/>
        <pt x="154" y="0" on="1"/>
      </contour>
    </TTGlyph>
    <TTGlyph name="dotlessj" xMin="-59" yMin="-418" xMax="356" yMax="1032">
      <contour>
        <pt x="156" y="1032" on="1"/>
        <pt x="356" y="1032" on="1"/>
        <pt x="356" y="-22" on="1"/>
        <pt x="356" y="-293" on="0"/>
        <pt x="186" y="-383" on="1"/>
        <pt x="119" y="-418" on="0"/>
        <pt x="13" y="-418" on="1"/>
        <pt x="-4" y="-418" on="0"/>
        <pt x="-22" y="-416" on="1"/>
        <pt x="-22" y="-416" on="0"/>
        <pt x="-59" y="-412" on="1"/>
        <pt x="-59" y="-258" on="1"/>
        <pt x="-32" y="-266" on="0"/>
        <pt x="36" y="-266" on="0"/>
        <pt x="97" y="-242" on="0"/>
        <pt x="117" y="-214" on="1"/>
        <pt x="156" y="-158" on="0"/>
        <pt x="156" y="-21" on="1"/>
      </contour>
    </TTGlyph>
    <TTGlyph name="e" xMin="71" yMin="-16" xMax="961" yMax="1048">
      <contour>
        <pt x="637" y="-16" on="1"/>
        <pt x="71" y="-16" on="0"/>
        <pt x="71" y="537" on="1"/>
        <pt x="71" y="775" on="0"/>
        <pt x="228" y="918" on="1"/>
        <pt x="369" y="1048" on="0"/>
        <pt x="550" y="1048" on="1"/>
        <pt x="747" y="1048" on="0"/>
        <pt x="858" y="916" on="1"/>
        <pt x="961" y="793" on="0"/>
        <pt x="961" y="587" on="1"/>
        <pt x="961" y="509" on="1"/>
        <pt x="279" y="509" on="1"/>
        <pt x="279" y="226" on="0"/>
        <pt x="510" y="163" on="1"/>
        <pt x="565" y="148" on="0"/>
        <pt x="794" y="148" on="0"/>
        <pt x="904" y="179" on="1"/>
        <pt x="904" y="10" on="1"/>
        <pt x="794" y="-16" on="0"/>
      </contour>
      <contour>
        <pt x="761" y="656" on="1"/>
        <pt x="761" y="752" on="0"/>
        <pt x="708" y="818" on="1"/>
        <pt x="646" y="894" on="0"/>
        <pt x="537" y="894" on="1"/>
        <pt x="422" y="894" on="0"/>
        <pt x="350" y="821" on="1"/>
        <pt x="284" y="753" on="0"/>
        <pt x="284" y="656" on="1"/>
      </contour>
    </TTGlyph>
    <TTGlyph name="eacute" xMin="71" yMin="-16" xMax="966" yMax="1621">
      <component glyphName="e" x="0" y="0" flags="0x1204"/>
      <component glyphName="acute" x="-9" y="0" flags="0x1004"/>
    </TTGlyph>
    <TTGlyph name="ebreve" xMin="71" yMin="-16" xMax="961" yMax="1527">
      <component glyphName="e" x="0" y="0" flags="0x1204"/>
      <component glyphName="breve" x="77" y="0" flags="0x1004"/>
    </TTGlyph>
    <TTGlyph name="ecaron" xMin="71" yMin="-16" xMax="961" yMax="1644">
      <component glyphName="e" x="0" y="0" flags="0x1204"/>
      <component glyphName="caron" x="77" y="0" flags="0x1004"/>
    </TTGlyph>
    <TTGlyph name="ecircumflex" xMin="71" yMin="-16" xMax="961" yMax="1644">
      <component glyphName="e" x="0" y="0" flags="0x1204"/>
      <component glyphName="circumflex" x="77" y="0" flags="0x1004"/>
    </TTGlyph>
    <TTGlyph name="edieresis" xMin="71" yMin="-16" xMax="961" yMax="1438">
      <component glyphName="e" x="0" y="0" flags="0x1204"/>
      <component glyphName="dieresis" x="166" y="0" flags="0x1004"/>
    </TTGlyph>
    <TTGlyph name="edotaccent" xMin="71" yMin="-16" xMax="961" yMax="1438">
      <component glyphName="e" x="0" y="0" flags="0x1204"/>
      <component glyphName="dotaccent" x="332" y="0" flags="0x1004"/>
    </TTGlyph>
    <TTGlyph name="egrave" xMin="71" yMin="-16" xMax="961" yMax="1621">
      <component glyphName="e" x="0" y="0" flags="0x1204"/>
      <component glyphName="grave" x="168" y="0" flags="0x1004"/>
    </TTGlyph>
    <TTGlyph name="eight" xMin="159" yMin="-16" xMax="1205" yMax="1369">
      <contour>
        <pt x="230" y="142" on="0"/>
        <pt x="159" y="286" on="0"/>
        <pt x="159" y="412" on="0"/>
        <pt x="186" y="501" on="0"/>
        <pt x="214" y="546" on="1"/>
        <pt x="279" y="648" on="0"/>
        <pt x="396" y="700" on="1"/>
        <pt x="396" y="703" on="1"/>
        <pt x="263" y="773" on="0"/>
        <pt x="214" y="912" on="1"/>
        <pt x="198" y="958" on="0"/>
        <pt x="198" y="1042" on="0"/>
        <pt x="220" y="1126" on="0"/>
        <pt x="267" y="1206" on="0"/>
        <pt x="343" y="1280" on="0"/>
        <pt x="396" y="1308" on="1"/>
        <pt x="513" y="1369" on="0"/>
        <pt x="681" y="1369" on="1"/>
        <pt x="1005" y="1369" on="0"/>
        <pt x="1122" y="1166" on="1"/>
        <pt x="1166" y="1089" on="0"/>
        <pt x="1166" y="958" on="0"/>
        <pt x="1134" y="867" on="0"/>
        <pt x="1107" y="828" on="1"/>
        <pt x="1052" y="747" on="0"/>
        <pt x="968" y="703" on="1"/>
        <pt x="968" y="700" on="1"/>
        <pt x="1085" y="648" on="0"/>
        <pt x="1150" y="546" on="1"/>
        <pt x="1205" y="458" on="0"/>
        <pt x="1205" y="286" on="0"/>
        <pt x="1134" y="142" on="0"/>
        <pt x="1066" y="91" on="1"/>
        <pt x="925" y="-16" on="0"/>
        <pt x="682" y="-16" on="1"/>
        <pt x="439" y="-16" on="0"/>
        <pt x="298" y="91" on="1"/>
      </contour>
      <contour>
        <pt x="682" y="770" on="1"/>
        <pt x="744" y="770" on="0"/>
        <pt x="849" y="807" on="0"/>
        <pt x="886" y="838" on="1"/>
        <pt x="964" y="905" on="0"/>
        <pt x="964" y="1005" on="1"/>
        <pt x="964" y="1145" on="0"/>
        <pt x="814" y="1196" on="1"/>
        <pt x="760" y="1214" on="0"/>
        <pt x="683" y="1214" on="1"/>
        <pt x="539" y="1214" on="0"/>
        <pt x="464" y="1148" on="1"/>
        <pt x="401" y="1093" on="0"/>
        <pt x="401" y="1005" on="1"/>
        <pt x="401" y="905" on="0"/>
        <pt x="479" y="838" on="1"/>
        <pt x="559" y="770" on="0"/>
      </contour>
      <contour>
        <pt x="361" y="367" on="1"/>
        <pt x="361" y="313" on="0"/>
        <pt x="416" y="223" on="0"/>
        <pt x="461" y="194" on="1"/>
        <pt x="552" y="134" on="0"/>
        <pt x="681" y="134" on="1"/>
        <pt x="894" y="134" on="0"/>
        <pt x="976" y="268" on="1"/>
        <pt x="1003" y="313" on="0"/>
        <pt x="1003" y="421" on="0"/>
        <pt x="967" y="508" on="0"/>
        <pt x="928" y="542" on="1"/>
        <pt x="843" y="616" on="0"/>
        <pt x="521" y="616" on="0"/>
        <pt x="436" y="542" on="1"/>
        <pt x="361" y="477" on="0"/>
      </contour>
    </TTGlyph>
    <TTGlyph name="ellipsis" xMin="117" yMin="-25" xMax="1419" yMax="229">
      <contour>
        <pt x="1218" y="-25" on="0"/>
        <pt x="1139" y="40" on="0"/>
        <pt x="1139" y="163" on="0"/>
        <pt x="1218" y="229" on="0"/>
        <pt x="1339" y="229" on="0"/>
        <pt x="1419" y="163" on="0"/>
        <pt x="1419" y="40" on="0"/>
        <pt x="1339" y="-25" on="0"/>
      </contour>
      <contour>
        <pt x="707" y="-25" on="0"/>
        <pt x="628" y="40" on="0"/>
        <pt x="628" y="163" on="0"/>
        <pt x="707" y="229" on="0"/>
        <pt x="828" y="229" on="0"/>
        <pt x="908" y="163" on="0"/>
        <pt x="908" y="40" on="0"/>
        <pt x="828" y="-25" on="0"/>
      </contour>
      <contour>
        <pt x="196" y="-25" on="0"/>
        <pt x="117" y="40" on="0"/>
        <pt x="117" y="163" on="0"/>
        <pt x="196" y="229" on="0"/>
        <pt x="317" y="229" on="0"/>
        <pt x="397" y="163" on="0"/>
        <pt x="397" y="40" on="0"/>
        <pt x="317" y="-25" on="0"/>
      </contour>
    </TTGlyph>
    <TTGlyph name="emacron" xMin="71" yMin="-16" xMax="961" yMax="1392">
      <component glyphName="e" x="0" y="0" flags="0x1204"/>
      <component glyphName="macron" x="247" y="0" flags="0x1004"/>
    </TTGlyph>
    <TTGlyph name="emdash" xMin="170" yMin="519" xMax="1700" yMax="671">
      <contour>
        <pt x="170" y="671" on="1"/>
        <pt x="1700" y="671" on="1"/>
        <pt x="1700" y="519" on="1"/>
        <pt x="170" y="519" on="1"/>
      </contour>
    </TTGlyph>
    <TTGlyph name="endash" xMin="170" yMin="519" xMax="1020" yMax="671">
      <contour>
        <pt x="170" y="671" on="1"/>
        <pt x="1020" y="671" on="1"/>
        <pt x="1020" y="519" on="1"/>
        <pt x="170" y="519" on="1"/>
      </contour>
    </TTGlyph>
    <TTGlyph name="eng" xMin="156" yMin="-418" xMax="1052" yMax="1051">
      <contour>
        <pt x="620" y="879" on="1"/>
        <pt x="472" y="879" on="0"/>
        <pt x="356" y="778" on="1"/>
        <pt x="356" y="0" on="1"/>
        <pt x="156" y="0" on="1"/>
        <pt x="156" y="1032" on="1"/>
        <pt x="336" y="1032" on="1"/>
        <pt x="354" y="923" on="1"/>
        <pt x="469" y="1016" on="0"/>
        <pt x="612" y="1043" on="1"/>
        <pt x="654" y="1051" on="0"/>
        <pt x="782" y="1051" on="0"/>
        <pt x="917" y="998" on="0"/>
        <pt x="962" y="940" on="1"/>
        <pt x="1052" y="826" on="0"/>
        <pt x="1052" y="567" on="1"/>
        <pt x="1052" y="0" on="1"/>
        <pt x="1051" y="0" on="1"/>
        <pt x="1051" y="-22" on="1"/>
        <pt x="1051" y="-293" on="0"/>
        <pt x="880" y="-383" on="1"/>
        <pt x="814" y="-418" on="0"/>
        <pt x="708" y="-418" on="1"/>
        <pt x="691" y="-418" on="0"/>
        <pt x="673" y="-416" on="1"/>
        <pt x="636" y="-412" on="1"/>
        <pt x="636" y="-258" on="1"/>
        <pt x="663" y="-266" on="0"/>
        <pt x="731" y="-266" on="0"/>
        <pt x="792" y="-242" on="0"/>
        <pt x="812" y="-214" on="1"/>
        <pt x="851" y="-158" on="0"/>
        <pt x="851" y="-21" on="1"/>
        <pt x="851" y="340" on="1"/>
        <pt x="852" y="340" on="1"/>
        <pt x="852" y="567" on="1"/>
        <pt x="852" y="815" on="0"/>
        <pt x="717" y="864" on="1"/>
        <pt x="674" y="879" on="0"/>
      </contour>
    </TTGlyph>
    <TTGlyph name="eogonek" xMin="71" yMin="-510" xMax="961" yMax="1048">
      <contour>
        <pt x="634" y="-16" on="1"/>
        <pt x="71" y="-14" on="0"/>
        <pt x="71" y="537" on="1"/>
        <pt x="71" y="775" on="0"/>
        <pt x="228" y="918" on="1"/>
        <pt x="369" y="1048" on="0"/>
        <pt x="550" y="1048" on="1"/>
        <pt x="747" y="1048" on="0"/>
        <pt x="858" y="916" on="1"/>
        <pt x="961" y="793" on="0"/>
        <pt x="961" y="587" on="1"/>
        <pt x="961" y="509" on="1"/>
        <pt x="279" y="509" on="1"/>
        <pt x="279" y="226" on="0"/>
        <pt x="510" y="163" on="1"/>
        <pt x="565" y="148" on="0"/>
        <pt x="794" y="148" on="0"/>
        <pt x="904" y="179" on="1"/>
        <pt x="904" y="10" on="1"/>
        <pt x="903" y="10" on="0"/>
        <pt x="830" y="-25" on="0"/>
        <pt x="734" y="-90" on="0"/>
        <pt x="706" y="-122" on="1"/>
        <pt x="654" y="-178" on="0"/>
        <pt x="654" y="-292" on="0"/>
        <pt x="721" y="-359" on="0"/>
        <pt x="846" y="-359" on="0"/>
        <pt x="891" y="-340" on="1"/>
        <pt x="891" y="-488" on="1"/>
        <pt x="836" y="-510" on="0"/>
        <pt x="682" y="-510" on="0"/>
        <pt x="576" y="-466" on="0"/>
        <pt x="544" y="-432" on="1"/>
        <pt x="485" y="-368" on="0"/>
        <pt x="485" y="-270" on="1"/>
        <pt x="485" y="-130" on="0"/>
      </contour>
      <contour>
        <pt x="761" y="656" on="1"/>
        <pt x="761" y="752" on="0"/>
        <pt x="708" y="818" on="1"/>
        <pt x="646" y="894" on="0"/>
        <pt x="537" y="894" on="1"/>
        <pt x="422" y="894" on="0"/>
        <pt x="350" y="821" on="1"/>
        <pt x="284" y="753" on="0"/>
        <pt x="284" y="656" on="1"/>
      </contour>
    </TTGlyph>
    <TTGlyph name="equal" xMin="97" yMin="340" xMax="1100" yMax="849">
      <contour>
        <pt x="97" y="849" on="1"/>
        <pt x="1100" y="849" on="1"/>
        <pt x="1100" y="695" on="1"/>
        <pt x="97" y="695" on="1"/>
      </contour>
      <contour>
        <pt x="97" y="494" on="1"/>
        <pt x="1100" y="494" on="1"/>
        <pt x="1100" y="340" on="1"/>
        <pt x="97" y="340" on="1"/>
      </contour>
    </TTGlyph>
    <TTGlyph name="eth" xMin="100" yMin="-16" xMax="1103" yMax="1530">
      <contour>
        <pt x="856" y="1267" on="1"/>
        <pt x="1103" y="990" on="0"/>
        <pt x="1103" y="566" on="1"/>
        <pt x="1103" y="309" on="0"/>
        <pt x="964" y="147" on="1"/>
        <pt x="823" y="-16" on="0"/>
        <pt x="601" y="-16" on="1"/>
        <pt x="392" y="-16" on="0"/>
        <pt x="251" y="109" on="1"/>
        <pt x="100" y="242" on="0"/>
        <pt x="100" y="458" on="1"/>
        <pt x="100" y="672" on="0"/>
        <pt x="251" y="804" on="1"/>
        <pt x="389" y="925" on="0"/>
        <pt x="583" y="925" on="1"/>
        <pt x="734" y="925" on="0"/>
        <pt x="834" y="859" on="1"/>
        <pt x="871" y="834" on="0"/>
        <pt x="897" y="797" on="1"/>
        <pt x="901" y="797" on="1"/>
        <pt x="862" y="1022" on="0"/>
        <pt x="687" y="1195" on="1"/>
        <pt x="418" y="1080" on="1"/>
        <pt x="371" y="1224" on="1"/>
        <pt x="555" y="1303" on="1"/>
        <pt x="443" y="1381" on="0"/>
        <pt x="293" y="1443" on="1"/>
        <pt x="470" y="1530" on="1"/>
        <pt x="626" y="1467" on="0"/>
        <pt x="735" y="1380" on="1"/>
        <pt x="1004" y="1495" on="1"/>
        <pt x="1051" y="1350" on="1"/>
      </contour>
      <contour>
        <pt x="308" y="460" on="1"/>
        <pt x="308" y="399" on="0"/>
        <pt x="342" y="284" on="0"/>
        <pt x="378" y="239" on="1"/>
        <pt x="456" y="139" on="0"/>
        <pt x="601" y="139" on="1"/>
        <pt x="752" y="139" on="0"/>
        <pt x="835" y="248" on="1"/>
        <pt x="903" y="338" on="0"/>
        <pt x="903" y="459" on="1"/>
        <pt x="903" y="585" on="0"/>
        <pt x="824" y="672" on="1"/>
        <pt x="739" y="764" on="0"/>
        <pt x="601" y="764" on="1"/>
        <pt x="458" y="764" on="0"/>
        <pt x="380" y="673" on="1"/>
        <pt x="308" y="589" on="0"/>
      </contour>
    </TTGlyph>
    <TTGlyph name="exclam" xMin="117" yMin="-25" xMax="397" yMax="1450">
      <contour>
        <pt x="156" y="1450" on="1"/>
        <pt x="356" y="1450" on="1"/>
        <pt x="340" y="414" on="1"/>
        <pt x="172" y="414" on="1"/>
      </contour>
      <contour>
        <pt x="196" y="-25" on="0"/>
        <pt x="117" y="40" on="0"/>
        <pt x="117" y="163" on="0"/>
        <pt x="196" y="229" on="0"/>
        <pt x="317" y="229" on="0"/>
        <pt x="397" y="163" on="0"/>
        <pt x="397" y="40" on="0"/>
        <pt x="317" y="-25" on="0"/>
      </contour>
    </TTGlyph>
    <TTGlyph name="exclamdown" xMin="117" yMin="-398" xMax="397" yMax="1077">
      <contour>
        <pt x="397" y="889" on="0"/>
        <pt x="318" y="823" on="0"/>
        <pt x="197" y="823" on="0"/>
        <pt x="117" y="889" on="0"/>
        <pt x="117" y="1012" on="0"/>
        <pt x="197" y="1077" on="0"/>
        <pt x="318" y="1077" on="0"/>
        <pt x="397" y="1012" on="0"/>
      </contour>
      <contour>
        <pt x="174" y="638" on="1"/>
        <pt x="342" y="638" on="1"/>
        <pt x="358" y="-398" on="1"/>
        <pt x="158" y="-398" on="1"/>
      </contour>
    </TTGlyph>
    <TTGlyph name="f" xMin="56" yMin="0" xMax="679" yMax="1504">
      <contour>
        <pt x="679" y="1338" on="1"/>
        <pt x="643" y="1350" on="0"/>
        <pt x="515" y="1350" on="0"/>
        <pt x="440" y="1326" on="0"/>
        <pt x="418" y="1303" on="1"/>
        <pt x="380" y="1262" on="0"/>
        <pt x="380" y="1169" on="1"/>
        <pt x="380" y="1032" on="1"/>
        <pt x="638" y="1032" on="1"/>
        <pt x="638" y="879" on="1"/>
        <pt x="380" y="879" on="1"/>
        <pt x="380" y="0" on="1"/>
        <pt x="180" y="0" on="1"/>
        <pt x="180" y="879" on="1"/>
        <pt x="56" y="879" on="1"/>
        <pt x="56" y="973" on="1"/>
        <pt x="180" y="1032" on="1"/>
        <pt x="180" y="1142" on="1"/>
        <pt x="180" y="1247" on="0"/>
        <pt x="217" y="1353" on="0"/>
        <pt x="269" y="1423" on="0"/>
        <pt x="313" y="1449" on="1"/>
        <pt x="406" y="1504" on="0"/>
        <pt x="574" y="1504" on="1"/>
        <pt x="644" y="1504" on="0"/>
        <pt x="679" y="1496" on="1"/>
      </contour>
    </TTGlyph>
    <TTGlyph name="ff" xMin="56" yMin="0" xMax="1316" yMax="1500">
      <contour>
        <pt x="1316" y="1334" on="1"/>
        <pt x="1280" y="1346" on="0"/>
        <pt x="1155" y="1346" on="0"/>
        <pt x="1080" y="1322" on="0"/>
        <pt x="1058" y="1299" on="1"/>
        <pt x="1020" y="1258" on="0"/>
        <pt x="1020" y="1165" on="1"/>
        <pt x="1020" y="1032" on="1"/>
        <pt x="1270" y="1032" on="1"/>
        <pt x="1270" y="879" on="1"/>
        <pt x="1020" y="879" on="1"/>
        <pt x="1020" y="0" on="1"/>
        <pt x="820" y="0" on="1"/>
        <pt x="820" y="879" on="1"/>
        <pt x="380" y="879" on="1"/>
        <pt x="380" y="0" on="1"/>
        <pt x="180" y="0" on="1"/>
        <pt x="180" y="879" on="1"/>
        <pt x="56" y="879" on="1"/>
        <pt x="56" y="973" on="1"/>
        <pt x="179" y="1033" on="1"/>
        <pt x="180" y="1138" on="1"/>
        <pt x="180" y="1365" on="0"/>
        <pt x="314" y="1445" on="1"/>
        <pt x="406" y="1500" on="0"/>
        <pt x="574" y="1500" on="1"/>
        <pt x="641" y="1500" on="0"/>
        <pt x="676" y="1492" on="1"/>
        <pt x="676" y="1334" on="1"/>
        <pt x="640" y="1346" on="0"/>
        <pt x="515" y="1346" on="0"/>
        <pt x="440" y="1322" on="0"/>
        <pt x="418" y="1299" on="1"/>
        <pt x="380" y="1258" on="0"/>
        <pt x="380" y="1165" on="1"/>
        <pt x="380" y="1032" on="1"/>
        <pt x="820" y="1033" on="1"/>
        <pt x="820" y="1138" on="1"/>
        <pt x="820" y="1243" on="0"/>
        <pt x="857" y="1349" on="0"/>
        <pt x="909" y="1419" on="0"/>
        <pt x="953" y="1445" on="1"/>
        <pt x="1046" y="1500" on="0"/>
        <pt x="1214" y="1500" on="1"/>
        <pt x="1281" y="1500" on="0"/>
        <pt x="1316" y="1492" on="1"/>
      </contour>
    </TTGlyph>
    <TTGlyph name="fi" xMin="46" yMin="0" xMax="1052" yMax="1500">
      <contour>
        <pt x="666" y="1334" on="1"/>
        <pt x="630" y="1346" on="0"/>
        <pt x="505" y="1346" on="0"/>
        <pt x="430" y="1322" on="0"/>
        <pt x="408" y="1299" on="1"/>
        <pt x="370" y="1258" on="0"/>
        <pt x="370" y="1165" on="1"/>
        <pt x="370" y="1032" on="1"/>
        <pt x="1020" y="1032" on="1"/>
        <pt x="1020" y="0" on="1"/>
        <pt x="820" y="0" on="1"/>
        <pt x="820" y="879" on="1"/>
        <pt x="370" y="879" on="1"/>
        <pt x="370" y="0" on="1"/>
        <pt x="170" y="0" on="1"/>
        <pt x="170" y="879" on="1"/>
        <pt x="46" y="879" on="1"/>
        <pt x="46" y="973" on="1"/>
        <pt x="169" y="1033" on="1"/>
        <pt x="170" y="1138" on="1"/>
        <pt x="170" y="1365" on="0"/>
        <pt x="304" y="1445" on="1"/>
        <pt x="396" y="1500" on="0"/>
        <pt x="564" y="1500" on="1"/>
        <pt x="631" y="1500" on="0"/>
        <pt x="666" y="1492" on="1"/>
      </contour>
      <contour>
        <pt x="1052" y="1275" on="0"/>
        <pt x="977" y="1214" on="0"/>
        <pt x="865" y="1214" on="0"/>
        <pt x="792" y="1275" on="0"/>
        <pt x="792" y="1390" on="0"/>
        <pt x="865" y="1450" on="0"/>
        <pt x="977" y="1450" on="0"/>
        <pt x="1052" y="1390" on="0"/>
      </contour>
    </TTGlyph>
    <TTGlyph name="five" xMin="141" yMin="-9" xMax="1070" yMax="1356">
      <contour>
        <pt x="141" y="211" on="1"/>
        <pt x="277" y="173" on="0"/>
        <pt x="665" y="173" on="0"/>
        <pt x="864" y="298" on="0"/>
        <pt x="864" y="435" on="1"/>
        <pt x="864" y="560" on="0"/>
        <pt x="780" y="617" on="1"/>
        <pt x="683" y="684" on="0"/>
        <pt x="457" y="684" on="1"/>
        <pt x="178" y="684" on="1"/>
        <pt x="178" y="1356" on="1"/>
        <pt x="999" y="1356" on="1"/>
        <pt x="999" y="1168" on="1"/>
        <pt x="370" y="1168" on="1"/>
        <pt x="370" y="852" on="1"/>
        <pt x="487" y="852" on="1"/>
        <pt x="790" y="852" on="0"/>
        <pt x="928" y="754" on="1"/>
        <pt x="1070" y="653" on="0"/>
        <pt x="1070" y="431" on="1"/>
        <pt x="1070" y="236" on="0"/>
        <pt x="928" y="120" on="1"/>
        <pt x="772" y="-9" on="0"/>
        <pt x="470" y="-9" on="1"/>
        <pt x="249" y="-9" on="0"/>
        <pt x="141" y="17" on="1"/>
      </contour>
    </TTGlyph>
    <TTGlyph name="fl" xMin="46" yMin="-6" xMax="1265" yMax="1500">
      <contour>
        <pt x="850" y="1325" on="1"/>
        <pt x="736" y="1346" on="0"/>
        <pt x="576" y="1346" on="0"/>
        <pt x="472" y="1323" on="0"/>
        <pt x="438" y="1296" on="1"/>
        <pt x="370" y="1242" on="0"/>
        <pt x="370" y="1109" on="1"/>
        <pt x="370" y="1032" on="1"/>
        <pt x="620" y="1032" on="1"/>
        <pt x="620" y="879" on="1"/>
        <pt x="370" y="879" on="1"/>
        <pt x="370" y="0" on="1"/>
        <pt x="170" y="0" on="1"/>
        <pt x="170" y="879" on="1"/>
        <pt x="46" y="879" on="1"/>
        <pt x="46" y="973" on="1"/>
        <pt x="170" y="1033" on="1"/>
        <pt x="170" y="1106" on="1"/>
        <pt x="170" y="1285" on="0"/>
        <pt x="255" y="1378" on="1"/>
        <pt x="368" y="1500" on="0"/>
        <pt x="647" y="1500" on="1"/>
        <pt x="825" y="1500" on="0"/>
        <pt x="1002" y="1468" on="1"/>
        <pt x="1049" y="1460" on="1"/>
        <pt x="1049" y="1458" on="1"/>
        <pt x="1050" y="1458" on="1"/>
        <pt x="1050" y="391" on="1"/>
        <pt x="1050" y="193" on="0"/>
        <pt x="1140" y="158" on="1"/>
        <pt x="1170" y="146" on="0"/>
        <pt x="1238" y="146" on="0"/>
        <pt x="1265" y="154" on="1"/>
        <pt x="1265" y="0" on="1"/>
        <pt x="1228" y="-4" on="1"/>
        <pt x="1210" y="-6" on="0"/>
        <pt x="1193" y="-6" on="1"/>
        <pt x="1001" y="-6" on="0"/>
        <pt x="916" y="120" on="1"/>
        <pt x="850" y="219" on="0"/>
        <pt x="850" y="390" on="1"/>
      </contour>
    </TTGlyph>
    <TTGlyph name="florin" xMin="34" yMin="-323" xMax="987" yMax="1359">
      <contour>
        <pt x="34" y="-157" on="1"/>
        <pt x="70" y="-169" on="0"/>
        <pt x="195" y="-169" on="0"/>
        <pt x="268" y="-145" on="0"/>
        <pt x="290" y="-122" on="1"/>
        <pt x="327" y="-82" on="0"/>
        <pt x="342" y="12" on="1"/>
        <pt x="472" y="851" on="1"/>
        <pt x="299" y="851" on="1"/>
        <pt x="299" y="1005" on="1"/>
        <pt x="496" y="1005" on="1"/>
        <pt x="503" y="1047" on="0"/>
        <pt x="516" y="1133" on="0"/>
        <pt x="544" y="1212" on="0"/>
        <pt x="592" y="1280" on="0"/>
        <pt x="633" y="1305" on="1"/>
        <pt x="722" y="1359" on="0"/>
        <pt x="885" y="1359" on="1"/>
        <pt x="952" y="1359" on="0"/>
        <pt x="987" y="1351" on="1"/>
        <pt x="987" y="1193" on="1"/>
        <pt x="951" y="1205" on="0"/>
        <pt x="826" y="1205" on="0"/>
        <pt x="753" y="1180" on="0"/>
        <pt x="730" y="1157" on="1"/>
        <pt x="694" y="1120" on="0"/>
        <pt x="676" y="1005" on="1"/>
        <pt x="867" y="1005" on="1"/>
        <pt x="867" y="851" on="1"/>
        <pt x="652" y="851" on="1"/>
        <pt x="512" y="-48" on="1"/>
        <pt x="498" y="-145" on="0"/>
        <pt x="431" y="-241" on="0"/>
        <pt x="390" y="-267" on="1"/>
        <pt x="302" y="-323" on="0"/>
        <pt x="136" y="-323" on="1"/>
        <pt x="69" y="-323" on="0"/>
        <pt x="34" y="-315" on="1"/>
      </contour>
    </TTGlyph>
    <TTGlyph name="four" xMin="57" yMin="0" xMax="1135" yMax="1360">
      <contour>
        <pt x="57" y="408" on="1"/>
        <pt x="612" y="1360" on="1"/>
        <pt x="848" y="1360" on="1"/>
        <pt x="340" y="509" on="1"/>
        <pt x="819" y="509" on="1"/>
        <pt x="819" y="787" on="1"/>
        <pt x="1021" y="787" on="1"/>
        <pt x="1021" y="509" on="1"/>
        <pt x="1135" y="509" on="1"/>
        <pt x="1135" y="333" on="1"/>
        <pt x="1021" y="333" on="1"/>
        <pt x="1021" y="0" on="1"/>
        <pt x="819" y="0" on="1"/>
        <pt x="819" y="333" on="1"/>
        <pt x="57" y="333" on="1"/>
      </contour>
    </TTGlyph>
    <TTGlyph name="fraction" xMin="35" yMin="0" xMax="989" yMax="1360">
      <contour>
        <pt x="822" y="1360" on="1"/>
        <pt x="989" y="1360" on="1"/>
        <pt x="202" y="0" on="1"/>
        <pt x="35" y="0" on="1"/>
      </contour>
    </TTGlyph>
    <TTGlyph name="g" xMin="86" yMin="-416" xMax="1020" yMax="1048">
      <contour>
        <pt x="740" y="-394" on="1"/>
        <pt x="653" y="-416" on="0"/>
        <pt x="380" y="-416" on="0"/>
        <pt x="317" y="-396" on="1"/>
        <pt x="317" y="-218" on="1"/>
        <pt x="396" y="-252" on="0"/>
        <pt x="625" y="-253" on="0"/>
        <pt x="733" y="-221" on="0"/>
        <pt x="764" y="-185" on="1"/>
        <pt x="820" y="-120" on="0"/>
        <pt x="820" y="50" on="1"/>
        <pt x="820" y="103" on="1"/>
        <pt x="744" y="27" on="0"/>
        <pt x="620" y="-3" on="1"/>
        <pt x="570" y="-15" on="0"/>
        <pt x="470" y="-15" on="0"/>
        <pt x="375" y="7" on="0"/>
        <pt x="281" y="56" on="0"/>
        <pt x="195" y="135" on="0"/>
        <pt x="162" y="194" on="1"/>
        <pt x="88" y="322" on="0"/>
        <pt x="88" y="509" on="1"/>
        <pt x="86" y="682" on="0"/>
        <pt x="188" y="813" on="1"/>
        <pt x="276" y="927" on="0"/>
        <pt x="430" y="990" on="1"/>
        <pt x="570" y="1048" on="0"/>
        <pt x="896" y="1048" on="0"/>
        <pt x="1020" y="1032" on="1"/>
        <pt x="1020" y="50" on="1"/>
        <pt x="1020" y="-324" on="0"/>
      </contour>
      <contour>
        <pt x="820" y="886" on="1"/>
        <pt x="756" y="894" on="0"/>
        <pt x="632" y="894" on="0"/>
        <pt x="478" y="848" on="0"/>
        <pt x="420" y="801" on="1"/>
        <pt x="293" y="698" on="0"/>
        <pt x="293" y="509" on="1"/>
        <pt x="293" y="304" on="0"/>
        <pt x="392" y="210" on="1"/>
        <pt x="466" y="139" on="0"/>
        <pt x="573" y="139" on="1"/>
        <pt x="702" y="139" on="0"/>
        <pt x="790" y="230" on="1"/>
        <pt x="811" y="253" on="0"/>
        <pt x="820" y="271" on="1"/>
      </contour>
    </TTGlyph>
    <TTGlyph name="gbreve" xMin="86" yMin="-416" xMax="1020" yMax="1527">
      <component glyphName="g" x="0" y="0" flags="0x1204"/>
      <component glyphName="breve" x="90" y="0" flags="0x1004"/>
    </TTGlyph>
    <TTGlyph name="gcircumflex" xMin="86" yMin="-416" xMax="1020" yMax="1644">
      <component glyphName="g" x="0" y="0" flags="0x1204"/>
      <component glyphName="circumflex" x="90" y="0" flags="0x1004"/>
    </TTGlyph>
    <TTGlyph name="gcommaaccent" xMin="86" yMin="-416" xMax="1020" yMax="1595">
      <component glyphName="g" x="0" y="0" flags="0x1204"/>
      <component glyphName="commaaccent" x="893" y="1085" scale="-0.999938964844" flags="0x1004"/>
    </TTGlyph>
    <TTGlyph name="gdotaccent" xMin="86" yMin="-416" xMax="1020" yMax="1438">
      <component glyphName="g" x="0" y="0" flags="0x1204"/>
      <component glyphName="dotaccent" x="345" y="0" flags="0x1004"/>
    </TTGlyph>
    <TTGlyph name="germandbls" xMin="156" yMin="-16" xMax="1148" yMax="1498">
      <contour>
        <pt x="509" y="179" on="1"/>
        <pt x="626" y="148" on="0"/>
        <pt x="791" y="148" on="0"/>
        <pt x="879" y="179" on="0"/>
        <pt x="902" y="202" on="1"/>
        <pt x="940" y="240" on="0"/>
        <pt x="940" y="301" on="1"/>
        <pt x="940" y="403" on="0"/>
        <pt x="812" y="472" on="1"/>
        <pt x="723" y="520" on="1"/>
        <pt x="596" y="587" on="0"/>
        <pt x="523" y="666" on="0"/>
        <pt x="496" y="744" on="0"/>
        <pt x="496" y="843" on="0"/>
        <pt x="532" y="907" on="0"/>
        <pt x="592" y="960" on="0"/>
        <pt x="630" y="984" on="1"/>
        <pt x="710" y="1037" on="1"/>
        <pt x="800" y="1097" on="0"/>
        <pt x="824" y="1148" on="1"/>
        <pt x="835" y="1172" on="0"/>
        <pt x="835" y="1220" on="0"/>
        <pt x="817" y="1270" on="0"/>
        <pt x="794" y="1292" on="1"/>
        <pt x="739" y="1345" on="0"/>
        <pt x="624" y="1345" on="1"/>
        <pt x="500" y="1345" on="0"/>
        <pt x="437" y="1287" on="1"/>
        <pt x="356" y="1213" on="0"/>
        <pt x="356" y="1033" on="1"/>
        <pt x="356" y="0" on="1"/>
        <pt x="156" y="0" on="1"/>
        <pt x="156" y="1034" on="1"/>
        <pt x="156" y="1369" on="0"/>
        <pt x="414" y="1465" on="1"/>
        <pt x="503" y="1498" on="0"/>
        <pt x="730" y="1498" on="0"/>
        <pt x="880" y="1448" on="0"/>
        <pt x="928" y="1406" on="1"/>
        <pt x="1022" y="1326" on="0"/>
        <pt x="1022" y="1202" on="1"/>
        <pt x="1022" y="1052" on="0"/>
        <pt x="885" y="954" on="1"/>
        <pt x="798" y="893" on="1"/>
        <pt x="752" y="863" on="0"/>
        <pt x="696" y="820" on="0"/>
        <pt x="696" y="782" on="0"/>
        <pt x="702" y="760" on="0"/>
        <pt x="711" y="749" on="1"/>
        <pt x="730" y="726" on="0"/>
        <pt x="786" y="694" on="1"/>
        <pt x="881" y="639" on="1"/>
        <pt x="1020" y="559" on="0"/>
        <pt x="1065" y="509" on="1"/>
        <pt x="1148" y="417" on="0"/>
        <pt x="1148" y="301" on="1"/>
        <pt x="1148" y="169" on="0"/>
        <pt x="1048" y="84" on="1"/>
        <pt x="933" y="-16" on="0"/>
        <pt x="717" y="-16" on="1"/>
        <pt x="637" y="-16" on="0"/>
        <pt x="509" y="2" on="1"/>
      </contour>
    </TTGlyph>
    <TTGlyph name="grave" xMin="92" yMin="1254" xMax="558" yMax="1621">
      <contour>
        <pt x="92" y="1621" on="1"/>
        <pt x="326" y="1621" on="1"/>
        <pt x="558" y="1254" on="1"/>
        <pt x="380" y="1254" on="1"/>
      </contour>
    </TTGlyph>
    <TTGlyph name="grave.cap" xMin="97" yMin="1530" xMax="563" yMax="1897">
      <contour>
        <pt x="97" y="1897" on="1"/>
        <pt x="331" y="1897" on="1"/>
        <pt x="563" y="1530" on="1"/>
        <pt x="385" y="1530" on="1"/>
      </contour>
    </TTGlyph>
    <TTGlyph name="greater" xMin="114" yMin="107" xMax="1117" yMax="1074">
      <component glyphName="less" x="1188" y="0" scalex="-0.999938964844" scaley="1.0" flags="0x1004"/>
    </TTGlyph>
    <TTGlyph name="greaterequal" xMin="116" yMin="1" xMax="1120" yMax="1249">
      <component glyphName="lessequal" x="1190" y="0" scalex="-0.999938964844" scaley="1.0" flags="0x1004"/>
    </TTGlyph>
    <TTGlyph name="guillemotleft" xMin="221" yMin="64" xMax="1446" yMax="995">
      <contour>
        <pt x="835" y="593" on="1"/>
        <pt x="1446" y="995" on="1"/>
        <pt x="1446" y="799" on="1"/>
        <pt x="1026" y="533" on="1"/>
        <pt x="1446" y="260" on="1"/>
        <pt x="1446" y="64" on="1"/>
        <pt x="835" y="475" on="1"/>
      </contour>
      <contour>
        <pt x="221" y="593" on="1"/>
        <pt x="832" y="995" on="1"/>
        <pt x="832" y="799" on="1"/>
        <pt x="412" y="533" on="1"/>
        <pt x="832" y="260" on="1"/>
        <pt x="832" y="64" on="1"/>
        <pt x="221" y="475" on="1"/>
      </contour>
    </TTGlyph>
    <TTGlyph name="guillemotright" xMin="281" yMin="64" xMax="1506" yMax="995">
      <component glyphName="guillemotleft" x="1727" y="0" scalex="-0.999938964844" scaley="1.0" flags="0x1004"/>
    </TTGlyph>
    <TTGlyph name="guilsinglleft" xMin="170" yMin="64" xMax="781" yMax="995">
      <contour>
        <pt x="170" y="593" on="1"/>
        <pt x="781" y="995" on="1"/>
        <pt x="781" y="799" on="1"/>
        <pt x="352" y="533" on="1"/>
        <pt x="781" y="260" on="1"/>
        <pt x="781" y="64" on="1"/>
        <pt x="170" y="475" on="1"/>
      </contour>
    </TTGlyph>
    <TTGlyph name="guilsinglright" xMin="239" yMin="64" xMax="850" yMax="995">
      <component glyphName="guilsinglleft" x="1020" y="0" scalex="-0.999938964844" scaley="1.0" flags="0x1004"/>
    </TTGlyph>
    <TTGlyph name="h" xMin="155" yMin="0" xMax="1051" yMax="1488">
      <contour>
        <pt x="619" y="876" on="1"/>
        <pt x="471" y="876" on="0"/>
        <pt x="355" y="775" on="1"/>
        <pt x="355" y="0" on="1"/>
        <pt x="155" y="0" on="1"/>
        <pt x="155" y="1488" on="1"/>
        <pt x="355" y="1488" on="1"/>
        <pt x="355" y="921" on="1"/>
        <pt x="517" y="1048" on="0"/>
        <pt x="690" y="1048" on="1"/>
        <pt x="875" y="1048" on="0"/>
        <pt x="961" y="938" on="1"/>
        <pt x="1051" y="822" on="0"/>
        <pt x="1051" y="564" on="1"/>
        <pt x="1051" y="0" on="1"/>
        <pt x="851" y="0" on="1"/>
        <pt x="851" y="564" on="1"/>
        <pt x="851" y="812" on="0"/>
        <pt x="716" y="860" on="1"/>
        <pt x="673" y="876" on="0"/>
      </contour>
    </TTGlyph>
    <TTGlyph name="hbar" xMin="28" yMin="0" xMax="1051" yMax="1440">
      <contour>
        <pt x="619" y="879" on="1"/>
        <pt x="471" y="879" on="0"/>
        <pt x="355" y="778" on="1"/>
        <pt x="355" y="0" on="1"/>
        <pt x="155" y="0" on="1"/>
        <pt x="155" y="1173" on="1"/>
        <pt x="28" y="1173" on="1"/>
        <pt x="28" y="1309" on="1"/>
        <pt x="155" y="1309" on="1"/>
        <pt x="155" y="1440" on="1"/>
        <pt x="355" y="1440" on="1"/>
        <pt x="355" y="1309" on="1"/>
        <pt x="676" y="1309" on="1"/>
        <pt x="676" y="1173" on="1"/>
        <pt x="355" y="1173" on="1"/>
        <pt x="355" y="924" on="1"/>
        <pt x="517" y="1051" on="0"/>
        <pt x="690" y="1051" on="1"/>
        <pt x="875" y="1051" on="0"/>
        <pt x="961" y="940" on="1"/>
        <pt x="1051" y="826" on="0"/>
        <pt x="1051" y="567" on="1"/>
        <pt x="1051" y="0" on="1"/>
        <pt x="851" y="0" on="1"/>
        <pt x="851" y="567" on="1"/>
        <pt x="851" y="815" on="0"/>
        <pt x="716" y="864" on="1"/>
        <pt x="673" y="879" on="0"/>
      </contour>
    </TTGlyph>
    <TTGlyph name="hcircumflex" xMin="155" yMin="0" xMax="1051" yMax="1975">
      <component glyphName="h" x="0" y="0" flags="0x1204"/>
      <component glyphName="circumflex.cap" x="308" y="0" flags="0x1004"/>
    </TTGlyph>
    <TTGlyph name="hungarumlaut" xMin="228" yMin="1254" xMax="1112" yMax="1621">
      <contour>
        <pt x="886" y="1621" on="1"/>
        <pt x="1112" y="1621" on="1"/>
        <pt x="824" y="1254" on="1"/>
        <pt x="654" y="1254" on="1"/>
      </contour>
      <contour>
        <pt x="460" y="1621" on="1"/>
        <pt x="686" y="1621" on="1"/>
        <pt x="398" y="1254" on="1"/>
        <pt x="228" y="1254" on="1"/>
      </contour>
    </TTGlyph>
    <TTGlyph name="hungarumlaut.cap" xMin="25" yMin="1530" xMax="909" yMax="1897">
      <contour>
        <pt x="683" y="1897" on="1"/>
        <pt x="909" y="1897" on="1"/>
        <pt x="621" y="1530" on="1"/>
        <pt x="451" y="1530" on="1"/>
      </contour>
      <contour>
        <pt x="257" y="1897" on="1"/>
        <pt x="483" y="1897" on="1"/>
        <pt x="195" y="1530" on="1"/>
        <pt x="25" y="1530" on="1"/>
      </contour>
    </TTGlyph>
    <TTGlyph name="hyphen" xMin="170" yMin="518" xMax="850" yMax="672">
      <contour>
        <pt x="170" y="672" on="1"/>
        <pt x="850" y="672" on="1"/>
        <pt x="850" y="518" on="1"/>
        <pt x="170" y="518" on="1"/>
      </contour>
    </TTGlyph>
    <TTGlyph name="i" xMin="128" yMin="0" xMax="388" yMax="1450">
      <contour>
        <pt x="388" y="1275" on="0"/>
        <pt x="313" y="1214" on="0"/>
        <pt x="201" y="1214" on="0"/>
        <pt x="128" y="1275" on="0"/>
        <pt x="128" y="1390" on="0"/>
        <pt x="201" y="1450" on="0"/>
        <pt x="313" y="1450" on="0"/>
        <pt x="388" y="1390" on="0"/>
      </contour>
      <contour>
        <pt x="154" y="1032" on="1"/>
        <pt x="354" y="1032" on="1"/>
        <pt x="354" y="0" on="1"/>
        <pt x="154" y="0" on="1"/>
      </contour>
    </TTGlyph>
    <TTGlyph name="iacute" xMin="154" yMin="0" xMax="635" yMax="1621">
      <component glyphName="dotlessi" x="0" y="0" flags="0x1204"/>
      <component glyphName="acute" x="-340" y="0" flags="0x1004"/>
    </TTGlyph>
    <TTGlyph name="ibreve" xMin="-78" yMin="0" xMax="592" yMax="1527">
      <component glyphName="dotlessi" x="0" y="0" flags="0x1204"/>
      <component glyphName="breve" x="-253" y="0" flags="0x1004"/>
    </TTGlyph>
    <TTGlyph name="icircumflex" xMin="-67" yMin="0" xMax="581" yMax="1644">
      <component glyphName="dotlessi" x="0" y="0" flags="0x1204"/>
      <component glyphName="circumflex" x="-253" y="0" flags="0x1004"/>
    </TTGlyph>
    <TTGlyph name="idieresis" xMin="-94" yMin="0" xMax="618" yMax="1438">
      <component glyphName="dotlessi" x="0" y="0" flags="0x1204"/>
      <component glyphName="dieresis" x="-164" y="0" flags="0x1004"/>
    </TTGlyph>
    <TTGlyph name="igrave" xMin="-70" yMin="0" xMax="396" yMax="1621">
      <component glyphName="dotlessi" x="0" y="0" flags="0x1204"/>
      <component glyphName="grave" x="-162" y="0" flags="0x1004"/>
    </TTGlyph>
    <TTGlyph name="ij" xMin="130" yMin="-416" xMax="897" yMax="1451">
      <component glyphName="i" x="2" y="0" flags="0x1004"/>
      <component glyphName="j" x="509" y="0" flags="0x1004"/>
    </TTGlyph>
    <TTGlyph name="imacron" xMin="-14" yMin="0" xMax="528" yMax="1392">
      <component glyphName="dotlessi" x="0" y="0" flags="0x1204"/>
      <component glyphName="macron" x="-83" y="0" flags="0x1004"/>
    </TTGlyph>
    <TTGlyph name="infinity" xMin="176" yMin="262" xMax="1877" yMax="1111">
      <contour>
        <pt x="767" y="316" on="0"/>
        <pt x="644" y="262" on="0"/>
        <pt x="490" y="262" on="0"/>
        <pt x="367" y="308" on="0"/>
        <pt x="278" y="382" on="0"/>
        <pt x="222" y="476" on="0"/>
        <pt x="206" y="523" on="1"/>
        <pt x="176" y="607" on="0"/>
        <pt x="176" y="724" on="0"/>
        <pt x="189" y="815" on="0"/>
        <pt x="222" y="909" on="0"/>
        <pt x="278" y="999" on="0"/>
        <pt x="322" y="1034" on="1"/>
        <pt x="420" y="1111" on="0"/>
        <pt x="573" y="1111" on="1"/>
        <pt x="744" y="1111" on="0"/>
        <pt x="920" y="929" on="1"/>
        <pt x="967" y="881" on="0"/>
        <pt x="1005" y="838" on="1"/>
        <pt x="1005" y="839" on="1"/>
        <pt x="1033" y="808" on="1"/>
        <pt x="1141" y="928" on="1"/>
        <pt x="1310" y="1111" on="0"/>
        <pt x="1481" y="1111" on="1"/>
        <pt x="1763" y="1111" on="0"/>
        <pt x="1848" y="862" on="1"/>
        <pt x="1877" y="777" on="0"/>
        <pt x="1877" y="656" on="0"/>
        <pt x="1864" y="569" on="0"/>
        <pt x="1832" y="474" on="0"/>
        <pt x="1775" y="382" on="0"/>
        <pt x="1731" y="345" on="1"/>
        <pt x="1632" y="262" on="0"/>
        <pt x="1481" y="262" on="1"/>
        <pt x="1303" y="262" on="0"/>
        <pt x="1124" y="450" on="1"/>
        <pt x="1078" y="499" on="0"/>
        <pt x="1041" y="542" on="1"/>
        <pt x="1022" y="563" on="1"/>
        <pt x="1017" y="557" on="0"/>
        <pt x="1006" y="546" on="0"/>
        <pt x="964" y="496" on="0"/>
        <pt x="874" y="399" on="0"/>
      </contour>
      <contour>
        <pt x="1176" y="649" on="1"/>
        <pt x="1362" y="437" on="0"/>
        <pt x="1481" y="437" on="1"/>
        <pt x="1628" y="437" on="0"/>
        <pt x="1673" y="596" on="1"/>
        <pt x="1687" y="645" on="0"/>
        <pt x="1687" y="703" on="0"/>
        <pt x="1681" y="753" on="0"/>
        <pt x="1665" y="809" on="0"/>
        <pt x="1637" y="864" on="0"/>
        <pt x="1614" y="886" on="1"/>
        <pt x="1562" y="936" on="0"/>
        <pt x="1481" y="936" on="1"/>
        <pt x="1383" y="936" on="0"/>
        <pt x="1237" y="798" on="1"/>
        <pt x="1199" y="762" on="0"/>
        <pt x="1171" y="729" on="1"/>
        <pt x="1139" y="692" on="1"/>
      </contour>
      <contour>
        <pt x="463" y="466" on="0"/>
        <pt x="528" y="437" on="0"/>
        <pt x="612" y="437" on="0"/>
        <pt x="698" y="478" on="0"/>
        <pt x="740" y="510" on="1"/>
        <pt x="807" y="560" on="0"/>
        <pt x="886" y="647" on="1"/>
        <pt x="894" y="655" on="0"/>
        <pt x="907" y="672" on="0"/>
        <pt x="914" y="680" on="1"/>
        <pt x="872" y="729" on="1"/>
        <pt x="690" y="936" on="0"/>
        <pt x="573" y="936" on="1"/>
        <pt x="424" y="936" on="0"/>
        <pt x="380" y="784" on="1"/>
        <pt x="366" y="735" on="0"/>
        <pt x="366" y="672" on="0"/>
        <pt x="372" y="624" on="0"/>
        <pt x="388" y="568" on="0"/>
        <pt x="417" y="512" on="0"/>
      </contour>
    </TTGlyph>
    <TTGlyph name="integral" xMin="79" yMin="-520" xMax="767" yMax="1499">
      <contour>
        <pt x="79" y="-354" on="1"/>
        <pt x="120" y="-366" on="0"/>
        <pt x="221" y="-366" on="0"/>
        <pt x="284" y="-342" on="0"/>
        <pt x="302" y="-319" on="1"/>
        <pt x="335" y="-279" on="0"/>
        <pt x="335" y="-185" on="1"/>
        <pt x="335" y="1137" on="1"/>
        <pt x="335" y="1250" on="0"/>
        <pt x="362" y="1348" on="0"/>
        <pt x="405" y="1418" on="0"/>
        <pt x="442" y="1444" on="1"/>
        <pt x="522" y="1499" on="0"/>
        <pt x="673" y="1499" on="1"/>
        <pt x="732" y="1499" on="0"/>
        <pt x="767" y="1491" on="1"/>
        <pt x="767" y="1333" on="1"/>
        <pt x="724" y="1345" on="0"/>
        <pt x="623" y="1345" on="0"/>
        <pt x="560" y="1321" on="0"/>
        <pt x="542" y="1298" on="1"/>
        <pt x="509" y="1258" on="0"/>
        <pt x="509" y="1164" on="1"/>
        <pt x="509" y="-158" on="1"/>
        <pt x="509" y="-271" on="0"/>
        <pt x="482" y="-369" on="0"/>
        <pt x="439" y="-439" on="0"/>
        <pt x="402" y="-465" on="1"/>
        <pt x="322" y="-520" on="0"/>
        <pt x="171" y="-520" on="1"/>
        <pt x="111" y="-520" on="0"/>
        <pt x="79" y="-512" on="1"/>
      </contour>
    </TTGlyph>
    <TTGlyph name="iogonek" xMin="-59" yMin="-510" xMax="388" yMax="1450">
      <contour>
        <pt x="388" y="1275" on="0"/>
        <pt x="313" y="1214" on="0"/>
        <pt x="201" y="1214" on="0"/>
        <pt x="128" y="1275" on="0"/>
        <pt x="128" y="1390" on="0"/>
        <pt x="201" y="1450" on="0"/>
        <pt x="313" y="1450" on="0"/>
        <pt x="388" y="1390" on="0"/>
      </contour>
      <contour>
        <pt x="-59" y="-270" on="1"/>
        <pt x="-59" y="-107" on="0"/>
        <pt x="154" y="24" on="1"/>
        <pt x="154" y="1032" on="1"/>
        <pt x="354" y="1032" on="1"/>
        <pt x="354" y="0" on="1"/>
        <pt x="110" y="-108" on="0"/>
        <pt x="110" y="-242" on="1"/>
        <pt x="110" y="-292" on="0"/>
        <pt x="177" y="-359" on="0"/>
        <pt x="302" y="-359" on="0"/>
        <pt x="347" y="-340" on="1"/>
        <pt x="347" y="-488" on="1"/>
        <pt x="292" y="-510" on="0"/>
        <pt x="138" y="-510" on="0"/>
        <pt x="32" y="-466" on="0"/>
        <pt x="0" y="-432" on="1"/>
        <pt x="-59" y="-368" on="0"/>
      </contour>
    </TTGlyph>
    <TTGlyph name="itilde" xMin="-159" yMin="0" xMax="673" yMax="1524">
      <component glyphName="dotlessi" x="0" y="0" flags="0x1204"/>
      <component glyphName="tilde" x="-253" y="0" flags="0x1004"/>
    </TTGlyph>
    <TTGlyph name="j" xMin="-59" yMin="-416" xMax="388" yMax="1451">
      <contour>
        <pt x="388" y="1276" on="0"/>
        <pt x="313" y="1215" on="0"/>
        <pt x="201" y="1215" on="0"/>
        <pt x="128" y="1276" on="0"/>
        <pt x="128" y="1391" on="0"/>
        <pt x="201" y="1451" on="0"/>
        <pt x="313" y="1451" on="0"/>
        <pt x="388" y="1391" on="0"/>
      </contour>
      <contour>
        <pt x="156" y="1032" on="1"/>
        <pt x="356" y="1032" on="1"/>
        <pt x="356" y="-20" on="1"/>
        <pt x="356" y="-291" on="0"/>
        <pt x="186" y="-381" on="1"/>
        <pt x="119" y="-416" on="0"/>
        <pt x="13" y="-416" on="1"/>
        <pt x="-4" y="-416" on="0"/>
        <pt x="-22" y="-414" on="1"/>
        <pt x="-59" y="-410" on="1"/>
        <pt x="-59" y="-256" on="1"/>
        <pt x="-32" y="-264" on="0"/>
        <pt x="36" y="-264" on="0"/>
        <pt x="97" y="-240" on="0"/>
        <pt x="117" y="-212" on="1"/>
        <pt x="156" y="-156" on="0"/>
        <pt x="156" y="-19" on="1"/>
      </contour>
    </TTGlyph>
    <TTGlyph name="jcircumflex" xMin="-63" yMin="-418" xMax="585" yMax="1644">
      <component glyphName="dotlessj" x="0" y="0" flags="0x1204"/>
      <component glyphName="circumflex" x="-249" y="0" flags="0x1004"/>
    </TTGlyph>
    <TTGlyph name="k" xMin="170" yMin="0" xMax="1049" yMax="1487">
      <contour>
        <pt x="170" y="1487" on="1"/>
        <pt x="370" y="1487" on="1"/>
        <pt x="370" y="570" on="1"/>
        <pt x="788" y="1032" on="1"/>
        <pt x="1026" y="1032" on="1"/>
        <pt x="581" y="564" on="1"/>
        <pt x="1049" y="0" on="1"/>
        <pt x="805" y="0" on="1"/>
        <pt x="370" y="526" on="1"/>
        <pt x="370" y="0" on="1"/>
        <pt x="170" y="0" on="1"/>
      </contour>
    </TTGlyph>
    <TTGlyph name="kcommaaccent" xMin="170" yMin="-510" xMax="1049" yMax="1487">
      <component glyphName="k" x="0" y="0" flags="0x1204"/>
      <component glyphName="commaaccent" x="352" y="0" flags="0x1004"/>
    </TTGlyph>
    <TTGlyph name="kgreenlandic" xMin="170" yMin="0" xMax="1049" yMax="1033">
      <contour>
        <pt x="170" y="1033" on="1"/>
        <pt x="370" y="1033" on="1"/>
        <pt x="370" y="570" on="1"/>
        <pt x="788" y="1032" on="1"/>
        <pt x="1026" y="1032" on="1"/>
        <pt x="581" y="564" on="1"/>
        <pt x="1049" y="0" on="1"/>
        <pt x="805" y="0" on="1"/>
        <pt x="370" y="526" on="1"/>
        <pt x="370" y="0" on="1"/>
        <pt x="170" y="0" on="1"/>
      </contour>
    </TTGlyph>
    <TTGlyph name="l" xMin="198" yMin="-6" xMax="613" yMax="1488">
      <contour>
        <pt x="198" y="1488" on="1"/>
        <pt x="398" y="1488" on="1"/>
        <pt x="398" y="391" on="1"/>
        <pt x="398" y="193" on="0"/>
        <pt x="488" y="158" on="1"/>
        <pt x="518" y="146" on="0"/>
        <pt x="586" y="146" on="0"/>
        <pt x="613" y="154" on="1"/>
        <pt x="613" y="0" on="1"/>
        <pt x="576" y="-4" on="1"/>
        <pt x="558" y="-6" on="0"/>
        <pt x="541" y="-6" on="1"/>
        <pt x="349" y="-6" on="0"/>
        <pt x="264" y="120" on="1"/>
        <pt x="198" y="219" on="0"/>
        <pt x="198" y="390" on="1"/>
      </contour>
    </TTGlyph>
    <TTGlyph name="lacute" xMin="32" yMin="-6" xMax="613" yMax="1897">
      <component glyphName="l" x="0" y="0" flags="0x1204"/>
      <component glyphName="acute.cap" x="-89" y="0" flags="0x1004"/>
    </TTGlyph>
    <TTGlyph name="lcaron" xMin="198" yMin="-6" xMax="794" yMax="1488">
      <contour>
        <pt x="510" y="1043" on="1"/>
        <pt x="604" y="1043" on="0"/>
        <pt x="618" y="1168" on="1"/>
        <pt x="622" y="1210" on="0"/>
        <pt x="622" y="1266" on="1"/>
        <pt x="622" y="1435" on="1"/>
        <pt x="794" y="1435" on="1"/>
        <pt x="794" y="1268" on="1"/>
        <pt x="794" y="1068" on="0"/>
        <pt x="740" y="984" on="1"/>
        <pt x="676" y="886" on="0"/>
        <pt x="510" y="886" on="1"/>
      </contour>
      <contour>
        <pt x="198" y="1488" on="1"/>
        <pt x="398" y="1488" on="1"/>
        <pt x="398" y="391" on="1"/>
        <pt x="398" y="193" on="0"/>
        <pt x="488" y="158" on="1"/>
        <pt x="518" y="146" on="0"/>
        <pt x="586" y="146" on="0"/>
        <pt x="613" y="154" on="1"/>
        <pt x="613" y="0" on="1"/>
        <pt x="576" y="-4" on="1"/>
        <pt x="558" y="-6" on="0"/>
        <pt x="541" y="-6" on="1"/>
        <pt x="349" y="-6" on="0"/>
        <pt x="264" y="120" on="1"/>
        <pt x="198" y="219" on="0"/>
        <pt x="198" y="390" on="1"/>
      </contour>
    </TTGlyph>
    <TTGlyph name="lcommaaccent" xMin="198" yMin="-510" xMax="613" yMax="1488">
      <component glyphName="l" x="0" y="0" flags="0x1204"/>
      <component glyphName="commaaccent" x="158" y="0" flags="0x1004"/>
    </TTGlyph>
    <TTGlyph name="ldot" xMin="198" yMin="-6" xMax="796" yMax="1488">
      <contour>
        <pt x="796" y="711" on="0"/>
        <pt x="724" y="653" on="0"/>
        <pt x="618" y="653" on="0"/>
        <pt x="549" y="711" on="0"/>
        <pt x="549" y="821" on="0"/>
        <pt x="618" y="877" on="0"/>
        <pt x="724" y="877" on="0"/>
        <pt x="796" y="821" on="0"/>
      </contour>
      <contour>
        <pt x="198" y="1488" on="1"/>
        <pt x="398" y="1488" on="1"/>
        <pt x="398" y="391" on="1"/>
        <pt x="398" y="193" on="0"/>
        <pt x="488" y="158" on="1"/>
        <pt x="518" y="146" on="0"/>
        <pt x="586" y="146" on="0"/>
        <pt x="613" y="154" on="1"/>
        <pt x="613" y="0" on="1"/>
        <pt x="576" y="-4" on="1"/>
        <pt x="558" y="-6" on="0"/>
        <pt x="541" y="-6" on="1"/>
        <pt x="349" y="-6" on="0"/>
        <pt x="264" y="120" on="1"/>
        <pt x="198" y="219" on="0"/>
        <pt x="198" y="390" on="1"/>
      </contour>
    </TTGlyph>
    <TTGlyph name="less" xMin="71" yMin="107" xMax="1074" yMax="1074">
      <contour>
        <pt x="71" y="642" on="1"/>
        <pt x="1074" y="1074" on="1"/>
        <pt x="1074" y="891" on="1"/>
        <pt x="330" y="590" on="1"/>
        <pt x="1074" y="290" on="1"/>
        <pt x="1074" y="107" on="1"/>
        <pt x="71" y="539" on="1"/>
      </contour>
    </TTGlyph>
    <TTGlyph name="lessequal" xMin="70" yMin="1" xMax="1074" yMax="1249">
      <contour>
        <pt x="71" y="817" on="1"/>
        <pt x="1074" y="1249" on="1"/>
        <pt x="1074" y="1066" on="1"/>
        <pt x="330" y="765" on="1"/>
        <pt x="1074" y="465" on="1"/>
        <pt x="1074" y="282" on="1"/>
        <pt x="71" y="714" on="1"/>
      </contour>
      <contour>
        <pt x="70" y="155" on="1"/>
        <pt x="1073" y="155" on="1"/>
        <pt x="1073" y="1" on="1"/>
        <pt x="70" y="1" on="1"/>
      </contour>
    </TTGlyph>
    <TTGlyph name="logicalnot" xMin="97" yMin="340" xMax="1020" yMax="850">
      <contour>
        <pt x="97" y="850" on="1"/>
        <pt x="1020" y="850" on="1"/>
        <pt x="1020" y="340" on="1"/>
        <pt x="866" y="340" on="1"/>
        <pt x="866" y="686" on="1"/>
        <pt x="97" y="686" on="1"/>
      </contour>
    </TTGlyph>
    <TTGlyph name="lozenge" xMin="88" yMin="0" xMax="1108" yMax="1360">
      <contour>
        <pt x="88" y="680" on="1"/>
        <pt x="538" y="1360" on="1"/>
        <pt x="658" y="1360" on="1"/>
        <pt x="1108" y="681" on="1"/>
        <pt x="658" y="0" on="1"/>
        <pt x="538" y="0" on="1"/>
      </contour>
      <contour>
        <pt x="898" y="681" on="1"/>
        <pt x="598" y="1145" on="1"/>
        <pt x="298" y="680" on="1"/>
        <pt x="598" y="215" on="1"/>
      </contour>
    </TTGlyph>
    <TTGlyph name="lslash" xMin="18" yMin="-6" xMax="613" yMax="1488">
      <contour>
        <pt x="198" y="705" on="1"/>
        <pt x="18" y="587" on="1"/>
        <pt x="18" y="759" on="1"/>
        <pt x="198" y="877" on="1"/>
        <pt x="198" y="1488" on="1"/>
        <pt x="398" y="1488" on="1"/>
        <pt x="398" y="1009" on="1"/>
        <pt x="584" y="1131" on="1"/>
        <pt x="584" y="958" on="1"/>
        <pt x="398" y="836" on="1"/>
        <pt x="398" y="391" on="1"/>
        <pt x="398" y="193" on="0"/>
        <pt x="488" y="158" on="1"/>
        <pt x="518" y="146" on="0"/>
        <pt x="586" y="146" on="0"/>
        <pt x="613" y="154" on="1"/>
        <pt x="613" y="0" on="1"/>
        <pt x="576" y="-4" on="1"/>
        <pt x="558" y="-6" on="0"/>
        <pt x="541" y="-6" on="1"/>
        <pt x="349" y="-6" on="0"/>
        <pt x="264" y="120" on="1"/>
        <pt x="198" y="219" on="0"/>
        <pt x="198" y="390" on="1"/>
      </contour>
    </TTGlyph>
    <TTGlyph name="m" xMin="160" yMin="0" xMax="1712" yMax="1048">
      <contour>
        <pt x="359" y="775" on="1"/>
        <pt x="360" y="0" on="1"/>
        <pt x="160" y="0" on="1"/>
        <pt x="160" y="1032" on="1"/>
        <pt x="344" y="1032" on="1"/>
        <pt x="358" y="919" on="1"/>
        <pt x="468" y="1011" on="0"/>
        <pt x="614" y="1039" on="1"/>
        <pt x="661" y="1048" on="0"/>
        <pt x="706" y="1048" on="1"/>
        <pt x="893" y="1048" on="0"/>
        <pt x="988" y="890" on="1"/>
        <pt x="1162" y="1048" on="0"/>
        <pt x="1352" y="1048" on="1"/>
        <pt x="1540" y="1048" on="0"/>
        <pt x="1626" y="935" on="1"/>
        <pt x="1712" y="820" on="0"/>
        <pt x="1712" y="555" on="1"/>
        <pt x="1712" y="0" on="1"/>
        <pt x="1512" y="0" on="1"/>
        <pt x="1512" y="548" on="1"/>
        <pt x="1512" y="808" on="0"/>
        <pt x="1387" y="859" on="1"/>
        <pt x="1345" y="876" on="0"/>
        <pt x="1289" y="876" on="1"/>
        <pt x="1155" y="876" on="0"/>
        <pt x="1043" y="780" on="1"/>
        <pt x="1043" y="0" on="1"/>
        <pt x="843" y="0" on="1"/>
        <pt x="843" y="556" on="1"/>
        <pt x="843" y="734" on="0"/>
        <pt x="790" y="806" on="1"/>
        <pt x="739" y="876" on="0"/>
        <pt x="476" y="876" on="0"/>
      </contour>
    </TTGlyph>
    <TTGlyph name="macron" xMin="69" yMin="1240" xMax="611" yMax="1392">
      <contour>
        <pt x="69" y="1392" on="1"/>
        <pt x="611" y="1392" on="1"/>
        <pt x="611" y="1240" on="1"/>
        <pt x="69" y="1240" on="1"/>
      </contour>
    </TTGlyph>
    <TTGlyph name="macron.cap" xMin="70" yMin="1530" xMax="612" yMax="1682">
      <contour>
        <pt x="70" y="1682" on="1"/>
        <pt x="612" y="1682" on="1"/>
        <pt x="612" y="1530" on="1"/>
        <pt x="70" y="1530" on="1"/>
      </contour>
    </TTGlyph>
    <TTGlyph name="minus" xMin="127" yMin="519" xMax="1070" yMax="673">
      <contour>
        <pt x="127" y="673" on="1"/>
        <pt x="1070" y="673" on="1"/>
        <pt x="1070" y="519" on="1"/>
        <pt x="127" y="519" on="1"/>
      </contour>
    </TTGlyph>
    <TTGlyph name="mu" xMin="167" yMin="-340" xMax="1033" yMax="1032">
      <contour>
        <pt x="576" y="0" on="1"/>
        <pt x="435" y="0" on="0"/>
        <pt x="331" y="95" on="1"/>
        <pt x="353" y="-340" on="1"/>
        <pt x="167" y="-340" on="1"/>
        <pt x="167" y="1032" on="1"/>
        <pt x="353" y="1032" on="1"/>
        <pt x="353" y="456" on="1"/>
        <pt x="353" y="294" on="0"/>
        <pt x="434" y="214" on="1"/>
        <pt x="494" y="155" on="0"/>
        <pt x="643" y="155" on="0"/>
        <pt x="734" y="189" on="0"/>
        <pt x="766" y="214" on="1"/>
        <pt x="824" y="261" on="0"/>
        <pt x="847" y="319" on="1"/>
        <pt x="847" y="1032" on="1"/>
        <pt x="1033" y="1032" on="1"/>
        <pt x="1033" y="0" on="1"/>
        <pt x="867" y="0" on="1"/>
        <pt x="880" y="170" on="1"/>
        <pt x="876" y="170" on="1"/>
        <pt x="793" y="50" on="0"/>
        <pt x="660" y="12" on="1"/>
        <pt x="618" y="0" on="0"/>
      </contour>
    </TTGlyph>
    <TTGlyph name="multiply" xMin="147" yMin="139" xMax="1043" yMax="1035">
      <contour>
        <pt x="484" y="587" on="1"/>
        <pt x="147" y="924" on="1"/>
        <pt x="258" y="1035" on="1"/>
        <pt x="595" y="698" on="1"/>
        <pt x="932" y="1035" on="1"/>
        <pt x="1043" y="924" on="1"/>
        <pt x="706" y="587" on="1"/>
        <pt x="1043" y="250" on="1"/>
        <pt x="932" y="139" on="1"/>
        <pt x="595" y="476" on="1"/>
        <pt x="258" y="139" on="1"/>
        <pt x="147" y="250" on="1"/>
      </contour>
    </TTGlyph>
    <TTGlyph name="n" xMin="155" yMin="0" xMax="1051" yMax="1048">
      <contour>
        <pt x="620" y="876" on="1"/>
        <pt x="471" y="876" on="0"/>
        <pt x="355" y="775" on="1"/>
        <pt x="355" y="0" on="1"/>
        <pt x="155" y="0" on="1"/>
        <pt x="155" y="1032" on="1"/>
        <pt x="340" y="1032" on="1"/>
        <pt x="354" y="920" on="1"/>
        <pt x="517" y="1048" on="0"/>
        <pt x="691" y="1048" on="1"/>
        <pt x="875" y="1048" on="0"/>
        <pt x="961" y="938" on="1"/>
        <pt x="1051" y="822" on="0"/>
        <pt x="1051" y="564" on="1"/>
        <pt x="1051" y="0" on="1"/>
        <pt x="851" y="0" on="1"/>
        <pt x="851" y="564" on="1"/>
        <pt x="851" y="812" on="0"/>
        <pt x="717" y="860" on="1"/>
        <pt x="674" y="876" on="0"/>
      </contour>
    </TTGlyph>
    <TTGlyph name="nacute" xMin="155" yMin="0" xMax="1051" yMax="1621">
      <component glyphName="n" x="0" y="0" flags="0x1204"/>
      <component glyphName="acute" x="3" y="0" flags="0x1004"/>
    </TTGlyph>
    <TTGlyph name="ncaron" xMin="155" yMin="0" xMax="1051" yMax="1644">
      <component glyphName="n" x="0" y="0" flags="0x1204"/>
      <component glyphName="caron" x="90" y="0" flags="0x1004"/>
    </TTGlyph>
    <TTGlyph name="ncommaaccent" xMin="155" yMin="-510" xMax="1051" yMax="1048">
      <component glyphName="n" x="0" y="0" flags="0x1204"/>
      <component glyphName="commaaccent" x="351" y="0" flags="0x1004"/>
    </TTGlyph>
    <TTGlyph name="nine" xMin="137" yMin="-17" xMax="1202" yMax="1359">
      <component glyphName="six" x="1354" y="1343" scale="-0.999938964844" flags="0x1004"/>
    </TTGlyph>
    <TTGlyph name="nonbreakingspace" xMin="0" yMin="0" xMax="0" yMax="0">
      <component glyphName="space" x="0" y="0" flags="0x1204"/>
    </TTGlyph>
    <TTGlyph name="notequal" xMin="125" yMin="0" xMax="1068" yMax="1190">
      <contour>
        <pt x="360" y="346" on="1"/>
        <pt x="125" y="346" on="1"/>
        <pt x="125" y="500" on="1"/>
        <pt x="449" y="500" on="1"/>
        <pt x="560" y="692" on="1"/>
        <pt x="125" y="692" on="1"/>
        <pt x="125" y="846" on="1"/>
        <pt x="649" y="846" on="1"/>
        <pt x="849" y="1190" on="1"/>
        <pt x="1011" y="1190" on="1"/>
        <pt x="811" y="846" on="1"/>
        <pt x="1068" y="846" on="1"/>
        <pt x="1068" y="692" on="1"/>
        <pt x="722" y="692" on="1"/>
        <pt x="611" y="500" on="1"/>
        <pt x="1068" y="500" on="1"/>
        <pt x="1068" y="346" on="1"/>
        <pt x="522" y="346" on="1"/>
        <pt x="322" y="0" on="1"/>
        <pt x="160" y="0" on="1"/>
      </contour>
    </TTGlyph>
    <TTGlyph name="ntilde" xMin="155" yMin="0" xMax="1051" yMax="1524">
      <component glyphName="n" x="0" y="0" flags="0x1204"/>
      <component glyphName="tilde" x="90" y="0" flags="0x1004"/>
    </TTGlyph>
    <TTGlyph name="numbersign" xMin="122" yMin="0" xMax="1386" yMax="1360">
      <contour>
        <pt x="356" y="340" on="1"/>
        <pt x="122" y="340" on="1"/>
        <pt x="122" y="488" on="1"/>
        <pt x="384" y="488" on="1"/>
        <pt x="456" y="872" on="1"/>
        <pt x="210" y="872" on="1"/>
        <pt x="210" y="1020" on="1"/>
        <pt x="484" y="1020" on="1"/>
        <pt x="548" y="1360" on="1"/>
        <pt x="710" y="1360" on="1"/>
        <pt x="646" y="1020" on="1"/>
        <pt x="992" y="1020" on="1"/>
        <pt x="1056" y="1360" on="1"/>
        <pt x="1218" y="1360" on="1"/>
        <pt x="1153" y="1020" on="1"/>
        <pt x="1386" y="1020" on="1"/>
        <pt x="1386" y="872" on="1"/>
        <pt x="1125" y="872" on="1"/>
        <pt x="1053" y="488" on="1"/>
        <pt x="1300" y="488" on="1"/>
        <pt x="1300" y="340" on="1"/>
        <pt x="1025" y="340" on="1"/>
        <pt x="961" y="0" on="1"/>
        <pt x="799" y="0" on="1"/>
        <pt x="863" y="340" on="1"/>
        <pt x="518" y="340" on="1"/>
        <pt x="454" y="0" on="1"/>
        <pt x="292" y="0" on="1"/>
      </contour>
      <contour>
        <pt x="891" y="488" on="1"/>
        <pt x="964" y="872" on="1"/>
        <pt x="618" y="872" on="1"/>
        <pt x="546" y="488" on="1"/>
      </contour>
    </TTGlyph>
    <TTGlyph name="o" xMin="88" yMin="-16" xMax="1103" yMax="1053">
      <contour>
        <pt x="88" y="518" on="1"/>
        <pt x="88" y="761" on="0"/>
        <pt x="243" y="912" on="1"/>
        <pt x="388" y="1053" on="0"/>
        <pt x="602" y="1053" on="1"/>
        <pt x="812" y="1053" on="0"/>
        <pt x="953" y="912" on="1"/>
        <pt x="1103" y="762" on="0"/>
        <pt x="1103" y="518" on="1"/>
        <pt x="1103" y="275" on="0"/>
        <pt x="952" y="126" on="1"/>
        <pt x="809" y="-16" on="0"/>
        <pt x="601" y="-16" on="1"/>
        <pt x="390" y="-16" on="0"/>
        <pt x="243" y="126" on="1"/>
        <pt x="88" y="275" on="0"/>
      </contour>
      <contour>
        <pt x="296" y="518" on="1"/>
        <pt x="296" y="262" on="0"/>
        <pt x="460" y="170" on="1"/>
        <pt x="518" y="138" on="0"/>
        <pt x="680" y="138" on="0"/>
        <pt x="792" y="203" on="0"/>
        <pt x="828" y="256" on="1"/>
        <pt x="895" y="358" on="0"/>
        <pt x="895" y="518" on="1"/>
        <pt x="895" y="772" on="0"/>
        <pt x="734" y="866" on="1"/>
        <pt x="678" y="899" on="0"/>
        <pt x="522" y="899" on="0"/>
        <pt x="407" y="834" on="0"/>
        <pt x="370" y="781" on="1"/>
        <pt x="296" y="677" on="0"/>
      </contour>
    </TTGlyph>
    <TTGlyph name="oacute" xMin="88" yMin="-16" xMax="1103" yMax="1621">
      <component glyphName="o" x="0" y="0" flags="0x1204"/>
      <component glyphName="acute" x="-1" y="0" flags="0x1004"/>
    </TTGlyph>
    <TTGlyph name="obreve" xMin="88" yMin="-16" xMax="1103" yMax="1527">
      <component glyphName="o" x="0" y="0" flags="0x1204"/>
      <component glyphName="breve" x="85" y="0" flags="0x1004"/>
    </TTGlyph>
    <TTGlyph name="ocircumflex" xMin="88" yMin="-16" xMax="1103" yMax="1644">
      <component glyphName="o" x="0" y="0" flags="0x1204"/>
      <component glyphName="circumflex" x="85" y="0" flags="0x1004"/>
    </TTGlyph>
    <TTGlyph name="odieresis" xMin="88" yMin="-16" xMax="1103" yMax="1438">
      <component glyphName="o" x="0" y="0" flags="0x1204"/>
      <component glyphName="dieresis" x="174" y="0" flags="0x1004"/>
    </TTGlyph>
    <TTGlyph name="oe" xMin="71" yMin="-16" xMax="1628" yMax="1053">
      <contour>
        <pt x="1304" y="-16" on="1"/>
        <pt x="1006" y="-16" on="0"/>
        <pt x="881" y="170" on="1"/>
        <pt x="819" y="79" on="0"/>
        <pt x="637" y="-16" on="0"/>
        <pt x="439" y="-16" on="0"/>
        <pt x="272" y="57" on="0"/>
        <pt x="209" y="126" on="1"/>
        <pt x="71" y="276" on="0"/>
        <pt x="71" y="518" on="1"/>
        <pt x="71" y="762" on="0"/>
        <pt x="210" y="912" on="1"/>
        <pt x="339" y="1053" on="0"/>
        <pt x="532" y="1053" on="1"/>
        <pt x="758" y="1053" on="0"/>
        <pt x="885" y="861" on="1"/>
        <pt x="1008" y="1048" on="0"/>
        <pt x="1225" y="1048" on="1"/>
        <pt x="1421" y="1048" on="0"/>
        <pt x="1528" y="916" on="1"/>
        <pt x="1628" y="795" on="0"/>
        <pt x="1628" y="587" on="1"/>
        <pt x="1628" y="509" on="1"/>
        <pt x="981" y="509" on="1"/>
        <pt x="981" y="225" on="0"/>
        <pt x="1188" y="163" on="1"/>
        <pt x="1238" y="148" on="0"/>
        <pt x="1461" y="148" on="0"/>
        <pt x="1571" y="179" on="1"/>
        <pt x="1571" y="10" on="1"/>
        <pt x="1461" y="-16" on="0"/>
      </contour>
      <contour>
        <pt x="413" y="170" on="1"/>
        <pt x="461" y="138" on="0"/>
        <pt x="600" y="138" on="0"/>
        <pt x="697" y="203" on="0"/>
        <pt x="727" y="256" on="1"/>
        <pt x="785" y="360" on="0"/>
        <pt x="785" y="518" on="1"/>
        <pt x="785" y="676" on="0"/>
        <pt x="724" y="781" on="1"/>
        <pt x="657" y="899" on="0"/>
        <pt x="532" y="899" on="1"/>
        <pt x="406" y="899" on="0"/>
        <pt x="338" y="781" on="1"/>
        <pt x="279" y="678" on="0"/>
        <pt x="279" y="518" on="1"/>
        <pt x="279" y="261" on="0"/>
      </contour>
      <contour>
        <pt x="1428" y="656" on="1"/>
        <pt x="1428" y="814" on="0"/>
        <pt x="1312" y="873" on="1"/>
        <pt x="1270" y="894" on="0"/>
        <pt x="1159" y="894" on="0"/>
        <pt x="1073" y="854" on="0"/>
        <pt x="1043" y="821" on="1"/>
        <pt x="981" y="753" on="0"/>
        <pt x="981" y="656" on="1"/>
      </contour>
    </TTGlyph>
    <TTGlyph name="ogonek" xMin="142" yMin="-510" xMax="559" yMax="56">
      <contour>
        <pt x="548" y="-488" on="1"/>
        <pt x="493" y="-510" on="0"/>
        <pt x="339" y="-510" on="0"/>
        <pt x="233" y="-466" on="0"/>
        <pt x="201" y="-432" on="1"/>
        <pt x="142" y="-368" on="0"/>
        <pt x="142" y="-270" on="1"/>
        <pt x="142" y="-142" on="0"/>
        <pt x="272" y="-28" on="1"/>
        <pt x="321" y="15" on="0"/>
        <pt x="396" y="56" on="1"/>
        <pt x="521" y="34" on="1"/>
        <pt x="559" y="10" on="1"/>
        <pt x="311" y="-110" on="0"/>
        <pt x="311" y="-242" on="1"/>
        <pt x="311" y="-324" on="0"/>
        <pt x="382" y="-350" on="1"/>
        <pt x="407" y="-359" on="0"/>
        <pt x="503" y="-359" on="0"/>
        <pt x="548" y="-340" on="1"/>
      </contour>
    </TTGlyph>
    <TTGlyph name="ograve" xMin="88" yMin="-16" xMax="1103" yMax="1621">
      <component glyphName="o" x="0" y="0" flags="0x1204"/>
      <component glyphName="grave" x="176" y="0" flags="0x1004"/>
    </TTGlyph>
    <TTGlyph name="ohungarumlaut" xMin="88" yMin="-16" xMax="1197" yMax="1621">
      <component glyphName="o" x="0" y="0" flags="0x1204"/>
      <component glyphName="hungarumlaut" x="85" y="0" flags="0x1004"/>
    </TTGlyph>
    <TTGlyph name="omacron" xMin="88" yMin="-16" xMax="1103" yMax="1392">
      <component glyphName="o" x="0" y="0" flags="0x1204"/>
      <component glyphName="macron" x="255" y="0" flags="0x1004"/>
    </TTGlyph>
    <TTGlyph name="one" xMin="128" yMin="0" xMax="686" yMax="1360">
      <contour>
        <pt x="487" y="1085" on="1"/>
        <pt x="128" y="840" on="1"/>
        <pt x="128" y="1042" on="1"/>
        <pt x="575" y="1360" on="1"/>
        <pt x="686" y="1360" on="1"/>
        <pt x="686" y="0" on="1"/>
        <pt x="487" y="0" on="1"/>
      </contour>
    </TTGlyph>
    <TTGlyph name="onehalf" xMin="124" yMin="-338" xMax="779" yMax="1538">
      <component glyphName="twosuperior" x="30" y="-848" flags="0x1204"/>
      <component glyphName="onesuperior" x="108" y="170" flags="0x1004"/>
    </TTGlyph>
    <TTGlyph name="onequarter" xMin="54" yMin="-341" xMax="783" yMax="1538">
      <contour>
        <pt x="392" y="510" on="1"/>
        <pt x="598" y="510" on="1"/>
        <pt x="279" y="-7" on="1"/>
        <pt x="507" y="-7" on="1"/>
        <pt x="507" y="170" on="1"/>
        <pt x="679" y="170" on="1"/>
        <pt x="679" y="-7" on="1"/>
        <pt x="783" y="-7" on="1"/>
        <pt x="783" y="-144" on="1"/>
        <pt x="679" y="-144" on="1"/>
        <pt x="679" y="-341" on="1"/>
        <pt x="507" y="-341" on="1"/>
        <pt x="507" y="-144" on="1"/>
        <pt x="54" y="-144" on="1"/>
        <pt x="54" y="-69" on="1"/>
      </contour>
      <contour>
        <pt x="414" y="1303" on="1"/>
        <pt x="163" y="1130" on="1"/>
        <pt x="163" y="1310" on="1"/>
        <pt x="481" y="1538" on="1"/>
        <pt x="585" y="1538" on="1"/>
        <pt x="585" y="679" on="1"/>
        <pt x="414" y="679" on="1"/>
      </contour>
    </TTGlyph>
    <TTGlyph name="onesuperior" xMin="55" yMin="509" xMax="477" yMax="1368">
      <contour>
        <pt x="306" y="1133" on="1"/>
        <pt x="55" y="960" on="1"/>
        <pt x="55" y="1140" on="1"/>
        <pt x="373" y="1368" on="1"/>
        <pt x="477" y="1368" on="1"/>
        <pt x="477" y="509" on="1"/>
        <pt x="306" y="509" on="1"/>
      </contour>
    </TTGlyph>
    <TTGlyph name="ordfeminine" xMin="109" yMin="503" xMax="850" yMax="1369">
      <contour>
        <pt x="540" y="516" on="1"/>
        <pt x="499" y="503" on="0"/>
        <pt x="394" y="503" on="0"/>
        <pt x="275" y="545" on="0"/>
        <pt x="225" y="592" on="1"/>
        <pt x="109" y="701" on="0"/>
        <pt x="109" y="903" on="1"/>
        <pt x="109" y="1133" on="0"/>
        <pt x="266" y="1260" on="1"/>
        <pt x="402" y="1369" on="0"/>
        <pt x="596" y="1369" on="1"/>
        <pt x="716" y="1369" on="0"/>
        <pt x="769" y="1363" on="1"/>
        <pt x="850" y="1354" on="1"/>
        <pt x="850" y="510" on="1"/>
        <pt x="699" y="510" on="1"/>
        <pt x="692" y="621" on="1"/>
        <pt x="641" y="546" on="0"/>
      </contour>
      <contour>
        <pt x="679" y="1217" on="1"/>
        <pt x="642" y="1225" on="0"/>
        <pt x="520" y="1225" on="0"/>
        <pt x="411" y="1188" on="0"/>
        <pt x="372" y="1148" on="1"/>
        <pt x="289" y="1066" on="0"/>
        <pt x="289" y="903" on="1"/>
        <pt x="289" y="761" on="0"/>
        <pt x="358" y="692" on="1"/>
        <pt x="411" y="639" on="0"/>
        <pt x="487" y="639" on="1"/>
        <pt x="614" y="639" on="0"/>
        <pt x="679" y="761" on="1"/>
      </contour>
    </TTGlyph>
    <TTGlyph name="ordmasculine" xMin="103" yMin="503" xMax="918" yMax="1369">
      <contour>
        <pt x="510" y="503" on="1"/>
        <pt x="426" y="503" on="0"/>
        <pt x="277" y="559" on="0"/>
        <pt x="222" y="614" on="1"/>
        <pt x="103" y="731" on="0"/>
        <pt x="103" y="935" on="1"/>
        <pt x="103" y="1139" on="0"/>
        <pt x="222" y="1258" on="1"/>
        <pt x="333" y="1369" on="0"/>
        <pt x="510" y="1369" on="1"/>
        <pt x="686" y="1369" on="0"/>
        <pt x="798" y="1258" on="1"/>
        <pt x="918" y="1140" on="0"/>
        <pt x="918" y="935" on="1"/>
        <pt x="918" y="731" on="0"/>
        <pt x="798" y="614" on="1"/>
        <pt x="686" y="503" on="0"/>
      </contour>
      <contour>
        <pt x="404" y="666" on="1"/>
        <pt x="448" y="641" on="0"/>
        <pt x="573" y="641" on="0"/>
        <pt x="660" y="690" on="0"/>
        <pt x="688" y="730" on="1"/>
        <pt x="740" y="808" on="0"/>
        <pt x="740" y="935" on="1"/>
        <pt x="740" y="1134" on="0"/>
        <pt x="613" y="1206" on="1"/>
        <pt x="570" y="1231" on="0"/>
        <pt x="448" y="1231" on="0"/>
        <pt x="361" y="1182" on="0"/>
        <pt x="334" y="1142" on="1"/>
        <pt x="281" y="1064" on="0"/>
        <pt x="281" y="935" on="1"/>
        <pt x="281" y="735" on="0"/>
      </contour>
    </TTGlyph>
    <TTGlyph name="oslash" xMin="76" yMin="-104" xMax="1123" yMax="1136">
      <contour>
        <pt x="579" y="-16" on="1"/>
        <pt x="456" y="-16" on="0"/>
        <pt x="333" y="56" on="1"/>
        <pt x="203" y="-104" on="1"/>
        <pt x="76" y="0" on="1"/>
        <pt x="208" y="163" on="1"/>
        <pt x="88" y="307" on="0"/>
        <pt x="88" y="518" on="1"/>
        <pt x="88" y="761" on="0"/>
        <pt x="243" y="912" on="1"/>
        <pt x="388" y="1053" on="0"/>
        <pt x="602" y="1053" on="1"/>
        <pt x="748" y="1053" on="0"/>
        <pt x="868" y="978" on="1"/>
        <pt x="996" y="1136" on="1"/>
        <pt x="1123" y="1032" on="1"/>
        <pt x="991" y="868" on="1"/>
        <pt x="1103" y="726" on="0"/>
        <pt x="1103" y="518" on="1"/>
        <pt x="1103" y="275" on="0"/>
        <pt x="952" y="126" on="1"/>
        <pt x="809" y="-16" on="0"/>
      </contour>
      <contour>
        <pt x="296" y="518" on="1"/>
        <pt x="296" y="262" on="0"/>
        <pt x="460" y="170" on="1"/>
        <pt x="518" y="138" on="0"/>
        <pt x="680" y="138" on="0"/>
        <pt x="792" y="203" on="0"/>
        <pt x="828" y="256" on="1"/>
        <pt x="895" y="358" on="0"/>
        <pt x="895" y="518" on="1"/>
        <pt x="895" y="772" on="0"/>
        <pt x="734" y="866" on="1"/>
        <pt x="678" y="899" on="0"/>
        <pt x="522" y="899" on="0"/>
        <pt x="407" y="834" on="0"/>
        <pt x="370" y="781" on="1"/>
        <pt x="296" y="677" on="0"/>
      </contour>
    </TTGlyph>
    <TTGlyph name="otilde" xMin="88" yMin="-16" xMax="1103" yMax="1524">
      <component glyphName="o" x="0" y="0" flags="0x1204"/>
      <component glyphName="tilde" x="85" y="0" flags="0x1004"/>
    </TTGlyph>
    <TTGlyph name="p" xMin="170" yMin="-400" xMax="1070" yMax="1048">
      <contour>
        <pt x="370" y="-400" on="1"/>
        <pt x="170" y="-400" on="1"/>
        <pt x="170" y="1032" on="1"/>
        <pt x="350" y="1032" on="1"/>
        <pt x="358" y="914" on="1"/>
        <pt x="418" y="994" on="0"/>
        <pt x="542" y="1033" on="1"/>
        <pt x="590" y="1048" on="0"/>
        <pt x="689" y="1048" on="0"/>
        <pt x="785" y="1027" on="0"/>
        <pt x="879" y="980" on="0"/>
        <pt x="965" y="903" on="0"/>
        <pt x="998" y="846" on="1"/>
        <pt x="1070" y="723" on="0"/>
        <pt x="1070" y="541" on="1"/>
        <pt x="1070" y="263" on="0"/>
        <pt x="878" y="116" on="1"/>
        <pt x="708" y="-15" on="0"/>
        <pt x="464" y="-15" on="1"/>
        <pt x="414" y="-15" on="1"/>
        <pt x="390" y="-15" on="0"/>
        <pt x="370" y="-14" on="1"/>
      </contour>
      <contour>
        <pt x="370" y="148" on="1"/>
        <pt x="398" y="140" on="0"/>
        <pt x="562" y="140" on="0"/>
        <pt x="706" y="186" on="0"/>
        <pt x="756" y="234" on="1"/>
        <pt x="862" y="336" on="0"/>
        <pt x="862" y="541" on="1"/>
        <pt x="862" y="734" on="0"/>
        <pt x="770" y="826" on="1"/>
        <pt x="702" y="894" on="0"/>
        <pt x="604" y="894" on="1"/>
        <pt x="481" y="894" on="0"/>
        <pt x="400" y="803" on="1"/>
        <pt x="379" y="780" on="0"/>
        <pt x="370" y="762" on="1"/>
      </contour>
    </TTGlyph>
    <TTGlyph name="paragraph" xMin="75" yMin="-340" xMax="1030" yMax="1360">
      <contour>
        <pt x="500" y="510" on="1"/>
        <pt x="324" y="510" on="0"/>
        <pt x="75" y="759" on="0"/>
        <pt x="75" y="935" on="1"/>
        <pt x="75" y="1111" on="0"/>
        <pt x="324" y="1360" on="0"/>
        <pt x="500" y="1360" on="1"/>
        <pt x="656" y="1360" on="1"/>
        <pt x="656" y="1359" on="1"/>
        <pt x="874" y="1359" on="1"/>
        <pt x="874" y="1360" on="1"/>
        <pt x="1030" y="1360" on="1"/>
        <pt x="1030" y="-340" on="1"/>
        <pt x="874" y="-340" on="1"/>
        <pt x="874" y="1213" on="1"/>
        <pt x="656" y="1213" on="1"/>
        <pt x="656" y="-340" on="1"/>
        <pt x="500" y="-340" on="1"/>
      </contour>
    </TTGlyph>
    <TTGlyph name="parenleft" xMin="109" yMin="-170" xMax="688" yMax="1530">
      <contour>
        <pt x="480" y="-170" on="1"/>
        <pt x="189" y="68" on="0"/>
        <pt x="128" y="440" on="1"/>
        <pt x="109" y="556" on="0"/>
        <pt x="109" y="680" on="1"/>
        <pt x="109" y="1081" on="0"/>
        <pt x="305" y="1348" on="1"/>
        <pt x="376" y="1444" on="0"/>
        <pt x="480" y="1530" on="1"/>
        <pt x="688" y="1530" on="1"/>
        <pt x="407" y="1311" on="0"/>
        <pt x="323" y="940" on="1"/>
        <pt x="295" y="816" on="0"/>
        <pt x="295" y="543" on="0"/>
        <pt x="351" y="296" on="0"/>
        <pt x="402" y="188" on="1"/>
        <pt x="503" y="-26" on="0"/>
        <pt x="688" y="-170" on="1"/>
      </contour>
    </TTGlyph>
    <TTGlyph name="parenright" xMin="-48" yMin="-170" xMax="531" yMax="1530">
      <component glyphName="parenleft" x="640" y="0" scalex="-0.999938964844" scaley="1.0" flags="0x1004"/>
    </TTGlyph>
    <TTGlyph name="partialdiff" xMin="109" yMin="-16" xMax="1094" yMax="1360">
      <contour>
        <pt x="247" y="1341" on="1"/>
        <pt x="366" y="1360" on="0"/>
        <pt x="611" y="1360" on="0"/>
        <pt x="813" y="1291" on="0"/>
        <pt x="951" y="1178" on="0"/>
        <pt x="1035" y="1033" on="0"/>
        <pt x="1058" y="958" on="1"/>
        <pt x="1094" y="835" on="0"/>
        <pt x="1094" y="692" on="1"/>
        <pt x="1094" y="399" on="0"/>
        <pt x="1010" y="235" on="1"/>
        <pt x="949" y="117" on="0"/>
        <pt x="734" y="-16" on="0"/>
        <pt x="495" y="-16" on="0"/>
        <pt x="318" y="47" on="0"/>
        <pt x="252" y="108" on="1"/>
        <pt x="109" y="239" on="0"/>
        <pt x="109" y="458" on="1"/>
        <pt x="109" y="675" on="0"/>
        <pt x="250" y="804" on="1"/>
        <pt x="380" y="925" on="0"/>
        <pt x="576" y="925" on="1"/>
        <pt x="821" y="925" on="0"/>
        <pt x="922" y="747" on="1"/>
        <pt x="926" y="747" on="1"/>
        <pt x="926" y="924" on="0"/>
        <pt x="824" y="1046" on="1"/>
        <pt x="703" y="1190" on="0"/>
        <pt x="470" y="1190" on="1"/>
        <pt x="411" y="1190" on="0"/>
        <pt x="263" y="1162" on="0"/>
        <pt x="247" y="1157" on="1"/>
      </contour>
      <contour>
        <pt x="309" y="458" on="1"/>
        <pt x="309" y="398" on="0"/>
        <pt x="345" y="283" on="0"/>
        <pt x="381" y="238" on="1"/>
        <pt x="461" y="138" on="0"/>
        <pt x="602" y="138" on="1"/>
        <pt x="753" y="138" on="0"/>
        <pt x="831" y="248" on="1"/>
        <pt x="894" y="336" on="0"/>
        <pt x="894" y="458" on="1"/>
        <pt x="894" y="596" on="0"/>
        <pt x="815" y="678" on="1"/>
        <pt x="734" y="763" on="0"/>
        <pt x="592" y="763" on="1"/>
        <pt x="455" y="763" on="0"/>
        <pt x="378" y="672" on="1"/>
        <pt x="309" y="590" on="0"/>
      </contour>
    </TTGlyph>
    <TTGlyph name="percent" xMin="116" yMin="0" xMax="1588" yMax="1360">
      <contour>
        <pt x="430" y="680" on="1"/>
        <pt x="361" y="680" on="0"/>
        <pt x="245" y="725" on="0"/>
        <pt x="204" y="768" on="1"/>
        <pt x="116" y="860" on="0"/>
        <pt x="116" y="1019" on="1"/>
        <pt x="116" y="1175" on="0"/>
        <pt x="204" y="1268" on="1"/>
        <pt x="289" y="1359" on="0"/>
        <pt x="431" y="1359" on="1"/>
        <pt x="570" y="1359" on="0"/>
        <pt x="655" y="1268" on="1"/>
        <pt x="741" y="1176" on="0"/>
        <pt x="741" y="1019" on="1"/>
        <pt x="741" y="860" on="0"/>
        <pt x="655" y="768" on="1"/>
        <pt x="572" y="680" on="0"/>
      </contour>
      <contour>
        <pt x="276" y="918" on="0"/>
        <pt x="358" y="808" on="0"/>
        <pt x="502" y="808" on="0"/>
        <pt x="581" y="918" on="0"/>
        <pt x="581" y="1117" on="0"/>
        <pt x="502" y="1231" on="0"/>
        <pt x="358" y="1231" on="0"/>
        <pt x="276" y="1117" on="0"/>
      </contour>
      <contour>
        <pt x="963" y="339" on="1"/>
        <pt x="963" y="419" on="0"/>
        <pt x="1009" y="545" on="0"/>
        <pt x="1050" y="589" on="1"/>
        <pt x="1136" y="680" on="0"/>
        <pt x="1278" y="680" on="1"/>
        <pt x="1417" y="680" on="0"/>
        <pt x="1502" y="589" on="1"/>
        <pt x="1588" y="497" on="0"/>
        <pt x="1588" y="340" on="1"/>
        <pt x="1588" y="181" on="0"/>
        <pt x="1502" y="90" on="1"/>
        <pt x="1419" y="1" on="0"/>
        <pt x="1278" y="1" on="1"/>
        <pt x="1135" y="1" on="0"/>
        <pt x="1050" y="90" on="1"/>
        <pt x="963" y="181" on="0"/>
      </contour>
      <contour>
        <pt x="1205" y="552" on="0"/>
        <pt x="1123" y="438" on="0"/>
        <pt x="1123" y="239" on="0"/>
        <pt x="1205" y="129" on="0"/>
        <pt x="1349" y="129" on="0"/>
        <pt x="1428" y="239" on="0"/>
        <pt x="1428" y="438" on="0"/>
        <pt x="1349" y="552" on="0"/>
      </contour>
      <contour>
        <pt x="1153" y="1360" on="1"/>
        <pt x="1320" y="1360" on="1"/>
        <pt x="533" y="0" on="1"/>
        <pt x="366" y="0" on="1"/>
      </contour>
    </TTGlyph>
    <TTGlyph name="period" xMin="117" yMin="-25" xMax="397" yMax="229">
      <contour>
        <pt x="196" y="-25" on="0"/>
        <pt x="117" y="40" on="0"/>
        <pt x="117" y="163" on="0"/>
        <pt x="196" y="229" on="0"/>
        <pt x="317" y="229" on="0"/>
        <pt x="397" y="163" on="0"/>
        <pt x="397" y="40" on="0"/>
        <pt x="317" y="-25" on="0"/>
      </contour>
    </TTGlyph>
    <TTGlyph name="periodcentered" xMin="117" yMin="596" xMax="397" yMax="850">
      <contour>
        <pt x="397" y="661" on="0"/>
        <pt x="317" y="596" on="0"/>
        <pt x="196" y="596" on="0"/>
        <pt x="117" y="661" on="0"/>
        <pt x="117" y="784" on="0"/>
        <pt x="196" y="850" on="0"/>
        <pt x="317" y="850" on="0"/>
        <pt x="397" y="784" on="0"/>
      </contour>
    </TTGlyph>
</ttFont>
